<?xml version="1.0" standalone="no"?>
<!DOCTYPE svg PUBLIC "-//W3C//DTD SVG 1.1//EN" "http://www.w3.org/Graphics/SVG/1.1/DTD/svg11.dtd" >
<svg xmlns="http://www.w3.org/2000/svg" xmlns:xlink="http://www.w3.org/1999/xlink" version="1.1">
<metadata>
Created by FontForge 20170812 at Thu Dec 23 15:19:13 2021
 By www-data
</metadata>
<defs>
<font id="TheWinterRegular" horiz-adv-x="0" >
  <font-face 
    font-family="The Winter"
    font-weight="400"
    font-stretch="normal"
    units-per-em="1000"
    panose-1="0 0 0 0 0 0 0 0 0 0"
    ascent="800"
    descent="-200"
    x-height="431.277"
    cap-height="708.49"
    bbox="-73.9999 -273.78 942.542 891.852"
    underline-thickness="50"
    underline-position="-100"
    unicode-range="U+000A-20AC"
  />
<missing-glyph horiz-adv-x="527" 
d="M50 700h427v-700h-427v700zM78 680l185 -309l186 309h-371zM251 350l-180 300v-601zM264 329l-185 -308h370zM276 350l181 -303v605z" />
    <glyph glyph-name=".notdef" horiz-adv-x="527" 
d="M50 700h427v-700h-427v700zM78 680l185 -309l186 309h-371zM251 350l-180 300v-601zM264 329l-185 -308h370zM276 350l181 -303v605z" />
    <glyph glyph-name=".null" 
 />
    <glyph glyph-name=".null" 
 />
    <glyph glyph-name="LF" unicode="&#xa;" 
 />
    <glyph glyph-name="controlCR" unicode="&#xd;" 
 />
    <glyph glyph-name="space" unicode=" " horiz-adv-x="314" 
 />
    <glyph glyph-name="exclam" unicode="!" horiz-adv-x="131" 
d="M76.0801 691.383c22.0684 -226.203 31.2373 -455.744 24.918 -682.989c-1.13086 -40.6797 -63.4121 -40.7939 -63.2764 0c0.381836 113.926 1.62402 227.741 -0.0849609 341.674c-1.70508 113.794 -5.61914 227.577 -9.61523 341.314
c-1.10254 31.4316 45.1152 30.1797 48.0586 0.000976562zM97.4912 -89.6367c1.8877 -6.85742 1.12598 -13.9834 -1.4248 -20.4736c0.0107422 -0.157227 0.0107422 -0.314453 0.0253906 -0.47168c0.213867 -1.6416 0.424805 -3.2832 0.642578 -4.9248
c0.942383 -7.05762 -4.12793 -17.5439 -9.19141 -22.1934c-4.01074 -3.67871 -8.67383 -6.39355 -13.8516 -8.07031c-6.62207 -2.14453 -14.2012 -1.05273 -20.4385 1.58008c-6.0332 2.54395 -11.8496 6.89355 -15.0107 12.8418
c-4.01074 7.54297 -6.42676 16.124 -5.69922 24.748c0.756836 8.98828 2.69824 16.5703 7.11914 24.5205c8.58887 15.4502 28.3955 19.2178 43.2891 11.3506c6.84375 -3.61426 12.5205 -11.5674 14.54 -18.9072z" />
    <glyph glyph-name="quotedbl" unicode="&#x22;" horiz-adv-x="182" 
d="M73.6631 681.616c-2.79395 -51.4375 1.16992 -103.87 4.88477 -155.165c2.37305 -32.8047 -47.7803 -32.0986 -50.7344 0c-2.49414 27.1279 -3.85742 54.3379 -4.46387 81.5732c-0.571289 25.5547 -4.00391 55.1738 2.9502 80.0039
c7.21875 25.7686 48.8584 21.1406 47.3633 -6.41211zM159.729 481.312c2.35449 -27.0322 -41.25 -32.2383 -46.8701 -6.34473c-15.8672 73.1357 -17.1377 150.71 -13.8125 225.219c1.44531 32.3516 51.8164 32.4336 50.3994 0
c-3.21875 -73.7344 3.89648 -145.589 10.2832 -218.874z" />
    <glyph glyph-name="quotedbl" unicode="&#x201d;" horiz-adv-x="182" 
d="M73.6631 681.616c-2.79395 -51.4375 1.16992 -103.87 4.88477 -155.165c2.37305 -32.8047 -47.7803 -32.0986 -50.7344 0c-2.49414 27.1279 -3.85742 54.3379 -4.46387 81.5732c-0.571289 25.5547 -4.00391 55.1738 2.9502 80.0039
c7.21875 25.7686 48.8584 21.1406 47.3633 -6.41211zM159.729 481.312c2.35449 -27.0322 -41.25 -32.2383 -46.8701 -6.34473c-15.8672 73.1357 -17.1377 150.71 -13.8125 225.219c1.44531 32.3516 51.8164 32.4336 50.3994 0
c-3.21875 -73.7344 3.89648 -145.589 10.2832 -218.874z" />
    <glyph glyph-name="quotedbl" unicode="&#x201c;" horiz-adv-x="182" 
d="M73.6631 681.616c-2.79395 -51.4375 1.16992 -103.87 4.88477 -155.165c2.37305 -32.8047 -47.7803 -32.0986 -50.7344 0c-2.49414 27.1279 -3.85742 54.3379 -4.46387 81.5732c-0.571289 25.5547 -4.00391 55.1738 2.9502 80.0039
c7.21875 25.7686 48.8584 21.1406 47.3633 -6.41211zM159.729 481.312c2.35449 -27.0322 -41.25 -32.2383 -46.8701 -6.34473c-15.8672 73.1357 -17.1377 150.71 -13.8125 225.219c1.44531 32.3516 51.8164 32.4336 50.3994 0
c-3.21875 -73.7344 3.89648 -145.589 10.2832 -218.874z" />
    <glyph glyph-name="numbersign" unicode="#" horiz-adv-x="638" 
d="M543.514 607.068c-12.667 -31.5781 -24.9404 -63.3066 -37.2109 -95.0303c-13.4629 -34.7852 -26.4648 -69.7344 -39.1992 -104.78c25.7402 0.563477 52.1865 -1.41699 73.2314 -13.7451c27.4668 -16.0918 3.23535 -56.5361 -24.7637 -42.3633
c-14.6611 7.42188 -32.5801 5.97363 -48.5977 6.07324c-5.96191 0.0390625 -11.9277 -0.0214844 -17.8896 -0.125c-3.93945 -11.083 -7.86816 -22.166 -11.7646 -33.2666c23.5889 3.82129 47.3096 7.01074 71.1797 9.37598c14.5762 1.44531 26.957 -13.4941 26.957 -26.957
c0 -15.5957 -12.4707 -25.5186 -26.957 -26.9561c-30.3857 -3.01172 -60.6396 -7.26855 -90.6934 -12.6211c-37.7471 -113.723 -70.042 -228.891 -106.041 -343.216c-12.3672 -39.2705 -71.2305 -23.1035 -61.6641 16.998c25.0586 105.027 59.1807 208.902 95.7285 311.136
c-30.0537 -7.30078 -59.8008 -15.8281 -89.1846 -25.4688c-30.5498 -91.5469 -57.3672 -184.121 -84.6562 -276.885c-10.9434 -37.1973 -66.8984 -21.626 -57.9531 15.9785c18.8574 79.2617 43.3027 157.589 70.7275 234.749
c-33.918 -13.6445 -67.2012 -28.8799 -99.6855 -45.7002c-26.5293 -13.7373 -49.8643 25.7402 -23.4961 40.1982c47.1846 25.876 95.9355 48.3447 145.886 67.4482c7.38574 19.5889 14.9072 39.1025 22.5498 58.5234c-10.376 -3.31152 -20.6953 -6.79785 -30.9355 -10.498
c-34.2363 -12.3672 -66.1641 -29.123 -99.5615 -43.3066c-24.8408 -10.5508 -44.5371 20.8945 -21.4697 36.7295c33.583 23.0537 73.4922 38.9893 111.421 53.3613c20.8057 7.88184 42.0039 14.7148 63.4551 20.6348c46.5244 113.391 98.6152 224.309 156.497 332.387
c13.9834 26.1113 52.5186 3.06836 39.4736 -23.0752c-48.0049 -96.207 -91.9492 -194.462 -131.526 -294.44c27.9775 5.25586 56.2725 9.0918 84.6602 11.4258c18.4297 47.9121 37.6084 95.5645 57.5859 142.827c13.2373 31.3242 26.7109 62.5703 40.6943 93.5664
c12.8633 28.5127 24.8379 60.2793 48.9551 81.3379c17.748 15.4961 50.7246 -5.78418 34.7178 -26.79c-19.5029 -25.5938 -28.627 -58.0068 -40.4697 -87.5254zM380.288 346.125c0.856445 2.31543 1.74805 4.61719 2.61133 6.92969
c-25.8223 -2.74414 -51.4697 -6.84375 -76.8926 -12.2998c-3.12891 -0.670898 -6.24707 -1.3877 -9.36523 -2.09766c-1.71289 -4.53906 -3.48633 -9.05957 -5.18164 -13.6055c-4.81738 -12.9131 -9.50586 -25.8652 -14.1191 -38.832
c29.5654 9.21289 59.5059 17.209 89.7451 24.042c4.38867 11.9785 8.78809 23.9355 13.2021 35.8633z" />
    <glyph glyph-name="dollar" unicode="$" horiz-adv-x="454" 
d="M322.909 347.703c88.082 -52.7539 140.382 -161.792 106.695 -262.355c-23.6426 -70.584 -83.5654 -122.646 -153.329 -134.882c0.539062 -22.4756 1.05957 -44.9473 1.53418 -67.4297c0.774414 -36.7617 -54.8271 -36.2305 -56.7539 0
c-1.18066 22.208 -2.1084 44.4443 -2.92188 66.6914c-8.25293 1.22363 -16.5342 2.96875 -24.8193 5.38477c-114.062 33.2617 -147.431 157.703 -145.083 263.279c0.838867 37.7188 58.2031 37.7363 58.5957 0c0.602539 -57.9814 6.36523 -122.753 46.2314 -168.492
c17.2842 -19.8281 39.335 -32.8125 63.2559 -38.7461c-2.3623 101.848 -1.63477 203.928 0.117188 305.562c0.0820312 4.81738 0.200195 9.63477 0.289062 14.4521c-41.9678 12.2568 -86.3086 19.8672 -126.593 31.5527c-23.2217 6.73633 -49.2012 15.4463 -65.6182 34.125
c-18.0371 20.5273 -19.3857 47.959 -8.9707 72.3291c19.4893 45.6035 69.2393 81.0244 112.438 102.216c29.9863 14.7041 63.6191 25.8223 97.6484 30.2109c2.36523 49.5684 5.11621 99.1152 8.33789 148.634c1.88379 28.9512 46.6318 29.3262 45.3828 0
c-2.08691 -49.0967 -3.84277 -98.2012 -5.28418 -147.316c1.14551 -0.0927734 2.29102 -0.146484 3.43262 -0.260742c26.8789 -2.67578 52.9727 -11.7314 72.001 -31.6914c17.3193 -18.1689 26.9385 -41.3721 36.2939 -64.2402
c10.3691 -25.3438 -33.3115 -43.3379 -44.0732 -18.5791c-11.6143 26.7285 -22.9287 53.4326 -53.7754 60.7334c-4.98438 1.18066 -10.0869 1.97266 -15.2607 2.44336c-1.44824 -59.3945 -2.39746 -118.796 -2.74023 -178.208
c18.3291 -7.01465 36.1201 -15.3213 52.9688 -25.4121zM217.998 389.6c1.30273 52.7793 3.03613 105.546 5.23438 158.297c-6.38379 -1.24219 -12.6494 -2.69434 -18.708 -4.26074c-27.4062 -7.09668 -53.1426 -18.3789 -76.9775 -33.6465
c-22.2217 -14.2334 -47.5479 -33.373 -60.3467 -57.0186c-4.61035 -8.5166 -7.61816 -16.5127 0.641602 -23.3418c8.12793 -6.72266 20.8877 -9.86621 30.7109 -12.8916c26.4219 -8.13867 53.832 -12.3311 80.832 -18.0469
c12.877 -2.72559 25.7861 -5.71582 38.6133 -9.09082zM374.818 105.891c13.9551 45.0977 5.27051 93.0938 -19.4033 132.85c-21.6152 34.832 -51.6123 57.168 -85.6025 72.9746c0.135742 -100.492 2.53711 -200.853 5.00586 -301.245
c4.77441 1.02051 9.54102 2.22266 14.2656 3.77441c41.4863 13.623 73.0283 50.5811 85.7344 91.6465z" />
    <glyph glyph-name="percent" unicode="%" horiz-adv-x="693" 
d="M662.499 613.904c-44.6299 -43.0986 -88.2539 -87.2295 -130.104 -133.04c-148.515 -162.56 -272.756 -341.328 -381.104 -532.689c-19.5527 -34.5322 -71.6475 -3.80371 -53.0508 31.0107c29.7148 55.6299 62.8164 109.451 97.3945 162.181
c121.947 185.955 268.093 357.327 435.248 504.154c21.4482 18.8398 52.5088 -11.4424 31.6172 -31.6162zM196.084 539.997c-44.6123 -6.12598 -82.8828 -34.7871 -104.045 -73.9473c-14.0264 -25.9404 -52.5088 -3.01562 -39.332 22.9883
c26.8965 53.083 79.6934 91.6611 138.728 100.157c56.4648 8.12793 109.13 -15.7285 124.673 -73.5244c13.7832 -51.2627 -2.7334 -109.091 -33.4404 -151.091c-30.3535 -41.5146 -94.5293 -94.5293 -144.062 -49.0684c-46.5742 42.7422 -27.8916 124.401 -11.7031 176.307
c11.707 37.5508 69.5742 21.8828 59.0801 -16.2891c-7.28223 -26.4824 -14.6221 -53.4893 -13.9404 -81.1738c0.224609 -9.18457 0.610352 -24.3887 6.80859 -31.875c5.13477 -6.20117 9.62305 -3.95312 17.291 -0.317383c38.0039 18.0117 64.6826 63.9619 70.1914 104.424
c2.55469 18.7686 0.927734 41.8184 -11.0752 57.3789c-13.6377 17.6768 -38.8105 18.8291 -59.1738 16.0312zM642.348 269.972c41.6719 -35.8242 36.6797 -97.4141 16.9805 -143.382c-19.8066 -46.2217 -59.1953 -91.3223 -104.988 -113.263
c-24.3203 -11.6533 -53.3467 -18.6504 -79.6436 -9.33008c-25.1299 8.90625 -41.2402 31.8066 -46.0361 57.4365c-10.4541 55.8408 7.58594 117.794 34.8467 166.271c19.2568 34.2471 70.5947 3.85059 52.4727 -30.6709
c-12.4453 -23.71 -21.3799 -49.3467 -25.7969 -75.8076c-2.45508 -14.6865 -8.2207 -43.1064 1.27051 -56.6904c9.33105 -13.3555 34.9932 -0.798828 45.9902 5.46289c19.0176 10.8291 35.5381 26.0508 49.75 42.5889c24.4092 28.4023 53.5391 83.4512 26.2715 118.646
c-30.6396 39.5488 -94.7441 25.4404 -135.089 13.6162c-20.791 -6.09473 -29.4512 26.0107 -8.90625 32.3086c57.8174 17.7227 121.322 37.1367 172.878 -7.18652z" />
    <glyph glyph-name="ampersand" unicode="&#x26;" horiz-adv-x="475" 
d="M401.98 260.463c45.2832 -25.9834 63.4053 -73.7744 51.2305 -123.992c-20.6875 -85.3848 -102.29 -154.178 -180.589 -185.627c-80.8535 -32.4736 -188.596 -30.7393 -235.42 55.002c-45.6328 83.5645 -10.498 186.279 38.4023 260.168
c23.9102 36.127 53.0684 68.8496 86.8906 95.9561c0.713867 0.571289 1.44141 1.13477 2.1582 1.70605c-29.7012 9.49512 -56.1123 26.376 -73.917 52.6445c-39.3271 58.0137 -14.2969 131.16 25.6797 180.968c36.8154 45.8643 92.1855 78.5518 149.917 89.5127
c52.3936 9.94434 131.655 9.56934 155.258 -49.6934c13.6484 -34.2676 -1.03027 -71.5117 -15.7168 -102.925c-13.7012 -29.3008 -32.7725 -56.0576 -55.3584 -79.1572c-26.4863 -27.0859 -66.3203 13.5088 -41.3154 41.3154
c20.4697 22.7607 37.8574 48.708 48.8789 77.3994c8.28125 21.5518 16.8301 43.8809 -9.82031 52.833c-46.1895 15.5176 -104.246 -4.77441 -142.856 -30.4326c-39.4102 -26.1895 -83.3018 -78.1621 -70.4639 -128.943c11.8389 -46.8242 73.0957 -56.248 119.588 -51.4131
c11.7891 3.58203 23.9814 5.84375 36.6094 6.29297c34.5322 1.23145 40.0342 -50.0996 7.98926 -59.0195c-11.5 -3.19727 -23.7568 -5.62402 -36.3916 -7.17969c-26.3037 -9.9082 -51.123 -30.0391 -70.6406 -46.9844c-27.5283 -23.8994 -51.5273 -51.499 -70.8018 -82.4492
c-33.626 -53.9893 -66.3486 -132.237 -31.9375 -193.22c34.7285 -61.543 118.368 -48.915 173.256 -25.6045c57.7139 24.5098 115.492 74.0098 137.176 134.336c11.3574 31.6025 5.2168 60.1514 -24.5625 77.7461c-21.9648 12.9805 -49.957 21.8223 -76.0508 19.5312
c-4.43555 -5.44141 -11.4609 -9.04199 -19.0605 -7.56836c-7.58594 1.46973 -11.6963 4.32031 -17.4834 9.29395c-9.80859 8.43164 -6.25488 24.8984 3.99316 30.9746c38.9883 23.1074 98.0654 9.93066 135.359 -11.4707z" />
    <glyph glyph-name="quotesingle" unicode="'" horiz-adv-x="103" 
d="M81.6611 515.854c1.74805 -13.998 -13.3516 -26.2539 -26.125 -26.1182c-15.3359 0.157227 -24.4062 12.0029 -26.1191 26.1182c-7.76465 64.0186 -9.17773 128.323 -5.43164 192.685c1.75195 30.043 47.6738 30.457 47.0566 0
c-1.30566 -64.4326 2.63379 -128.748 10.6191 -192.685z" />
    <glyph glyph-name="quotesingle" unicode="&#x2019;" horiz-adv-x="103" 
d="M81.6611 515.854c1.74805 -13.998 -13.3516 -26.2539 -26.125 -26.1182c-15.3359 0.157227 -24.4062 12.0029 -26.1191 26.1182c-7.76465 64.0186 -9.17773 128.323 -5.43164 192.685c1.75195 30.043 47.6738 30.457 47.0566 0
c-1.30566 -64.4326 2.63379 -128.748 10.6191 -192.685z" />
    <glyph glyph-name="quotesingle" unicode="&#x2018;" horiz-adv-x="103" 
d="M81.6611 515.854c1.74805 -13.998 -13.3516 -26.2539 -26.125 -26.1182c-15.3359 0.157227 -24.4062 12.0029 -26.1191 26.1182c-7.76465 64.0186 -9.17773 128.323 -5.43164 192.685c1.75195 30.043 47.6738 30.457 47.0566 0
c-1.30566 -64.4326 2.63379 -128.748 10.6191 -192.685z" />
    <glyph glyph-name="parenleft" unicode="(" horiz-adv-x="306" 
d="M254.537 786.786c2.95801 -10.1797 -4.09863 -19.9463 -13.1904 -22.7119c-0.874023 -1.07031 -1.75195 -2.14062 -2.62598 -3.21094c-2.62598 -3.06836 -5.32031 -6.09082 -7.92188 -9.18066c-5.12402 -6.08691 -10.0303 -12.3311 -14.6729 -18.793
c-10.0088 -13.9404 -19.25 -28.4414 -27.6211 -43.4199c-17.1592 -30.7002 -31.5205 -63.1631 -44.0449 -96.0039c-46.1602 -121.044 -65.3281 -251.309 -55.8301 -380.517c8.4668 -115.146 42.5957 -232.052 118.515 -321.254
c25.7363 -30.2393 -16.4492 -73.8945 -44.1523 -44.1504c-52.833 56.7217 -87.9609 126.457 -109.605 200.527c-40.5303 138.695 -36.623 291.792 -3.62207 431.522c16.9199 71.6367 42.3145 142.242 76.6035 207.445c16.5059 31.3848 35.5166 61.9209 59.8936 87.8535
c10.54 11.2109 24.4199 27.0391 40.4121 29.251c12.8633 1.77734 24.2061 -4.77734 27.8633 -17.3584z" />
    <glyph glyph-name="parenright" unicode=")" horiz-adv-x="332" 
d="M226.318 655.915c71.6299 -124.131 85.3086 -270.412 78.9932 -411.003c-6.74707 -150.342 -30.1357 -302.664 -85.0381 -443.365c-6.1875 -15.8535 -20.8379 -26.8076 -38.6104 -21.9229c-15.5107 4.26074 -27.582 22.6289 -21.9229 38.6104
c26.9893 76.2109 47.6523 154.713 61.6182 234.346c41.7969 238.328 58.5137 555.843 -161.909 716.022c-21.5479 15.6572 -2.72656 50.2861 21.3008 36.4414c61.2539 -35.2881 110.365 -88.125 145.568 -149.129z" />
    <glyph glyph-name="asterisk" unicode="*" horiz-adv-x="251" 
d="M228.84 501.149c-8.49902 -16.3672 -23.9834 -29.2734 -36.293 -42.8467c-11.832 -13.0303 -23.3857 -26.3389 -34.6611 -39.8516c17.5732 -17.3271 34.9531 -34.8359 51.9941 -52.6445c22.0791 -23.0752 -12.0752 -57.2578 -35.0469 -35.0459
c-6.55078 6.33301 -13.0625 12.7168 -19.5391 19.1318c0.0673828 -16.0635 0.0742188 -32.127 -0.0546875 -48.1904c-0.267578 -33.4541 -51.6055 -33.3936 -51.9053 0c-0.131836 14.7754 -0.149414 29.5508 -0.113281 44.3262
c-4.50293 -6.47949 -8.96973 -12.9873 -13.3945 -19.5312c-17.9727 -26.5713 -61.3291 -1.49121 -43.2314 25.2695c14.4258 21.334 29.9189 42 46.1465 62.0527c-22.7002 23.7812 -45.1582 47.7871 -67.5693 71.7578c-19.0859 20.417 10.3369 49.8789 30.6719 30.6719
c16.417 -15.5068 32.8477 -31.042 49.2148 -46.6523c0.681641 26.5039 1.49512 53.0039 2.41211 79.4932c0.966797 27.9492 42.3818 27.8926 43.374 0.000976562c0.795898 -22.4287 1.52344 -44.8652 2.16211 -67.3047c2.64746 2.70117 5.29492 5.40234 7.98535 8.06738
c12.8242 12.7129 26.4932 28.4629 43.0957 36.0488c16.249 7.4248 33.5117 -7.88965 24.752 -24.7529z" />
    <glyph glyph-name="plus" unicode="+" horiz-adv-x="296" 
d="M257.614 328.332c31.2246 1.84863 31.1279 -46.9502 0 -48.5557c-13.5449 -0.699219 -27.0898 -1.44824 -40.6309 -2.21875c0.884766 -60.8252 3.08301 -121.687 5.65527 -182.747c1.63086 -38.7314 -56.04 -37.4648 -59.4297 0
c-5.36328 59.3271 -7.12598 119.179 -6.29102 179.08c-28.3203 -1.84863 -56.6328 -3.85059 -84.9277 -6.08105c-29.6475 -2.33691 -28.9941 43.0674 0 45.8828c28.6914 2.78711 57.3965 5.32422 86.1201 7.63965c2.49805 69.1494 8.16016 138.203 15.6357 206.433
c3.41504 31.1387 51.9766 32.1484 49.5645 0c-5.06641 -67.5156 -6.85059 -134.8 -6.72168 -202.073c13.6689 0.931641 27.3457 1.83105 41.0254 2.64062z" />
    <glyph glyph-name="comma" unicode="," horiz-adv-x="124" 
d="M60.6289 67.0293c18.9434 24.0459 60.5762 -8.44434 42.3359 -32.665c-32.4023 -43.0273 -55.5557 -99.0576 -103.019 -128.323c-24.5625 -15.1465 -53.0859 21.0586 -31.042 40.2334c39.292 34.1787 59.9082 80.3643 91.7246 120.755z" />
    <glyph glyph-name="hyphen" unicode="-" horiz-adv-x="300" 
d="M260.001 245.327c13.1445 1.60254 24.6553 -12.5059 24.5342 -24.5342c-0.149414 -14.5146 -11.293 -22.7676 -24.5303 -24.5303c-37.5684 -5.00586 -75.2549 -8.92383 -112.984 -12.4922c-36.5264 -3.4541 -76.6992 -10.0195 -113.262 -5.64844
c-20.4307 2.44434 -27.0996 31.1279 -5.07715 37.5078c36.2979 10.5186 77.3955 11.293 114.91 15.5352c38.8428 4.39258 77.6064 9.43457 116.409 14.1621z" />
    <glyph glyph-name="period" unicode="." horiz-adv-x="97" 
d="M81.0039 15.002c1.32031 -4.20703 1.50879 -8.4082 0.566406 -12.6152c-0.189453 -4.20996 -1.44141 -8.13086 -3.75391 -11.7637c-1.9873 -3.68945 -4.70605 -6.64746 -8.14941 -8.87793c-3.05469 -2.79785 -6.64062 -4.68555 -10.7578 -5.66309
c-1.57715 -0.431641 -3.15039 -0.867188 -4.72754 -1.29883c-8.40625 -2.3125 -16.8877 -0.795898 -24.4453 3.19727c-7.33984 3.875 -12.0957 11.2822 -14.5791 18.957c-1.32422 4.21387 -1.51367 8.43164 -0.568359 12.6494
c0.192383 4.22461 1.44434 8.15332 3.76367 11.7959c1.99414 3.7002 4.7168 6.66504 8.1709 8.90234c3.06152 2.80078 6.6582 4.69531 10.7861 5.67676c1.58789 0.37793 3.17969 0.759766 4.77148 1.1377c5.60938 1.50586 11.2148 1.50586 16.8242 0l7.55859 -3.19043
c7.31836 -3.86426 12.0635 -11.25 14.54 -18.9072z" />
    <glyph glyph-name="slash" unicode="/" horiz-adv-x="638" 
d="M544.828 671.001c22.333 25.2725 58.4131 -11.5586 36.8223 -36.8174c-40.1621 -46.9707 -79.2832 -94.8223 -117.212 -143.62c-133.946 -172.332 -248.097 -356.539 -355.957 -545.944c-20.1953 -35.46 -73.3672 -3.98242 -54.4951 31.8516
c29.2725 55.5908 61.5176 109.619 94.54 163.055c116.241 188.085 249.924 365.841 396.302 531.476z" />
    <glyph glyph-name="zero" unicode="0" horiz-adv-x="421" 
d="M295.716 548.896c92.3564 -66.8203 113.625 -193.88 98.6748 -300.063c-13.8154 -98.1084 -60.3574 -233.871 -177.185 -242.741c-49.9502 -3.79297 -97.249 24.8877 -126.625 63.5693c-33.0156 43.4736 -43.9268 98.9395 -47.0381 152.343
c-5.96973 102.479 20.8555 203.988 60.0225 298.279c-7.77441 -4.31348 -15.292 -9.13379 -22.2002 -14.7354c-3.55371 -2.88672 -12.292 -8.73145 -15.8711 -13.3916c-1.30273 -19.5029 -28.6699 -31.7412 -40.5264 -10.6006
c-15.0605 26.8574 16.2568 50.4854 35.3818 64.8545c21.4512 16.1133 46.4961 28.0342 72.6504 34.1855c55.2197 12.9844 116.605 1.65918 162.716 -31.6992zM339.014 260.765c11.7637 81.6699 -0.394531 182.851 -64.9697 241.182
c-26.4326 23.874 -61.8174 37.0869 -97.3018 37.4648c-0.578125 -3.16504 -1.5166 -6.31934 -2.81934 -9.37695c-40.5732 -95.3428 -72.3936 -196.812 -68.875 -301.493c1.3418 -39.9873 7.26855 -81.627 28.8203 -116.17
c17.6875 -28.3525 51.0176 -52.6475 86.0352 -47.4092c81.5703 12.1992 109.48 128.94 119.11 195.803z" />
    <glyph glyph-name="one" unicode="1" horiz-adv-x="135" 
d="M92.0947 614.509c-2.21582 -203.242 -8.38086 -405.558 16.8418 -607.79c4.47754 -35.9062 -57.582 -43.8418 -62.9697 -8.52148c-31.0742 203.746 -18.6504 411.97 -0.424805 616.312c2.61914 29.3838 46.8848 30.4004 46.5527 0z" />
    <glyph glyph-name="two" unicode="2" horiz-adv-x="547" 
d="M476.283 47.7412c27.3135 -2.8291 27.54 -45.8643 0.000976562 -43.0488c-52.041 5.33398 -91.3438 35.4385 -131.974 65.7139c-15.1396 11.2822 -30.4434 21.6904 -46.2969 29.8398c-21.8262 -31.0781 -47.3809 -59.3945 -77.7314 -82.5303
c-37.5293 -28.6094 -133.305 -73.874 -164.818 -14.2549c-15.9385 30.1465 6.14844 60.6221 25.7588 82.459c21.0947 23.4893 46.7568 44.1768 75.5225 57.4219c33.2158 15.293 67.4268 20.0312 100.66 15.3711c42.7354 66.2207 69.7461 144.979 81.0752 220.888
c7.60742 50.9883 7.42188 104.292 -2.04102 154.998c-7.37207 39.5029 -20.9844 100.992 -71.1523 103.083c-49.8467 2.08008 -97.9199 -43.8232 -122.79 -82.8193c-13.1982 -20.6982 -23.2354 -43.0879 -29.6221 -66.7979
c-3.33594 -12.3887 -15.7598 -54.9062 2.35156 -62.5166c19.3672 -8.13867 10.9502 -40.1445 -8.82031 -31.9883c-63.2549 26.0967 -23.7773 124.887 -0.602539 166.662c32.1592 57.9746 91.6719 120.763 162.346 122.929
c66.6055 2.04492 104.049 -58.8164 120.305 -115.363c18.501 -64.3467 21.0703 -133.578 12.4395 -199.681c-9.20215 -70.4561 -30.9316 -137.896 -63.1377 -201.216c-5.07422 -9.97266 -10.4336 -19.8389 -16.0674 -29.5479
c5.40234 -2.9043 10.7402 -6.06543 15.9961 -9.4873c43.2129 -28.1377 84.6562 -74.5234 138.599 -80.1143zM95.9395 31.6309c0.489258 0.0566406 0.927734 -0.0458984 1.35547 -0.170898c-0.306641 0.160156 -0.727539 0.242188 -1.35547 0.170898zM213.826 101.892
c4.59961 5.00586 9.05176 10.166 13.4053 15.4326c-9.68359 -0.489258 -19.667 -2.16309 -30.0283 -5.25977c-24.9268 -7.4541 -47.791 -21.8799 -66.3633 -39.9805c-9.19531 -8.9668 -17.9766 -18.9004 -24.9736 -29.6904
c-1.3877 -2.1377 -2.97559 -7.37891 -4.60254 -10.5479c8.25977 3.84277 19.5635 4.7207 28.2412 8.60645c10.5293 4.71387 20.8516 10.1377 30.6387 16.2461c20.1064 12.5488 37.665 27.749 53.6826 45.1934z" />
    <glyph glyph-name="three" unicode="3" horiz-adv-x="530" 
d="M464.575 312.93c55.0947 -46.667 61.2041 -126.228 42.2363 -191.506c-18.0654 -62.1738 -52.1982 -126.242 -107.443 -162.701c-56.1016 -37.0225 -132.237 -37.3398 -182.673 9.39844c-52.0127 48.1982 -58.7881 123.632 -48.1553 189.652
c5.6416 35.0391 63.8555 26.3936 61.4902 -8.32031c-3.37891 -49.5391 -4.45605 -115.574 45.1582 -144.187c41.0977 -23.6992 90.0625 2.37988 118.271 33.8965c31.5566 35.2598 55.0986 88.5889 59.7266 135.584c4.8418 49.1787 -15.8672 93.748 -64.2324 110.672
c-53.6855 18.7861 -112.666 -0.349609 -165.313 19.582c-23.2354 8.79883 -28.6621 32.6484 -13.6514 51.7129c37.6182 47.7734 82.3154 90.3125 114.243 142.403c14.04 22.9111 27.8486 49.7646 31.3955 76.7822c3.4502 26.293 -14.9258 33.6074 -38.1787 33.9717
c-52.6084 0.820312 -106.237 -24.6562 -147.635 -55.6523c-20.2637 -15.1719 -39.1279 -33.3545 -54.5459 -53.457c-5.19141 -6.76855 -40.2119 -52.6084 -29.4971 -60.5156c16.5342 -12.1992 1.57715 -39.7734 -16.4883 -28.209
c-49.8857 31.9414 9.87598 109.769 34.96 138.488c34.5176 39.5205 79.8857 68.8857 128.322 88.3604c45.9678 18.4824 119.442 34.4033 157.778 -8.09277c39.7773 -44.0908 8.62402 -117.255 -15.9463 -160.996c-22.8818 -40.7373 -53.8389 -75.626 -83.8574 -111.182
c3.62207 0.0322266 7.25781 0.0751953 10.9258 0.0898438c19.9922 0.0888672 39.8164 -0.717773 59.6514 -3.30078c37.8438 -4.93066 74.0244 -17.5439 103.458 -42.4746z" />
    <glyph glyph-name="four" unicode="4" horiz-adv-x="398" 
d="M318.171 623.922c8.78125 27.9307 55.9316 24.2256 53.0811 -7.18457c-18.668 -206.137 -22.125 -413.344 -4.69824 -619.573c1.50977 -17.8477 -16.2988 -32.9766 -32.9766 -32.9766c-19.293 0 -30.9219 15.2861 -32.9775 32.9766
c-15.3818 132.412 -11.0752 265.359 -1.59082 398.004c-2.67578 -6.79004 -5.34082 -13.5869 -8.13867 -20.3311c-26.3076 -63.4268 -56.7148 -132.112 -107 -180.585c-24.0557 -23.1895 -56.6465 -41.5117 -91.0322 -34.0469
c-33.4365 7.26074 -55.2979 37.1436 -65.3457 68.168c-10.2979 31.792 -8.07129 66.3281 -4.51074 99.0156c3.83887 35.2637 9.62305 70.3555 18.4541 104.727c17.4658 67.9727 44.6973 132.99 80.71 193.198c16.2559 27.1748 56.5859 3.18262 42.2168 -24.6768
c-30.4717 -59.0918 -53.3506 -122.115 -67.3018 -187.147c-6.10156 -28.4482 -10.8467 -57.1143 -13.4268 -86.1016c-2.31934 -26.0654 -5.2168 -54.4141 2.93945 -79.7617c6.85742 -21.3154 18.7461 -32.7686 39.623 -20.2266
c22.3047 13.4014 39.1885 37.4111 53.2002 58.8125c66.6445 101.773 102.622 222.692 138.774 337.71z" />
    <glyph glyph-name="five" unicode="5" horiz-adv-x="587" 
d="M523.434 317.472c74.9053 -62.4414 42.334 -173.105 3.00977 -245.791c-38.0752 -70.3701 -117.155 -131.306 -200.935 -101.041c-89.4492 32.3125 -107.15 155.148 -77.4062 234.225c13.3906 35.6025 68.2969 21.9834 57.9531 -15.9775
c-11.1465 -40.915 -14.7148 -87.957 5.33398 -126.992c17.4336 -33.9395 51.498 -43.0703 86.7041 -31.9199c31.9238 10.1123 54.792 37.54 71.0303 65.5527c18.6006 32.0918 35.8594 71.0732 37.9932 108.478c1.9375 33.9795 -10.5762 64.4336 -42.7178 78.9912
c-32.4443 14.6934 -70.0166 10.8223 -103.938 4.52441c-37.2148 -6.91113 -87.2363 -26.4717 -123.763 -9.62988c-39.6523 18.2793 -47.5771 67.665 -44.0771 106.864c2.97559 33.29 10.1436 65.8916 19.8203 97.8652c-13.1953 -7.35352 -26.1836 -15.0752 -38.875 -23.2246
c-30.9033 -19.8418 -55.5479 -44.5615 -83.2793 -68.1357c-19.0752 -16.2139 -51.4521 4.73828 -36.4268 28.1055c21.9014 34.0615 58.21 60.2695 91.375 82.5234c29.5869 19.8525 60.8975 37.2646 93.0029 52.7676c10.123 24.9199 21.084 49.4502 32.0488 73.6172
c11.5176 25.3945 54.9629 6.81543 44.9863 -18.9678c-3.25391 -8.41016 -6.49707 -16.834 -9.72949 -25.2686c22.1289 8.67773 44.583 16.5273 67.333 23.3535c42.7139 12.8164 86.3662 21.1514 130.725 12.8164c29.7754 -5.59473 22.7891 -56.6934 -7.16504 -52.9502
c-72.5039 9.0625 -149.371 -20.4814 -215.174 -50.2568c-6.9082 -20.7803 -13.167 -41.7646 -18.2305 -63.0771c-5.87305 -24.7158 -10.6689 -49.9746 -11.7861 -75.4082c-0.509766 -11.6074 -0.584961 -23.9209 3.49023 -34.9893
c3.51855 -9.56641 4.26074 -11.165 14.1377 -10.9365c22.7969 0.52832 46.5107 8.33496 68.79 12.667c23.8027 4.62402 48.2588 8.85254 72.5791 9.00977c40.5225 0.260742 81.6943 -10.54 113.19 -36.7939z" />
    <glyph glyph-name="six" unicode="6" horiz-adv-x="354" 
d="M80.9893 226.475c78.752 54.959 211.187 100.62 255.998 -5.68066c20.7383 -49.2002 4.39648 -101.708 -20.2949 -146.163c-25.0693 -45.1328 -62.4414 -87.2471 -114.118 -100.82c-49.333 -12.9561 -100.885 5.81543 -133.408 44.4795
c-34.207 40.666 -46.0566 93.417 -48.6543 145.394c-5.36328 107.343 31.9443 218.293 80.8662 312.587c22.8037 43.9521 50.2783 85.4102 82.2061 123.274c24.417 28.9551 72.3369 93.0703 115.979 66.5771c14.1943 -8.61719 9.00293 -33.3154 -8.79492 -32.4658
c-19.8311 0.945312 -40.6719 -29.4873 -52.5039 -42.9316c-14.29 -16.2422 -27.6064 -33.2266 -39.8662 -51.0527c-24.666 -35.8633 -45.5146 -74.3633 -62.7949 -114.298c-27.0498 -62.5127 -48.4766 -130.367 -54.6133 -198.899zM264.986 108.356
c15.3281 28.2197 31.5986 68.7031 10.0156 98.2256c-19.5215 26.7002 -61.7139 14.751 -87.6143 6.55469c-35.9346 -11.3682 -69.4424 -30.7109 -98.0088 -55.2344c-2.79004 -2.39453 -5.69824 -4.15332 -8.65234 -5.3916
c2.74023 -29.6973 9.82617 -59.5869 26.4717 -84.1924c17.5156 -25.8896 47.373 -43.7051 79.0469 -35.3125c37.3262 9.88672 61.2324 43.1162 78.7412 75.3506z" />
    <glyph glyph-name="seven" unicode="7" horiz-adv-x="591" 
d="M515.845 291.382c13.4482 1.76953 25.2363 -12.9111 25.1113 -25.125c-0.15332 -14.8145 -11.5537 -23.3779 -25.1162 -25.1152c-26.9893 -3.45703 -53.793 -8.17383 -80.3467 -14.0078c-2.39062 -10.6152 -4.76367 -21.2344 -7.06836 -31.8604
c-16.9053 -77.8486 -31.6455 -156.09 -47.3311 -234.185c-3.5498 -17.6768 -24.4941 -27.707 -40.8721 -23.208c-18.4541 5.07422 -26.3145 23.2217 -23.207 40.877c13.5557 77.0107 30.2334 153.582 47.3711 229.883c-27.749 -8.34961 -55.1416 -17.8975 -82.0732 -28.5879
c-12.3809 -4.91309 -27.2637 5.41699 -30.3818 17.249c-3.67871 13.9443 4.77441 25.3838 17.248 30.3828c35.4023 14.1865 71.415 26.1543 107.963 36.0664c12.4316 52.084 25.4414 104.089 34.6934 156.814c5.60547 31.9307 10.3369 64.5322 10.6045 97.0127
c0.192383 23.1426 -1.5918 49.9463 -15.7607 69.3213c-33.2793 45.4932 -114.125 13.4512 -155.433 -1.24219c-59.7549 -21.2549 -115.514 -53.2324 -167.797 -88.8203c-24.5195 -16.6885 -47.334 23.0283 -23.1562 39.6201c65.8604 45.1934 137.372 82.79 213.744 106.817
c61.2646 19.2715 136.979 30.7891 180.382 -28.4697c38.9854 -53.2256 29.1592 -129.701 20.7207 -190.701c-6.69336 -48.3867 -16.8838 -96.2314 -27.624 -143.937c22.6006 4.45312 45.3789 8.19629 68.3291 11.2148z" />
    <glyph glyph-name="eight" unicode="8" horiz-adv-x="370" 
d="M311.327 573.309c45.4971 -41.1797 35.2295 -109.596 27.3477 -163.577c-9.48438 -64.9141 -26.1582 -128.865 -44.252 -191.85c-5.3125 -18.4932 -22.0684 -23.8779 -36.3516 -19.999c2.67969 -2.24121 5.32324 -4.53516 7.9248 -6.88672
c42.2285 -38.168 75.0371 -97.1309 56.4082 -155.177c-17.7549 -55.3232 -78.5557 -86.6514 -134.082 -87.6572c-56.8574 -1.02734 -102.454 35.5098 -123.213 86.8154c-22.9678 56.7578 -10.54 122.828 8.20703 178.993c3.99316 11.96 8.41016 23.9912 13.334 35.8662
c-17.0303 15.168 -32.2695 32.1953 -44.2764 52.1982c-31.2705 52.0908 -25.6367 110.337 0.164062 163.377c22.8682 47.0098 61.9785 87.5078 107.953 112.349c50.0322 27.0322 115.232 36.8232 160.836 -4.45215zM270.898 80.4102
c-8.24609 55.2695 -66.9053 89.2695 -109.794 116.108c-12.2246 7.65039 -24.4668 15.4863 -36.3916 23.75c-7.67188 -23.4639 -13.0488 -47.3701 -16.7451 -69.4141c-8.74902 -52.1768 -2.27637 -132.541 61.8174 -146.128
c46.4248 -9.84082 109.073 22.333 101.113 75.6836zM283.687 455.489c2.13379 23.6211 5.85547 58.0566 -15.2998 74.8662c-21.9619 17.4482 -53.5361 10.8115 -76.8789 0.260742c-45.3438 -20.4912 -83.3623 -60.1504 -101.488 -106.55
c-9.87988 -25.291 -13.3906 -51.9844 -3.19336 -77.7139c6.25488 -15.792 16.374 -29.6543 27.9707 -42.0713c13.6592 20.9551 30.2041 39.7666 50.7139 54.5352c18.7109 13.4736 42.1318 -17.333 24.5586 -31.8262c-17.0518 -14.0615 -30.8564 -32.2842 -42.1211 -52.5508
c28.8555 -22.251 61.0645 -40.0557 90.623 -61.4746c-2.97949 5.73438 -4.00684 12.7812 -1.94434 20.8486c18.7109 73.1318 40.2334 146.182 47.0596 221.676z" />
    <glyph glyph-name="nine" unicode="9" horiz-adv-x="438" 
d="M347.407 567.524c18.0293 -28.9834 30.1689 -61.8164 39.8457 -94.4004c19.9746 -67.3018 28.8662 -138.971 25.416 -209.105c-3.23242 -65.7207 -15.2139 -132.676 -41.0898 -193.416c-22.5723 -52.9824 -66.8955 -118.999 -129.684 -125.496
c-74.8623 -7.75 -108.791 71.8613 -105.962 134.199c3.03613 66.9092 26.9492 129.126 69.752 180.524c21.7979 26.1719 65.2861 -8.30664 46.8037 -36.1133c-32.2949 -48.5908 -58.6523 -113.627 -49.4395 -173.235c2.50098 -16.1992 12.7061 -41.8936 33.2266 -39.9307
c20.3984 1.95215 41.1113 27.9922 52.0615 43.1172c31.4814 43.4805 45.7969 98.165 55.0596 150.26c10.6504 59.9082 11.5527 122.878 2.86816 183.107c-4.36035 30.2324 -11.2002 60.2119 -20.2422 89.3848c-4.27148 13.7764 -8.9668 27.5029 -15.0322 40.6055
c-0.125 0.271484 -0.292969 0.642578 -0.478516 1.05273c-0.50293 -2.1084 -0.981445 -4.22461 -1.50586 -6.32617c-4.10645 -16.4062 -8.93066 -32.6445 -14.5107 -48.6113c-11.5605 -33.0723 -25.9688 -65.4209 -44.002 -95.4893
c-30.4033 -50.6953 -76.4141 -109.151 -132.854 -131.955c-32.1348 -12.9844 -66.8379 -5.24121 -87.2871 23.4854c-19.5244 27.4277 -20.9658 63.5195 -15.7852 95.6328c10.208 63.252 49.7891 123.606 94.9395 167.736c43.0205 42.043 105.409 86.7871 168.597 72.625
c10.1406 8.91309 24.5918 11.8535 37.7441 6.35547c14.5039 -6.06543 23.5918 -21.2012 31.5596 -34.0068zM249.032 501.969c4.26758 14.4043 7.95996 28.9756 11.1074 43.6621c0.263672 1.23828 0.499023 2.51172 0.730469 3.78516
c-31.4814 3.30371 -62.2061 -16.8594 -85.9834 -35.6992c-26.6465 -21.1094 -50.0498 -46.7217 -68.4072 -75.3271c-18.5898 -28.9658 -35.2852 -62.374 -39.8916 -96.8633c-3.18262 -23.8311 0.459961 -70.4307 35.0381 -53.3037
c25.9795 12.8701 48.376 36.8975 66.9658 58.6455c18.9395 22.1543 34.6074 47.0771 47.9346 72.96c13.5303 26.2754 24.1133 53.8174 32.5059 82.1406z" />
    <glyph glyph-name="colon" unicode=":" horiz-adv-x="108" 
d="M40.8828 405.542c-5.27734 1.48047 -9.85352 4.1543 -13.7432 8.00781c-3.03613 2.81836 -5.18066 6.1582 -6.43652 10.0186c-1.94824 3.71094 -2.84375 7.71094 -2.68359 11.9961c0 8.43848 3.5293 15.9277 9.12012 22.0186
c3.88574 3.85742 8.4668 6.52637 13.7402 8.00684c5.51953 1.48438 11.0391 1.48438 16.5557 0l1.5 -0.322266c4.01074 -0.953125 7.50391 -2.79102 10.4766 -5.51367c3.35449 -2.17285 6.00195 -5.05273 7.93555 -8.64258
c1.03516 -2.45117 2.07031 -4.90234 3.10547 -7.35742l1.10156 -8.18848c0.160156 -4.24219 -0.724609 -8.19531 -2.65527 -11.8672c-0.731445 -2.6123 -2.05176 -4.87402 -3.96094 -6.79688c-2.17285 -3.35059 -5.05273 -5.99805 -8.64258 -7.93164
c-2.45117 -1.03516 -4.90234 -2.07031 -7.35742 -3.10547l-1.5 -0.322266c-5.51953 -1.48438 -11.0361 -1.48438 -16.5557 0zM88.3584 225.861c0.345703 -2.58691 0.698242 -5.17871 1.04785 -7.76562c0.15332 -4.02148 -0.685547 -7.77148 -2.51562 -11.2539
c-1.17773 -3.62207 -3.19336 -6.75488 -6.04102 -9.40234c-2.4834 -1.9873 -4.93457 -4.30273 -7.7998 -5.74414c-2.15137 -1.08105 -5.1875 -2.49414 -7.51074 -3.15039l-0.536133 -0.161133c-2.59766 -0.345703 -5.19141 -0.695312 -7.78906 -1.04492
c-1.69141 0.00683594 -3.20117 0.338867 -4.96387 0.574219c-1.37402 0.185547 -3.16895 0.274414 -4.64648 0.706055c-2.39453 0.699219 -7.63574 3.16797 -7.62109 3.15723c-2.00195 1.29199 -4.35645 3.21484 -6.14453 4.78516
c-3.51465 3.54004 -5.94824 7.71094 -7.29688 12.5176c-1.18066 3.76758 -1.34863 7.53906 -0.506836 11.3105c0.170898 3.77539 1.29492 7.29004 3.36816 10.5479c2.03027 3.43652 4.65625 6.27637 7.82129 8.58105c4.90234 4.22852 10.0908 6.82617 16.3496 9.24512
c3.37207 1.05664 6.74414 1.20996 10.1162 0.453125c3.375 -0.15332 6.51855 -1.15625 9.42969 -3.01172c3.66797 -2.3623 6.7334 -5.43066 9.09863 -9.09863c0.0966797 -0.149414 0.164062 -0.30957 0.25293 -0.458984
c0.207031 -0.299805 0.474609 -0.535156 0.660156 -0.852539c2.58008 -2.81836 4.3252 -6.12988 5.22754 -9.93359z" />
    <glyph glyph-name="semicolon" unicode=";" horiz-adv-x="126" 
d="M42.9111 402.973c-2.79785 3.05762 -4.68555 6.64062 -5.66699 10.7578c-0.37793 2.80078 -0.755859 5.60547 -1.13086 8.41016c0.170898 1.60938 0.30957 3.60742 0.55957 5.52344c0.160156 2.3125 0.374023 4.625 1.06641 6.88379
c1.68457 5.49805 4.29688 11.1074 8.53223 15.1289c8.18848 7.77832 18.8467 11.9463 30.1826 8.83887c-0.342773 0.0429688 -0.681641 0.0898438 -1.02051 0.136719c5.80566 -1.29492 10.6973 -4.19238 14.6113 -9.25879
c2.23047 -2.89062 3.64746 -5.90234 4.4502 -9.03906v0.117188c0.0175781 -0.0927734 0.0351562 -0.189453 0.0498047 -0.282227c-0.00683594 0.0107422 -0.0136719 0.0253906 -0.0175781 0.0400391c0.0146484 -0.0605469 0.0322266 -0.117188 0.046875 -0.177734
c0.25 -0.731445 0.474609 -1.47363 0.649414 -2.24121c2.75098 -4.85254 4.15332 -10.0723 4.1709 -15.6709c-0.0175781 -0.174805 -0.0390625 -0.345703 -0.0566406 -0.520508c-0.0175781 -5.63379 -1.43457 -10.8857 -4.26074 -15.7559
c-1.96289 -3.63965 -4.64258 -6.55859 -8.04297 -8.75977c-7.95312 -6.14453 -17.3945 -8.00391 -27.2139 -5.58789c-0.157227 0.0390625 -0.317383 0.078125 -0.474609 0.117188c-6.66895 1.6416 -12.3418 6.04102 -16.4346 11.3398zM94.499 440.307
c-0.0361328 0.0820312 -0.0683594 0.160156 -0.100586 0.238281c0.0322266 -0.0927734 0.0683594 -0.185547 0.100586 -0.27832v0.0400391zM57.9727 216.812c14.6396 30.2178 60.7119 3.63184 45.251 -26.4512c-14.8789 -28.9551 -26.7715 -59.0908 -40.5332 -88.5381
c-11.7002 -25.0342 -49.2012 -6.67676 -43.0029 18.1289c8.38867 33.5723 23.2461 65.8174 38.2852 96.8604z" />
    <glyph glyph-name="less" unicode="&#x3c;" horiz-adv-x="273" 
d="M244.062 382.307c-54.6494 -35.4277 -112.155 -68.7295 -155.115 -118.683c-3.89258 -4.52832 -12.8232 -13.3633 -12.8623 -20.1387c0.0214844 3.23242 3.66406 -2.95801 6.42969 -5.02051c11.8145 -8.81641 26.7686 -13.6152 40.9229 -16.9697
c30.6504 -7.26855 62.7031 -5.53418 93.96 -5.25977c38.6924 0.338867 38.2109 -57.9854 0 -59.7656c-42.8926 -1.99414 -88.8779 -2.07227 -129.665 13.1523c-38.7744 14.4727 -81.4023 44.6484 -66.7949 92.0859c12.3203 40.0127 57.7529 72.2646 90.1191 95.668
c34.5928 25.0088 72.0654 45.001 110.27 63.8262c25.9541 12.792 47.2061 -23.0283 22.7363 -38.8955z" />
    <glyph glyph-name="equal" unicode="=" horiz-adv-x="438" 
d="M45.9355 283.955c-26.7217 -0.87793 -32.7793 41.5908 -6.34277 46.8721c57.4287 11.4678 116.716 16.8486 175.079 21.041c58.4629 4.19922 117.715 8.72363 176.353 7.21777c37.4004 -0.963867 36.9404 -55.7344 0 -57.7607
c-57.5605 -3.1582 -115.253 -3.17969 -172.831 -6.58008c-57.3789 -3.38965 -114.818 -8.90918 -172.258 -10.79zM394.24 253.51c32.873 -4.65234 24.8057 -61.9287 -7.83203 -57.875c-116.085 14.4082 -228.455 -15.2393 -343.858 -19.667
c-26.8682 -1.03125 -33.0693 42.2529 -6.38672 47.1982c117.326 21.7402 238.603 47.2598 358.077 30.3438z" />
    <glyph glyph-name="greater" unicode="&#x3e;" horiz-adv-x="286" 
d="M266.206 291.755c7.5 -45.8145 -35.5488 -78.3857 -69.6562 -99.8301c-36.3516 -22.8535 -77.7627 -38.6455 -120.398 -43.8086c-34.6465 -4.19629 -40.6768 52.0439 -8.09961 59.8477c30.543 7.31836 59.7939 15.3105 87.4434 30.6387
c11.4678 6.35449 58.709 30.3896 52.2793 47.459c-3.32227 8.82715 -21.6484 15.1279 -29.1592 18.8633c-15.6816 7.7959 -31.6279 15.0674 -47.7627 21.8721c-32.5732 13.7412 -65.8955 25.8945 -99.4531 36.998c-26.8174 8.87012 -15.8174 47.3057 11.5752 41.9854
c46.6816 -9.06641 91.8398 -22.918 135.792 -41.0723c34.9248 -14.4258 80.4463 -30.2285 87.4395 -72.9531z" />
    <glyph glyph-name="question" unicode="?" horiz-adv-x="398" 
d="M369.002 629.579c19.3887 -41.5537 10.2559 -88.416 2.67676 -131.769c-30.0645 -171.958 -104.152 -332.965 -115.853 -508.594c-2.71875 -40.8223 -64.7822 -41.5928 -64.1152 0.000976562c1.3418 83.8467 20.834 166.284 43.6846 246.562
c20.5205 72.0967 44.4414 143.234 62.9922 215.888c8.83105 34.5859 17.833 70.0889 22.2539 105.56c3.56445 28.6201 0.945312 69.8994 -37.123 68.4326c-30.2969 -1.16699 -61.0039 -18.9473 -85.3066 -35.8135c-24.0596 -16.7021 -45.5361 -38.6064 -61.9277 -62.8623
c-30.6035 -45.29 -67.1514 -134.218 -6.49316 -171.836c25.2412 -15.6572 2.2666 -55.2734 -23.3271 -39.9092c-83.6543 50.2207 -60.9648 163.647 -17.7119 233.308c38.0684 61.3105 105.405 119.681 178.766 131.206c42.5215 6.67969 82.7344 -9.99023 101.484 -50.1738z
M239.114 -83.4971c4.08594 -4.11426 6.91504 -8.96875 8.48145 -14.5566l1.17773 -8.76562c0.170898 -4.53906 -0.774414 -8.77441 -2.84082 -12.7061c-1.33105 -4.08594 -3.60352 -7.62598 -6.81836 -10.6123c-2.99023 -3.21484 -6.52637 -5.4873 -10.6152 -6.81836
c-3.93164 -2.06641 -8.16699 -3.01172 -12.7061 -2.84082c-1.81641 0.203125 -3.60059 0.459961 -5.42773 0.706055c-4.37402 0.200195 -8.44531 1.49902 -12.2168 3.90039c-2.21582 1.71289 -4.43555 3.42578 -6.65137 5.13867
c-1.0957 1.0957 -4.51758 5.58105 -5.26367 6.88672c-1.0918 2.58008 -2.17969 5.16016 -3.26758 7.74023c-0.385742 2.86914 -0.771484 5.74121 -1.15723 8.61035c-0.167969 4.45996 0.763672 8.62012 2.79004 12.4805c0.446289 1.38477 1.01367 2.71582 1.69922 3.98633
c0.677734 1.27734 1.55566 2.42676 2.63281 3.44336c1.45898 2.46875 3.4248 4.43457 5.89355 5.89355c2.04785 2.03418 4.4668 3.44336 7.25 4.22461c3.91406 2.05566 8.13477 3.00098 12.6592 2.83008l1.06055 0.117188
c5.95117 -0.0175781 11.5029 -1.51953 16.6445 -4.50293c2.22656 -1.71973 4.44922 -3.43555 6.67578 -5.15527z" />
    <glyph glyph-name="at" unicode="@" horiz-adv-x="562" 
d="M470.59 585.367c102.197 -97.0771 83.7695 -252.914 20.2178 -365.741c-27.0283 -47.9873 -88.2354 -126.554 -152.411 -93.2344c-29.0479 15.082 -38.7246 51.4443 -42.4209 81.3525c-2.20898 17.876 -2.07715 35.7598 -1.23828 53.7109
c-6.41504 -8.12793 -12.7803 -16.292 -19.335 -24.3057c-17.3623 -21.2305 -36.252 -41.1475 -59.1025 -56.5791c-24.5732 -16.5957 -59.876 -21.7803 -79.2041 5.33008c-15.6357 21.9258 -9.75879 50.5205 -2.6123 74.4873c15.3281 51.4053 50.2812 111.182 99.4316 136.9
c24.2666 12.6953 54.2422 13.2773 74.6982 -6.84668c11.5146 -11.3252 17.4482 -25.9756 20.8447 -41.3506c30.165 -10.1016 22.1514 -58.5098 20.9131 -84.9814c-0.856445 -18.2471 -1.44531 -36.9404 1.99414 -54.9668
c1.55957 -8.16699 4.82812 -30.3359 15.1113 -32.1953c12.5742 -2.26953 27.9668 14.5146 35.6172 22.293c11.2578 11.4502 20.6953 24.0566 29.1338 37.6973c18.8643 30.5039 33.3008 63.7051 42.4814 98.3799c16.9629 64.0898 12.624 135.031 -29.2158 188.928
c-39.9766 51.498 -102.396 67.0547 -163.34 46.3271c-64.7715 -22.0332 -109.861 -79.3193 -141.778 -137.162c-34.3184 -62.1924 -57.2363 -132.288 -59.8662 -203.604c-2.44434 -66.2383 10.7217 -143.752 60.2646 -191.89
c49.8105 -48.4014 124.548 -54.8311 184.11 -21.0127c33.0723 18.7754 62.3018 -31.46 29.7432 -50.8848c-66.3203 -39.5703 -150.738 -40.2305 -217.065 -0.161133c-65.0322 39.2852 -99.8037 110.19 -111.386 183.329c-21.1553 133.604 24.1094 276.293 107.268 381.577
c40.2803 50.999 96.0957 92.7354 161.028 104.952c64.5078 12.1348 128.277 -4.90625 176.118 -50.3496zM268.081 315.744c5.13477 6.27637 10.5967 13.5205 16.8125 19.8076c-2.08008 8.07422 -5.36621 15.6846 -11.1963 18.4355
c-13.5947 6.41211 -33.333 -17.5225 -41.0576 -25.8535c-24.8125 -26.7646 -42.0322 -60.2803 -49.9033 -95.8828c-0.738281 -3.33301 -1.07715 -6.31934 -1.25879 -9.35254c0.0751953 0.0146484 0.125 0.0322266 0.203125 0.046875
c1.62305 1.00293 3.25 2.00195 4.87695 3.00488c2.71875 1.74121 5.34473 3.70703 7.88477 5.71191c14.5146 11.4541 26.9355 25.7012 38.6357 39.9238c11.9355 14.5039 23.1104 29.6182 35.0029 44.1582z" />
    <glyph glyph-name="A" unicode="A" horiz-adv-x="589" 
d="M183.343 79.6689c-1.50586 -0.0107422 -3.00098 0.0654297 -4.50684 0.0830078c-1.13477 -57.5928 0.78125 -115.149 1.48438 -173.263c0.345703 -28.5127 -44.0918 -35.1562 -50.1572 -6.78613c-13.2236 61.8281 -16.8271 126.475 -14.415 191.015
c-34.4434 12.0889 -64.8184 34.001 -86.4121 65.3574c-27.5352 39.9805 -37.2686 92.2031 -25.3115 139.284c13.2734 52.2695 50.8809 95.3545 94.8545 124.87c26.333 17.6729 55.0566 30.0439 84.8936 37.5654c12.0605 32.2021 26.3291 63.4053 43.5488 92.7852
c23.3105 39.7773 54.7314 85.6172 98.1055 105.238c50.3174 22.7715 100.995 2.8291 127.663 -44.4551c25.1162 -44.5332 32.0312 -96.4346 37.1016 -146.491c3.42188 -33.7725 5.0957 -67.7119 5.60938 -101.67c48.3125 -50.6885 80.3682 -116.031 87.7969 -186.798
c5.58008 -53.1543 -4.55371 -107.261 -27.8359 -155.241c-22.0078 -45.3574 -59.6973 -88.3213 -112.483 -92.9131c-2.64746 -0.228516 -4.99902 0.00683594 -7.09375 0.581055c-13.8584 2.12305 -25.9795 12.4424 -25.8721 31.2139
c0.631836 112.456 17.373 224.559 21.1553 336.965c0.517578 15.4033 0.810547 30.8105 0.885742 46.2178c-55.7158 46.5098 -128.655 72.2861 -199.34 65.7637c-22.9355 -68.2832 -37.2793 -140.602 -46.2139 -211.14
c-2.69043 -21.2441 -4.53516 -42.4248 -5.81934 -63.5801c53.3857 1.5625 109.604 30.8818 151.958 57.7246c30.1152 19.0889 54.8496 -26.6396 27.3789 -46.8389c-50.7529 -37.3184 -113.138 -65.0068 -176.975 -65.4883zM518.48 76.8018
c12.8955 44.5518 13.46 91.8105 0.618164 136.434c-5.7627 20.0166 -14.0625 39.0312 -24.4346 56.8008c-2.89746 -90.8477 -9.44531 -181.909 -16.0283 -272.604c19.3857 22.9824 32.4092 53.6748 39.8447 79.3691zM398.693 579.571
c-45.6074 80.2861 -125.002 -70.6465 -143.73 -112.9c57.4854 0.295898 115.424 -15.2793 165.592 -44.249c3.42188 -1.97363 6.78613 -4.0293 10.1299 -6.12012c-0.552734 10.3799 -1.21289 20.7598 -2.06934 31.1289c-3.63574 43.9658 -7.68555 92.999 -29.9219 132.141z
M93.042 166.551c8.35645 -7.86426 17.1768 -14.0498 26.3184 -18.8633c3.54297 40.2441 9.02734 80.1104 15.5996 118.878c6.96875 41.0869 15.5996 82.8516 27 123.867c-15.6787 -7.0332 -30.8721 -16.0283 -45.3154 -27.2002
c-30.6748 -23.7246 -57.3818 -58.8672 -61.1494 -98.5371c-3.4502 -36.3379 11.0645 -73.2324 37.5469 -98.1445z" />
    <glyph glyph-name="A" unicode="&#xc5;" horiz-adv-x="589" 
d="M183.343 79.6689c-1.50586 -0.0107422 -3.00098 0.0654297 -4.50684 0.0830078c-1.13477 -57.5928 0.78125 -115.149 1.48438 -173.263c0.345703 -28.5127 -44.0918 -35.1562 -50.1572 -6.78613c-13.2236 61.8281 -16.8271 126.475 -14.415 191.015
c-34.4434 12.0889 -64.8184 34.001 -86.4121 65.3574c-27.5352 39.9805 -37.2686 92.2031 -25.3115 139.284c13.2734 52.2695 50.8809 95.3545 94.8545 124.87c26.333 17.6729 55.0566 30.0439 84.8936 37.5654c12.0605 32.2021 26.3291 63.4053 43.5488 92.7852
c23.3105 39.7773 54.7314 85.6172 98.1055 105.238c50.3174 22.7715 100.995 2.8291 127.663 -44.4551c25.1162 -44.5332 32.0312 -96.4346 37.1016 -146.491c3.42188 -33.7725 5.0957 -67.7119 5.60938 -101.67c48.3125 -50.6885 80.3682 -116.031 87.7969 -186.798
c5.58008 -53.1543 -4.55371 -107.261 -27.8359 -155.241c-22.0078 -45.3574 -59.6973 -88.3213 -112.483 -92.9131c-2.64746 -0.228516 -4.99902 0.00683594 -7.09375 0.581055c-13.8584 2.12305 -25.9795 12.4424 -25.8721 31.2139
c0.631836 112.456 17.373 224.559 21.1553 336.965c0.517578 15.4033 0.810547 30.8105 0.885742 46.2178c-55.7158 46.5098 -128.655 72.2861 -199.34 65.7637c-22.9355 -68.2832 -37.2793 -140.602 -46.2139 -211.14
c-2.69043 -21.2441 -4.53516 -42.4248 -5.81934 -63.5801c53.3857 1.5625 109.604 30.8818 151.958 57.7246c30.1152 19.0889 54.8496 -26.6396 27.3789 -46.8389c-50.7529 -37.3184 -113.138 -65.0068 -176.975 -65.4883zM518.48 76.8018
c12.8955 44.5518 13.46 91.8105 0.618164 136.434c-5.7627 20.0166 -14.0625 39.0312 -24.4346 56.8008c-2.89746 -90.8477 -9.44531 -181.909 -16.0283 -272.604c19.3857 22.9824 32.4092 53.6748 39.8447 79.3691zM398.693 579.571
c-45.6074 80.2861 -125.002 -70.6465 -143.73 -112.9c57.4854 0.295898 115.424 -15.2793 165.592 -44.249c3.42188 -1.97363 6.78613 -4.0293 10.1299 -6.12012c-0.552734 10.3799 -1.21289 20.7598 -2.06934 31.1289c-3.63574 43.9658 -7.68555 92.999 -29.9219 132.141z
M93.042 166.551c8.35645 -7.86426 17.1768 -14.0498 26.3184 -18.8633c3.54297 40.2441 9.02734 80.1104 15.5996 118.878c6.96875 41.0869 15.5996 82.8516 27 123.867c-15.6787 -7.0332 -30.8721 -16.0283 -45.3154 -27.2002
c-30.6748 -23.7246 -57.3818 -58.8672 -61.1494 -98.5371c-3.4502 -36.3379 11.0645 -73.2324 37.5469 -98.1445z" />
    <glyph glyph-name="A" unicode="&#xc4;" horiz-adv-x="589" 
d="M183.343 79.6689c-1.50586 -0.0107422 -3.00098 0.0654297 -4.50684 0.0830078c-1.13477 -57.5928 0.78125 -115.149 1.48438 -173.263c0.345703 -28.5127 -44.0918 -35.1562 -50.1572 -6.78613c-13.2236 61.8281 -16.8271 126.475 -14.415 191.015
c-34.4434 12.0889 -64.8184 34.001 -86.4121 65.3574c-27.5352 39.9805 -37.2686 92.2031 -25.3115 139.284c13.2734 52.2695 50.8809 95.3545 94.8545 124.87c26.333 17.6729 55.0566 30.0439 84.8936 37.5654c12.0605 32.2021 26.3291 63.4053 43.5488 92.7852
c23.3105 39.7773 54.7314 85.6172 98.1055 105.238c50.3174 22.7715 100.995 2.8291 127.663 -44.4551c25.1162 -44.5332 32.0312 -96.4346 37.1016 -146.491c3.42188 -33.7725 5.0957 -67.7119 5.60938 -101.67c48.3125 -50.6885 80.3682 -116.031 87.7969 -186.798
c5.58008 -53.1543 -4.55371 -107.261 -27.8359 -155.241c-22.0078 -45.3574 -59.6973 -88.3213 -112.483 -92.9131c-2.64746 -0.228516 -4.99902 0.00683594 -7.09375 0.581055c-13.8584 2.12305 -25.9795 12.4424 -25.8721 31.2139
c0.631836 112.456 17.373 224.559 21.1553 336.965c0.517578 15.4033 0.810547 30.8105 0.885742 46.2178c-55.7158 46.5098 -128.655 72.2861 -199.34 65.7637c-22.9355 -68.2832 -37.2793 -140.602 -46.2139 -211.14
c-2.69043 -21.2441 -4.53516 -42.4248 -5.81934 -63.5801c53.3857 1.5625 109.604 30.8818 151.958 57.7246c30.1152 19.0889 54.8496 -26.6396 27.3789 -46.8389c-50.7529 -37.3184 -113.138 -65.0068 -176.975 -65.4883zM518.48 76.8018
c12.8955 44.5518 13.46 91.8105 0.618164 136.434c-5.7627 20.0166 -14.0625 39.0312 -24.4346 56.8008c-2.89746 -90.8477 -9.44531 -181.909 -16.0283 -272.604c19.3857 22.9824 32.4092 53.6748 39.8447 79.3691zM398.693 579.571
c-45.6074 80.2861 -125.002 -70.6465 -143.73 -112.9c57.4854 0.295898 115.424 -15.2793 165.592 -44.249c3.42188 -1.97363 6.78613 -4.0293 10.1299 -6.12012c-0.552734 10.3799 -1.21289 20.7598 -2.06934 31.1289c-3.63574 43.9658 -7.68555 92.999 -29.9219 132.141z
M93.042 166.551c8.35645 -7.86426 17.1768 -14.0498 26.3184 -18.8633c3.54297 40.2441 9.02734 80.1104 15.5996 118.878c6.96875 41.0869 15.5996 82.8516 27 123.867c-15.6787 -7.0332 -30.8721 -16.0283 -45.3154 -27.2002
c-30.6748 -23.7246 -57.3818 -58.8672 -61.1494 -98.5371c-3.4502 -36.3379 11.0645 -73.2324 37.5469 -98.1445z" />
    <glyph glyph-name="A" unicode="&#xc3;" horiz-adv-x="589" 
d="M183.343 79.6689c-1.50586 -0.0107422 -3.00098 0.0654297 -4.50684 0.0830078c-1.13477 -57.5928 0.78125 -115.149 1.48438 -173.263c0.345703 -28.5127 -44.0918 -35.1562 -50.1572 -6.78613c-13.2236 61.8281 -16.8271 126.475 -14.415 191.015
c-34.4434 12.0889 -64.8184 34.001 -86.4121 65.3574c-27.5352 39.9805 -37.2686 92.2031 -25.3115 139.284c13.2734 52.2695 50.8809 95.3545 94.8545 124.87c26.333 17.6729 55.0566 30.0439 84.8936 37.5654c12.0605 32.2021 26.3291 63.4053 43.5488 92.7852
c23.3105 39.7773 54.7314 85.6172 98.1055 105.238c50.3174 22.7715 100.995 2.8291 127.663 -44.4551c25.1162 -44.5332 32.0312 -96.4346 37.1016 -146.491c3.42188 -33.7725 5.0957 -67.7119 5.60938 -101.67c48.3125 -50.6885 80.3682 -116.031 87.7969 -186.798
c5.58008 -53.1543 -4.55371 -107.261 -27.8359 -155.241c-22.0078 -45.3574 -59.6973 -88.3213 -112.483 -92.9131c-2.64746 -0.228516 -4.99902 0.00683594 -7.09375 0.581055c-13.8584 2.12305 -25.9795 12.4424 -25.8721 31.2139
c0.631836 112.456 17.373 224.559 21.1553 336.965c0.517578 15.4033 0.810547 30.8105 0.885742 46.2178c-55.7158 46.5098 -128.655 72.2861 -199.34 65.7637c-22.9355 -68.2832 -37.2793 -140.602 -46.2139 -211.14
c-2.69043 -21.2441 -4.53516 -42.4248 -5.81934 -63.5801c53.3857 1.5625 109.604 30.8818 151.958 57.7246c30.1152 19.0889 54.8496 -26.6396 27.3789 -46.8389c-50.7529 -37.3184 -113.138 -65.0068 -176.975 -65.4883zM518.48 76.8018
c12.8955 44.5518 13.46 91.8105 0.618164 136.434c-5.7627 20.0166 -14.0625 39.0312 -24.4346 56.8008c-2.89746 -90.8477 -9.44531 -181.909 -16.0283 -272.604c19.3857 22.9824 32.4092 53.6748 39.8447 79.3691zM398.693 579.571
c-45.6074 80.2861 -125.002 -70.6465 -143.73 -112.9c57.4854 0.295898 115.424 -15.2793 165.592 -44.249c3.42188 -1.97363 6.78613 -4.0293 10.1299 -6.12012c-0.552734 10.3799 -1.21289 20.7598 -2.06934 31.1289c-3.63574 43.9658 -7.68555 92.999 -29.9219 132.141z
M93.042 166.551c8.35645 -7.86426 17.1768 -14.0498 26.3184 -18.8633c3.54297 40.2441 9.02734 80.1104 15.5996 118.878c6.96875 41.0869 15.5996 82.8516 27 123.867c-15.6787 -7.0332 -30.8721 -16.0283 -45.3154 -27.2002
c-30.6748 -23.7246 -57.3818 -58.8672 -61.1494 -98.5371c-3.4502 -36.3379 11.0645 -73.2324 37.5469 -98.1445z" />
    <glyph glyph-name="A" unicode="&#xc2;" horiz-adv-x="589" 
d="M183.343 79.6689c-1.50586 -0.0107422 -3.00098 0.0654297 -4.50684 0.0830078c-1.13477 -57.5928 0.78125 -115.149 1.48438 -173.263c0.345703 -28.5127 -44.0918 -35.1562 -50.1572 -6.78613c-13.2236 61.8281 -16.8271 126.475 -14.415 191.015
c-34.4434 12.0889 -64.8184 34.001 -86.4121 65.3574c-27.5352 39.9805 -37.2686 92.2031 -25.3115 139.284c13.2734 52.2695 50.8809 95.3545 94.8545 124.87c26.333 17.6729 55.0566 30.0439 84.8936 37.5654c12.0605 32.2021 26.3291 63.4053 43.5488 92.7852
c23.3105 39.7773 54.7314 85.6172 98.1055 105.238c50.3174 22.7715 100.995 2.8291 127.663 -44.4551c25.1162 -44.5332 32.0312 -96.4346 37.1016 -146.491c3.42188 -33.7725 5.0957 -67.7119 5.60938 -101.67c48.3125 -50.6885 80.3682 -116.031 87.7969 -186.798
c5.58008 -53.1543 -4.55371 -107.261 -27.8359 -155.241c-22.0078 -45.3574 -59.6973 -88.3213 -112.483 -92.9131c-2.64746 -0.228516 -4.99902 0.00683594 -7.09375 0.581055c-13.8584 2.12305 -25.9795 12.4424 -25.8721 31.2139
c0.631836 112.456 17.373 224.559 21.1553 336.965c0.517578 15.4033 0.810547 30.8105 0.885742 46.2178c-55.7158 46.5098 -128.655 72.2861 -199.34 65.7637c-22.9355 -68.2832 -37.2793 -140.602 -46.2139 -211.14
c-2.69043 -21.2441 -4.53516 -42.4248 -5.81934 -63.5801c53.3857 1.5625 109.604 30.8818 151.958 57.7246c30.1152 19.0889 54.8496 -26.6396 27.3789 -46.8389c-50.7529 -37.3184 -113.138 -65.0068 -176.975 -65.4883zM518.48 76.8018
c12.8955 44.5518 13.46 91.8105 0.618164 136.434c-5.7627 20.0166 -14.0625 39.0312 -24.4346 56.8008c-2.89746 -90.8477 -9.44531 -181.909 -16.0283 -272.604c19.3857 22.9824 32.4092 53.6748 39.8447 79.3691zM398.693 579.571
c-45.6074 80.2861 -125.002 -70.6465 -143.73 -112.9c57.4854 0.295898 115.424 -15.2793 165.592 -44.249c3.42188 -1.97363 6.78613 -4.0293 10.1299 -6.12012c-0.552734 10.3799 -1.21289 20.7598 -2.06934 31.1289c-3.63574 43.9658 -7.68555 92.999 -29.9219 132.141z
M93.042 166.551c8.35645 -7.86426 17.1768 -14.0498 26.3184 -18.8633c3.54297 40.2441 9.02734 80.1104 15.5996 118.878c6.96875 41.0869 15.5996 82.8516 27 123.867c-15.6787 -7.0332 -30.8721 -16.0283 -45.3154 -27.2002
c-30.6748 -23.7246 -57.3818 -58.8672 -61.1494 -98.5371c-3.4502 -36.3379 11.0645 -73.2324 37.5469 -98.1445z" />
    <glyph glyph-name="A" unicode="&#xc1;" horiz-adv-x="589" 
d="M183.343 79.6689c-1.50586 -0.0107422 -3.00098 0.0654297 -4.50684 0.0830078c-1.13477 -57.5928 0.78125 -115.149 1.48438 -173.263c0.345703 -28.5127 -44.0918 -35.1562 -50.1572 -6.78613c-13.2236 61.8281 -16.8271 126.475 -14.415 191.015
c-34.4434 12.0889 -64.8184 34.001 -86.4121 65.3574c-27.5352 39.9805 -37.2686 92.2031 -25.3115 139.284c13.2734 52.2695 50.8809 95.3545 94.8545 124.87c26.333 17.6729 55.0566 30.0439 84.8936 37.5654c12.0605 32.2021 26.3291 63.4053 43.5488 92.7852
c23.3105 39.7773 54.7314 85.6172 98.1055 105.238c50.3174 22.7715 100.995 2.8291 127.663 -44.4551c25.1162 -44.5332 32.0312 -96.4346 37.1016 -146.491c3.42188 -33.7725 5.0957 -67.7119 5.60938 -101.67c48.3125 -50.6885 80.3682 -116.031 87.7969 -186.798
c5.58008 -53.1543 -4.55371 -107.261 -27.8359 -155.241c-22.0078 -45.3574 -59.6973 -88.3213 -112.483 -92.9131c-2.64746 -0.228516 -4.99902 0.00683594 -7.09375 0.581055c-13.8584 2.12305 -25.9795 12.4424 -25.8721 31.2139
c0.631836 112.456 17.373 224.559 21.1553 336.965c0.517578 15.4033 0.810547 30.8105 0.885742 46.2178c-55.7158 46.5098 -128.655 72.2861 -199.34 65.7637c-22.9355 -68.2832 -37.2793 -140.602 -46.2139 -211.14
c-2.69043 -21.2441 -4.53516 -42.4248 -5.81934 -63.5801c53.3857 1.5625 109.604 30.8818 151.958 57.7246c30.1152 19.0889 54.8496 -26.6396 27.3789 -46.8389c-50.7529 -37.3184 -113.138 -65.0068 -176.975 -65.4883zM518.48 76.8018
c12.8955 44.5518 13.46 91.8105 0.618164 136.434c-5.7627 20.0166 -14.0625 39.0312 -24.4346 56.8008c-2.89746 -90.8477 -9.44531 -181.909 -16.0283 -272.604c19.3857 22.9824 32.4092 53.6748 39.8447 79.3691zM398.693 579.571
c-45.6074 80.2861 -125.002 -70.6465 -143.73 -112.9c57.4854 0.295898 115.424 -15.2793 165.592 -44.249c3.42188 -1.97363 6.78613 -4.0293 10.1299 -6.12012c-0.552734 10.3799 -1.21289 20.7598 -2.06934 31.1289c-3.63574 43.9658 -7.68555 92.999 -29.9219 132.141z
M93.042 166.551c8.35645 -7.86426 17.1768 -14.0498 26.3184 -18.8633c3.54297 40.2441 9.02734 80.1104 15.5996 118.878c6.96875 41.0869 15.5996 82.8516 27 123.867c-15.6787 -7.0332 -30.8721 -16.0283 -45.3154 -27.2002
c-30.6748 -23.7246 -57.3818 -58.8672 -61.1494 -98.5371c-3.4502 -36.3379 11.0645 -73.2324 37.5469 -98.1445z" />
    <glyph glyph-name="B" unicode="B" horiz-adv-x="530" 
d="M193.523 -148.739c-54.7773 -4.91309 -125.453 3.0332 -164.135 46.7812c-71.7969 81.2139 -19.8242 193.694 52.127 261.225c-4.06445 41.8428 -5.91992 83.7363 -6.3877 124.605c-1.2666 111.039 9.88379 224.002 37.6475 331.655
c10.1123 39.21 68.4189 22.4395 60.2119 -16.5996c-21.291 -101.28 -34.5254 -203.114 -34.4287 -306.671c13.291 49.4863 30.5996 97.8623 50.9023 145.032c30.0898 69.8994 68.3223 146.007 128.888 194.615c27.1963 21.8262 71.8438 45.1113 101.263 13.3516
c24.6523 -26.6113 11.7148 -70.6025 -0.0527344 -100.121c-17.3301 -43.4668 -45.7861 -80.0469 -77.9736 -113.315c40.8867 -3.52539 79.875 -17.0166 112.73 -46.0684c47.1807 -41.7178 70.6768 -105.744 70.8662 -167.762
c0.364258 -118.293 -70.5801 -236.079 -164.561 -304.522c-48.7686 -35.5166 -107.104 -56.8252 -167.098 -62.2061zM71.5957 -63.665c13.498 -14.9395 33.8252 -21.1201 52.9141 -25.041c91.0869 -18.7148 185.51 22.3613 247.973 87.7646
c60.6719 63.5264 108.827 161.521 93.085 251.208c-6.76172 38.5283 -26.2188 76.4717 -57.9248 100.303c-37.7822 28.3984 -88.1172 29.6328 -132.979 22.2471c-25.2051 -4.14941 -50.8174 26.7178 -27.543 47.3164c45.9395 40.6582 97.124 84.624 120.685 142.952
c4.83789 11.9854 10.1797 26.5107 10.6865 39.5303c0.0146484 0.356445 -0.0175781 0.824219 -0.0634766 1.33398c-3.63965 -1.33789 -8.54199 -2.7334 -10.2578 -3.72168c-25.751 -14.8145 -46.1357 -39.8271 -63.1914 -63.6943
c-36.6123 -51.2383 -63.3623 -109.709 -85.499 -168.439c-18.4404 -48.9219 -33.4697 -99.1396 -44.0059 -150.335c38.5605 14.1582 81.0527 18.9072 118.735 2.49707c52.5439 -22.8818 73.8066 -78.4404 75.6797 -132.4
c0.50293 -14.5254 -12.6631 -26.7891 -26.7891 -26.7891c-15.7607 0 -24.999 12.4346 -26.79 26.7891c-5.3877 43.1738 -25.4512 85.8877 -74.373 85.6162c-26.6826 -0.146484 -53.418 -9.25195 -77.5488 -22.9287c-2.93262 -24.374 -4.7168 -48.9043 -5.31934 -73.4209
c-0.239258 -9.75195 -0.338867 -19.5283 -0.385742 -29.3018c4.66309 -25.0557 10.2861 -49.8223 17.0762 -74.1104c9.60156 -34.3535 -41.2725 -47.4199 -52.7939 -14.5537c-14.3047 40.8154 -24.5664 83.665 -31.874 127.26
c-19.418 -25.2725 -34.2188 -55.002 -37.5332 -86.1191c-2.39746 -22.5186 2.54395 -46.8174 18.0371 -63.9619z" />
    <glyph glyph-name="C" unicode="C" horiz-adv-x="492" 
d="M313.684 -47.4805c-44.8047 -23.0537 -99.7246 -30.877 -147.533 -12.2871c-47.5596 18.4932 -82.2598 60.1475 -106.973 103.485c-55.1768 96.7637 -60.7783 212.495 -36.4688 319.317c20.9629 92.1143 64.1689 202.583 155.049 246.41
c49.5576 23.8994 104.938 19.5537 144.148 -21.3438c37.8574 -39.4883 46.3281 -93.1348 52.7295 -145.243c4.08887 -33.29 -53.5645 -40.6689 -58.3711 -7.89941c-6.05469 41.2939 -11.0928 95.0479 -48.9824 120.738c-37.7148 25.5723 -82.9473 -8.5498 -108.388 -36.3164
c-53.5361 -58.4277 -78.9873 -149.375 -87.2334 -226.321c-9.28418 -86.6299 5.95508 -178.212 58.9053 -249.356c22.3047 -29.9688 52.1016 -54.0645 90.8193 -55.7666c39.4131 -1.73438 76.8604 14.7539 106.732 39.7129c66.502 55.5693 107.061 139.969 122.807 223.93
c5.35547 28.5449 47.5693 16.0498 43.1162 -11.8848c-9.38086 -58.8447 -30.2109 -116.07 -61.2539 -166.987c-29.2725 -48.0088 -68.3828 -94.0869 -119.104 -120.188z" />
    <glyph glyph-name="D" unicode="D" horiz-adv-x="665" 
d="M224.49 -167.629c-45.1826 -7.71387 -94.957 -7.48926 -135.323 17.166c-35.2812 21.5547 -58.6348 58.6455 -66.1562 99.0186c-16.5957 89.0635 37.0361 173.37 103.931 227.487c26.8604 21.7295 58.6094 41.6611 92.6172 56.5293
c1.4668 75.0117 7.51465 150.213 16.5488 224.443c0.788086 6.45801 2.79004 12.5635 5.95898 17.7197c-19.7314 -10.8545 -38.7676 -23.0752 -57.0146 -36.3984c-28.998 -21.1729 -55.8945 -45.4463 -80.9072 -71.1689
c-23.4707 -24.1348 -58.042 -54.5312 -58.9199 -90.5977c-0.674805 -27.8281 -42.6572 -27.8105 -43.207 -0.000976562c-1.02441 52.0947 39.0273 92.957 72.832 127.949c33.0303 34.1934 69.6143 65.168 109.338 91.3398c77.3926 50.9922 173.646 86.4414 267.494 76.3975
c41.6182 -4.45312 82.002 -16.5137 115.87 -41.8223c35.0244 -26.168 59.4307 -62.4268 74.6025 -103.149c33.251 -89.2451 8.47754 -188.274 -29.876 -271.568c-34.6104 -75.1582 -86.4658 -143.584 -148.419 -198.333
c-67.0693 -59.2695 -150.07 -109.762 -239.369 -125.012zM101.188 71.5342c-32.4844 -51.9014 -40.6797 -138.489 24.9697 -169.889c62.9268 -30.0967 146.741 5.50195 202.304 36.6055c122.075 68.3359 221.922 186.447 259.69 322.242
c18.8896 67.9229 17.8438 147.199 -27.625 204.978c-44.2266 56.2012 -120.388 67.3047 -187.211 56.1006c-35.5557 -5.96191 -69.6377 -17.0801 -102.021 -32.0479c15.9102 -1.41699 31.2354 -15.7861 30.0938 -32.5029
c-4.63477 -67.7549 -11.2139 -135.234 -14.5576 -203.021c25.9219 5.08496 52.1543 6.42969 77.7051 2.74414c39.5127 -5.69824 74.1592 -28.2129 87.5713 -67.0977c16.0566 -46.5605 -2.92578 -93.0566 -22.2217 -135.235
c-12.9805 -28.374 -53.4502 -3.63965 -41.4971 24.2559c13.9443 32.5371 37.1338 86.1982 3.54688 115.015c-25.9326 22.251 -68.1465 16.1562 -98.5752 9.15527c-2.79004 -0.645508 -5.56934 -1.40527 -8.35254 -2.12598
c-0.65625 -37.3008 0.139648 -74.5342 1.91309 -111.813c0.970703 -20.4414 2.39453 -40.9189 4.37109 -61.2891c0.774414 -7.98145 1.87695 -15.8916 3.37891 -23.7695c0.923828 -4.84863 3.33984 -10.7432 3.56152 -15.5312
c0.0429688 -0.142578 0.0820312 -0.285156 0.125 -0.427734c15.8428 -7.99219 21.6445 -33.2578 2.38379 -43.4912c-79.4688 -42.2285 -80.5566 183.972 -81.2734 221.565c-0.0644531 3.36816 -0.0390625 6.74316 -0.0820312 10.1152
c-47.7666 -23.9736 -90.0703 -59.5938 -118.197 -104.534z" />
    <glyph glyph-name="E" unicode="E" horiz-adv-x="486" 
d="M478.611 166.898c8.66309 -14.8076 2.22949 -30.9814 -10.5977 -40.4258c-41.1904 -30.3398 -86.5342 -53.6611 -134.743 -70.749c-46.3887 -16.4414 -97.4053 -27.7197 -146.335 -16.4619c-84.7676 19.5068 -123.132 108.916 -122.176 188.699
c0.103516 8.78125 0.617188 17.5801 1.34863 26.3828c-12.3848 -6.75488 -24.0557 -14.4902 -33.6787 -24.2451c-21.5479 -21.8477 -54.8633 11.5859 -33.626 33.626c21.1406 21.9365 49.0928 35.3848 76.2783 48.6191c13.2949 59.0518 38.3145 116.48 68.6572 166.947
c41.9287 69.7354 102.676 145.778 178.973 179.183c38.5605 16.8809 86.4229 22.5293 119.186 -9.49805c31.6523 -30.9424 34.7998 -75.7471 18.001 -114.854c-8.79492 -20.4697 -40.6328 -5.45508 -35.0527 14.7793c9.74414 35.3281 -11.6182 72.0156 -51.1885 65.4785
c-36.7617 -6.07324 -68.6641 -33.7764 -94.458 -58.835c-47.334 -45.9854 -85.2627 -100.717 -112.755 -160.672c-7.06445 -15.4102 -13.8047 -31.752 -19.7637 -48.6436c10.6367 4.74219 21.3164 9.40234 32.0889 13.8516c65.6426 27.1143 132.202 43.877 202.769 51.4346
c34.8174 3.72852 35.9805 -53.9395 0 -55.249c-62.627 -2.27637 -124.979 -20.7236 -183.247 -42.7812c-23.2246 -8.79199 -46.0713 -18.5293 -68.6289 -28.9014c-5.80566 -30.1865 -7.63965 -60.7402 -3.09766 -89.8525c4.33203 -27.749 15.1465 -55.8516 35.4883 -75.7686
c22.2686 -21.8047 53.083 -26.293 83.0303 -23.3633c68.9531 6.74414 137.104 43.085 193.102 81.8984c13.1768 9.13477 32.8408 2.37012 40.4268 -10.5996z" />
    <glyph glyph-name="E" unicode="&#xcb;" horiz-adv-x="486" 
d="M478.611 166.898c8.66309 -14.8076 2.22949 -30.9814 -10.5977 -40.4258c-41.1904 -30.3398 -86.5342 -53.6611 -134.743 -70.749c-46.3887 -16.4414 -97.4053 -27.7197 -146.335 -16.4619c-84.7676 19.5068 -123.132 108.916 -122.176 188.699
c0.103516 8.78125 0.617188 17.5801 1.34863 26.3828c-12.3848 -6.75488 -24.0557 -14.4902 -33.6787 -24.2451c-21.5479 -21.8477 -54.8633 11.5859 -33.626 33.626c21.1406 21.9365 49.0928 35.3848 76.2783 48.6191c13.2949 59.0518 38.3145 116.48 68.6572 166.947
c41.9287 69.7354 102.676 145.778 178.973 179.183c38.5605 16.8809 86.4229 22.5293 119.186 -9.49805c31.6523 -30.9424 34.7998 -75.7471 18.001 -114.854c-8.79492 -20.4697 -40.6328 -5.45508 -35.0527 14.7793c9.74414 35.3281 -11.6182 72.0156 -51.1885 65.4785
c-36.7617 -6.07324 -68.6641 -33.7764 -94.458 -58.835c-47.334 -45.9854 -85.2627 -100.717 -112.755 -160.672c-7.06445 -15.4102 -13.8047 -31.752 -19.7637 -48.6436c10.6367 4.74219 21.3164 9.40234 32.0889 13.8516c65.6426 27.1143 132.202 43.877 202.769 51.4346
c34.8174 3.72852 35.9805 -53.9395 0 -55.249c-62.627 -2.27637 -124.979 -20.7236 -183.247 -42.7812c-23.2246 -8.79199 -46.0713 -18.5293 -68.6289 -28.9014c-5.80566 -30.1865 -7.63965 -60.7402 -3.09766 -89.8525c4.33203 -27.749 15.1465 -55.8516 35.4883 -75.7686
c22.2686 -21.8047 53.083 -26.293 83.0303 -23.3633c68.9531 6.74414 137.104 43.085 193.102 81.8984c13.1768 9.13477 32.8408 2.37012 40.4268 -10.5996z" />
    <glyph glyph-name="E" unicode="&#xca;" horiz-adv-x="486" 
d="M478.611 166.898c8.66309 -14.8076 2.22949 -30.9814 -10.5977 -40.4258c-41.1904 -30.3398 -86.5342 -53.6611 -134.743 -70.749c-46.3887 -16.4414 -97.4053 -27.7197 -146.335 -16.4619c-84.7676 19.5068 -123.132 108.916 -122.176 188.699
c0.103516 8.78125 0.617188 17.5801 1.34863 26.3828c-12.3848 -6.75488 -24.0557 -14.4902 -33.6787 -24.2451c-21.5479 -21.8477 -54.8633 11.5859 -33.626 33.626c21.1406 21.9365 49.0928 35.3848 76.2783 48.6191c13.2949 59.0518 38.3145 116.48 68.6572 166.947
c41.9287 69.7354 102.676 145.778 178.973 179.183c38.5605 16.8809 86.4229 22.5293 119.186 -9.49805c31.6523 -30.9424 34.7998 -75.7471 18.001 -114.854c-8.79492 -20.4697 -40.6328 -5.45508 -35.0527 14.7793c9.74414 35.3281 -11.6182 72.0156 -51.1885 65.4785
c-36.7617 -6.07324 -68.6641 -33.7764 -94.458 -58.835c-47.334 -45.9854 -85.2627 -100.717 -112.755 -160.672c-7.06445 -15.4102 -13.8047 -31.752 -19.7637 -48.6436c10.6367 4.74219 21.3164 9.40234 32.0889 13.8516c65.6426 27.1143 132.202 43.877 202.769 51.4346
c34.8174 3.72852 35.9805 -53.9395 0 -55.249c-62.627 -2.27637 -124.979 -20.7236 -183.247 -42.7812c-23.2246 -8.79199 -46.0713 -18.5293 -68.6289 -28.9014c-5.80566 -30.1865 -7.63965 -60.7402 -3.09766 -89.8525c4.33203 -27.749 15.1465 -55.8516 35.4883 -75.7686
c22.2686 -21.8047 53.083 -26.293 83.0303 -23.3633c68.9531 6.74414 137.104 43.085 193.102 81.8984c13.1768 9.13477 32.8408 2.37012 40.4268 -10.5996z" />
    <glyph glyph-name="E" unicode="&#xc9;" horiz-adv-x="486" 
d="M478.611 166.898c8.66309 -14.8076 2.22949 -30.9814 -10.5977 -40.4258c-41.1904 -30.3398 -86.5342 -53.6611 -134.743 -70.749c-46.3887 -16.4414 -97.4053 -27.7197 -146.335 -16.4619c-84.7676 19.5068 -123.132 108.916 -122.176 188.699
c0.103516 8.78125 0.617188 17.5801 1.34863 26.3828c-12.3848 -6.75488 -24.0557 -14.4902 -33.6787 -24.2451c-21.5479 -21.8477 -54.8633 11.5859 -33.626 33.626c21.1406 21.9365 49.0928 35.3848 76.2783 48.6191c13.2949 59.0518 38.3145 116.48 68.6572 166.947
c41.9287 69.7354 102.676 145.778 178.973 179.183c38.5605 16.8809 86.4229 22.5293 119.186 -9.49805c31.6523 -30.9424 34.7998 -75.7471 18.001 -114.854c-8.79492 -20.4697 -40.6328 -5.45508 -35.0527 14.7793c9.74414 35.3281 -11.6182 72.0156 -51.1885 65.4785
c-36.7617 -6.07324 -68.6641 -33.7764 -94.458 -58.835c-47.334 -45.9854 -85.2627 -100.717 -112.755 -160.672c-7.06445 -15.4102 -13.8047 -31.752 -19.7637 -48.6436c10.6367 4.74219 21.3164 9.40234 32.0889 13.8516c65.6426 27.1143 132.202 43.877 202.769 51.4346
c34.8174 3.72852 35.9805 -53.9395 0 -55.249c-62.627 -2.27637 -124.979 -20.7236 -183.247 -42.7812c-23.2246 -8.79199 -46.0713 -18.5293 -68.6289 -28.9014c-5.80566 -30.1865 -7.63965 -60.7402 -3.09766 -89.8525c4.33203 -27.749 15.1465 -55.8516 35.4883 -75.7686
c22.2686 -21.8047 53.083 -26.293 83.0303 -23.3633c68.9531 6.74414 137.104 43.085 193.102 81.8984c13.1768 9.13477 32.8408 2.37012 40.4268 -10.5996z" />
    <glyph glyph-name="F" unicode="F" horiz-adv-x="420" 
d="M286.441 269.667c-4.24219 -52.8154 -10.1426 -105.601 -16.4189 -158.212c-5.95117 -49.957 -7.20312 -104.984 -22.835 -153.193c0.584961 -10.6328 -10.6045 -19.7529 -20.5166 -19.6641c-0.292969 0 -0.588867 0.00390625 -0.884766 0.0078125
c-8.27441 0.0712891 -18.6572 6.30469 -19.9629 15.1963c-5.31641 36.2051 -1.47363 72.8994 0.870117 109.24c2.30469 35.752 4.81348 71.4863 7.70703 107.196c2.75098 33.9072 5.87695 67.8789 8.23145 101.883c-23.9062 -9.24805 -47.6553 -18.8496 -71.2012 -28.7295
c-24.9834 -10.4863 -42.8848 32.9551 -18.3857 43.6133c30.5752 13.3018 61.4033 25.7041 92.4316 37.5361c0.709961 19.3496 0.992188 38.707 0.595703 58.0674c-0.703125 34.5254 -3.43652 69.0469 -10.1875 102.947c-4.98438 25.0342 -10.7646 54.8604 -28.7764 74.4209
c-0.742188 -0.27832 -1.48047 -0.556641 -2.22266 -0.831055c-44.5762 -16.6348 -90.5869 -34.6611 -137.818 -42.0752c-24.0137 -3.76758 -49.6289 5.27734 -55.9375 31.2852c-6.06543 25.0195 13.4199 41.79 30.9639 55.7373
c35.5381 28.2559 80.2676 47.1455 126.375 42.1143c19.0791 -2.08008 37.0693 -7.64648 53.165 -16.335c35.1455 12.917 70.5234 25.2881 107.015 33.8262c44.8721 10.501 99.7598 21.3477 142.691 -1.38086c36.9873 -19.582 59.6875 -69.3213 35.0283 -106.9
c-20.834 -31.749 -65.0928 -4.32422 -50.0176 29.2373c6.47949 14.4219 -13.3838 25.7725 -24.0527 28.4268c-23.0068 5.72656 -49.5674 0.345703 -72.3711 -4.28223c-30.332 -6.15527 -59.876 -15.2363 -89.0664 -25.4121
c2.15918 -3.51855 4.22852 -7.11914 6.09082 -10.9053c21.9434 -44.5479 28.6406 -96.6494 32.2441 -145.629c1.91992 -26.0576 2.28418 -52.1758 1.64941 -78.2803c23.9102 8.49902 47.916 16.7881 72.0332 24.9268c31.1992 10.5332 45.4648 -40.4795 13.6191 -49.4033
c-29.6084 -8.2959 -58.9814 -17.6553 -88.1221 -27.7676c-0.584961 -8.89551 -1.21973 -17.7832 -1.93359 -26.6611z" />
    <glyph glyph-name="G" unicode="G" horiz-adv-x="505" 
d="M360.794 148.687c-3.31152 -6.75098 -6.69531 -13.4668 -10.2061 -20.1357c-27.6104 -52.4229 -63.2344 -109.723 -117.602 -137.797c-47.9199 -24.7412 -106.376 -25.1689 -149.125 10.1406c-39.6025 32.7119 -61.0293 88.7949 -70.249 137.949
c-20.2129 107.753 7.4082 224.08 62.3428 317.843c51.7734 88.3672 146.503 174.965 253.91 180.62c53.6611 2.82617 102.533 -27.4854 125.251 -75.9014c24.0703 -51.3057 21.4297 -109.983 9.92285 -164.258c-5.65527 -26.6719 -47.0742 -19.9678 -46.707 6.32227
c0.685547 48.8613 8.16406 102.633 -23.0137 144.568c-29.3115 39.4277 -78.2158 32.0166 -118.511 14.8828c-79.4688 -33.7939 -136.986 -103.489 -171.394 -181.006c-34.8818 -78.584 -51.1064 -172.314 -26.4258 -256.094
c9.91602 -33.6582 28.3418 -80.1787 65.9102 -90.3477c39.1455 -10.5977 75.9971 15.0283 100.717 42.7881c28.6592 32.1807 49.4395 72.4248 67.6582 111.35c-38.0361 -14.3799 -75.1484 -31.4141 -111.165 -47.6484c-28.4199 -12.8135 -53.5469 28.291 -24.8486 42.5059
c53.9395 26.7246 107.707 51.8828 163.705 70.0234c9.14844 23.3145 17.7656 46.8457 26.3896 70.3457c11.5781 31.5527 59.0195 27.5029 59.751 -8.08496c0.27832 -13.623 0.107422 -27.3105 -0.317383 -41.0303c15.6533 2.59766 31.5459 4.52051 47.7344 5.63379
c36.1416 2.49023 36.623 -56.1016 0 -56.5869c-16.916 -0.224609 -33.707 -1.78027 -50.3633 -4.37109c-3.99609 -71.0693 -8.13184 -142.36 13.4092 -210.857c11.8428 -37.6543 -47.2197 -53.6533 -58.9199 -16.2422c-15.9492 50.9883 -18.8535 103.029 -17.8545 155.388z
" />
    <glyph glyph-name="H" unicode="H" horiz-adv-x="648" 
d="M469.814 -15.2607c-13.2803 137.629 -14.2617 276.233 -9.81934 414.68c-16.8125 10.7939 -34.46 20.1143 -52.3682 27.8789c-38.3857 16.6416 -79.9082 26.8389 -121.783 29.5186c-1.38477 -37.1299 -2.44824 -74.2812 -2.85547 -111.472
c-0.310547 -28.4346 -0.246094 -56.8477 0.0712891 -85.25c31.125 8.8457 60.8828 21.4443 91.1758 34.5996c30.001 13.0303 52.9189 -24.7705 25.7764 -44.0957c-33.4648 -23.8242 -74.127 -39.4814 -115.941 -48.7549c1.58105 -70.0879 4.375 -140.133 7.0293 -210.25
c1.57324 -41.5361 -60.3477 -40.2871 -63.7803 0c-5.68066 66.6699 -8.24219 133.7 -8.78418 200.737c-7.27539 -0.53125 -14.501 -0.930664 -21.6191 -1.12695c-65.3604 -1.79492 -134.125 14.3682 -175.747 68.4639c-35.7734 46.4961 -36.2051 107.813 -1.37305 155.034
c33.9365 46.0039 87.1543 76.0723 141.475 91.4863c22.0293 6.25098 44.6514 10.2646 67.5088 12.2559c4.61035 62.4629 11.1689 124.772 20.6455 186.583c4.21777 27.5244 49.333 20.5059 48.0195 -6.49707c-2.9043 -59.8408 -6.25098 -119.621 -9.0127 -179.43
c60.7256 -3.87109 120.966 -21.2402 174.252 -49.5c3.58594 81.5742 8.64941 163.03 13.7979 244.141c1.58398 24.9482 41.8711 33.7793 46.2139 6.25488c9.3916 -59.5303 4.93848 -120.487 3.10059 -180.492c-1.11719 -36.4229 -1.97363 -72.8604 -2.51562 -109.302
c74.3701 -58.792 125.729 -144.405 123.21 -242.311c-1.49512 -58.1885 -19.9453 -118.125 -54.6953 -165.178c-15.957 -21.6045 -34.1045 -40.2979 -59.3633 -50.3994c-5.0166 -11.6494 -17.3555 -20.0527 -30.1396 -20.0527c-18.7578 0 -30.793 15.0186 -32.4775 32.4775z
M96.3945 267.359c36.0449 -20.8271 80.9844 -22.7324 122.146 -19.0713c0.246094 33.5576 0.90625 67.0938 1.87012 100.566c1.02051 35.4453 2.41895 70.9336 4.33887 106.411c-24.2598 -2.87598 -48.1807 -8.50684 -71.209 -17.1162
c-36.8047 -13.7588 -79.5146 -38.4609 -96.2773 -76.0615c-16.6025 -37.2471 6.30469 -75.7607 39.1309 -94.7285zM573.146 264.212c-10.6865 31.0781 -28.3574 58.8389 -50.4189 82.9268c0.282227 -103.368 5.07031 -206.29 9.70508 -309.43
c4.11719 5.10547 7.95605 10.4287 11.4775 16.0488c13.1914 21.0449 23.4746 43.2959 30.5 67.1309c13.9082 47.1953 14.8252 96.5312 -1.26367 143.323z" />
    <glyph glyph-name="I" unicode="I" horiz-adv-x="307" 
d="M79.9902 -90.1514c-32.7949 -7.17188 -46.1855 40.6201 -13.8945 50.375c20.5059 6.19434 41.0898 12.1533 61.7354 17.9053c-12.1387 107.186 -12.0312 216.088 -11.542 323.795c0.470703 104.217 0.0996094 208.916 4.44238 313.094
c-31.542 -11.0928 -62.3027 -24.6162 -92.1074 -40.9082c-29.251 -15.9961 -54.7168 27.5596 -26.1113 44.6719c83.1152 49.7178 177.709 82.6406 274.608 89.709c15.6855 1.14551 28.9629 -14.1689 28.9629 -28.9619c0 -16.9697 -13.4307 -27.1211 -28.9629 -28.9619
c-34.7461 -4.11719 -68.9209 -10.4082 -102.372 -19.1074c4.45996 -109.701 2.2832 -219.767 3.83496 -329.536c1.44824 -102.525 6.65723 -204.552 13.4473 -306.778c30.1865 7.58594 60.5049 14.6328 90.9697 20.9658c37.4756 7.79297 53.5 -48.9082 15.8887 -57.6318
c-72.8037 -16.8916 -145.886 -32.6631 -218.899 -48.6299z" />
    <glyph glyph-name="I" unicode="&#xcf;" horiz-adv-x="307" 
d="M79.9902 -90.1514c-32.7949 -7.17188 -46.1855 40.6201 -13.8945 50.375c20.5059 6.19434 41.0898 12.1533 61.7354 17.9053c-12.1387 107.186 -12.0312 216.088 -11.542 323.795c0.470703 104.217 0.0996094 208.916 4.44238 313.094
c-31.542 -11.0928 -62.3027 -24.6162 -92.1074 -40.9082c-29.251 -15.9961 -54.7168 27.5596 -26.1113 44.6719c83.1152 49.7178 177.709 82.6406 274.608 89.709c15.6855 1.14551 28.9629 -14.1689 28.9629 -28.9619c0 -16.9697 -13.4307 -27.1211 -28.9629 -28.9619
c-34.7461 -4.11719 -68.9209 -10.4082 -102.372 -19.1074c4.45996 -109.701 2.2832 -219.767 3.83496 -329.536c1.44824 -102.525 6.65723 -204.552 13.4473 -306.778c30.1865 7.58594 60.5049 14.6328 90.9697 20.9658c37.4756 7.79297 53.5 -48.9082 15.8887 -57.6318
c-72.8037 -16.8916 -145.886 -32.6631 -218.899 -48.6299z" />
    <glyph glyph-name="I" unicode="&#xce;" horiz-adv-x="307" 
d="M79.9902 -90.1514c-32.7949 -7.17188 -46.1855 40.6201 -13.8945 50.375c20.5059 6.19434 41.0898 12.1533 61.7354 17.9053c-12.1387 107.186 -12.0312 216.088 -11.542 323.795c0.470703 104.217 0.0996094 208.916 4.44238 313.094
c-31.542 -11.0928 -62.3027 -24.6162 -92.1074 -40.9082c-29.251 -15.9961 -54.7168 27.5596 -26.1113 44.6719c83.1152 49.7178 177.709 82.6406 274.608 89.709c15.6855 1.14551 28.9629 -14.1689 28.9629 -28.9619c0 -16.9697 -13.4307 -27.1211 -28.9629 -28.9619
c-34.7461 -4.11719 -68.9209 -10.4082 -102.372 -19.1074c4.45996 -109.701 2.2832 -219.767 3.83496 -329.536c1.44824 -102.525 6.65723 -204.552 13.4473 -306.778c30.1865 7.58594 60.5049 14.6328 90.9697 20.9658c37.4756 7.79297 53.5 -48.9082 15.8887 -57.6318
c-72.8037 -16.8916 -145.886 -32.6631 -218.899 -48.6299z" />
    <glyph glyph-name="I" unicode="&#xcd;" horiz-adv-x="307" 
d="M79.9902 -90.1514c-32.7949 -7.17188 -46.1855 40.6201 -13.8945 50.375c20.5059 6.19434 41.0898 12.1533 61.7354 17.9053c-12.1387 107.186 -12.0312 216.088 -11.542 323.795c0.470703 104.217 0.0996094 208.916 4.44238 313.094
c-31.542 -11.0928 -62.3027 -24.6162 -92.1074 -40.9082c-29.251 -15.9961 -54.7168 27.5596 -26.1113 44.6719c83.1152 49.7178 177.709 82.6406 274.608 89.709c15.6855 1.14551 28.9629 -14.1689 28.9629 -28.9619c0 -16.9697 -13.4307 -27.1211 -28.9629 -28.9619
c-34.7461 -4.11719 -68.9209 -10.4082 -102.372 -19.1074c4.45996 -109.701 2.2832 -219.767 3.83496 -329.536c1.44824 -102.525 6.65723 -204.552 13.4473 -306.778c30.1865 7.58594 60.5049 14.6328 90.9697 20.9658c37.4756 7.79297 53.5 -48.9082 15.8887 -57.6318
c-72.8037 -16.8916 -145.886 -32.6631 -218.899 -48.6299z" />
    <glyph glyph-name="J" unicode="J" horiz-adv-x="551" 
d="M289.554 58.4492c-13.4375 0 -27.9482 12.2852 -26.6211 26.6182c2.40137 26.0039 3.99316 52.0186 2.03418 78.1123c-1.11719 14.8613 -0.396484 53.4043 -23.4072 45.7725c-17.0166 -5.64453 -31.168 -27.5596 -39 -42.4346
c-8.7666 -16.6523 -13.6406 -35.8447 -15.3887 -54.542c-2.98633 -31.9414 -0.00292969 -72.5 15.0049 -101.316c17.4512 -33.5156 55.7266 -36.666 88.9951 -27.6348c74.124 20.124 109.316 103.021 126.704 170.815c19.9814 77.8955 19.7031 159.977 13.3594 239.659
c-5.21973 65.5713 -20.5693 127.324 -41.8135 188.414c-6.09082 -3.91406 -12.1279 -7.89648 -18.1152 -11.8965c-44.6299 -29.833 -85.4521 -64.501 -124.677 -101.057c-81.4531 -75.915 -149.903 -160.786 -216.306 -249.764
c-16.4414 -22.0293 -48.3906 -3.68555 -36.876 21.5557c49.126 107.692 136.152 201.427 222.104 281.349c43.6807 40.6152 90.3047 78.623 140.586 110.814c5.72363 3.66113 11.5576 7.35059 17.4912 11.0117c3.73535 6.82617 11.6064 11.0547 20.0664 11.9355
c41.9395 23.9023 88.2002 42.8809 136.177 36.3369c14.8506 -2.02344 22.9004 -19.6182 21.3447 -32.6953c-1.80176 -15.168 -14.5293 -24.9805 -29.2656 -25.8369c-29.0127 -1.69141 -56.002 -10.4658 -81.6426 -22.7539c47.9834 -89.1133 59.915 -200.353 60.9502 -298.7
c1.05957 -100.98 -12.9805 -209.329 -68.418 -296.173c-26.707 -41.8359 -65.0176 -75.5439 -113.565 -88.8955c-46.6777 -12.8379 -103.254 -6.43359 -139.057 28.6484c-31.6416 31.0068 -40.4014 81.9561 -38.1074 124.541c2.3125 42.8672 13.1133 87.2754 39.332 122.032
c22.208 29.4404 68.7578 63.9443 103.222 31.25c17.3516 -16.46 23.1572 -44.9873 27.4678 -67.4561c5.14551 -26.8145 7.24316 -53.9316 4.04297 -81.0889c-1.69141 -14.3438 -10.833 -26.6221 -26.6221 -26.6221z" />
    <glyph glyph-name="K" unicode="K" horiz-adv-x="544" 
d="M347.992 316.28c-20.4775 -20.4092 -41.5176 -40.3555 -62.9971 -59.8301c0.135742 -18.1328 0.264648 -36.2588 0.404297 -54.3848c8.5166 -0.388672 16.959 -0.916992 25.2832 -1.60938c51.3877 -4.26758 102.687 -17.8408 142.935 -51.4346
c39.042 -32.5879 64.5967 -83.2402 55.2842 -134.485c-5.61621 -30.9141 -52.8398 -22.2188 -53.1113 7.18945c-0.834961 90.4482 -87.0156 128.099 -166.249 131.859c-1.22754 0.0605469 -2.46582 0.0751953 -3.69727 0.125
c0.613281 -54.7881 1.70117 -109.569 4.29492 -164.364c2.03027 -42.835 -63.0479 -42.0107 -66.1201 0c-3.97461 54.3281 -4.86621 108.824 -4.72754 163.341c-21.1338 -1.56641 -42.1602 -4.32129 -62.7266 -8.48145
c-3.30078 -0.666992 -6.74805 -1.38086 -10.252 -2.12305c-37.6045 -27.5996 -78.7588 -52.0518 -123.128 -58.835c-11.6787 -1.78809 -23.375 1.24121 -29.708 12.0879c-5.39844 9.24805 -4.86328 24.7266 4.11426 31.8809c27.292 21.748 58.502 37.958 91.7744 49.6895
c26.9824 18.4932 52.5088 39.4346 76.7861 59.6162c18.2939 15.207 36.4561 30.5889 54.3926 46.2275c0.0966797 10.8184 0.178711 21.6328 0.210938 32.4443c0.167969 54.1562 0.0429688 108.374 -2.47949 162.484c-1.23145 26.3896 -3.22559 52.7227 -5.30176 79.0557
c-2.11621 26.8359 -8.15723 55.1455 -5.80273 82.0273c1.71582 19.5781 30.9922 32.8906 41.1934 11.1572c11.9814 -25.5293 15.3994 -54.6162 19.5273 -82.2871c3.94629 -26.4365 6.77246 -52.9863 9.00586 -79.6182c4.11719 -49.0791 6.25781 -98.2871 7.17871 -147.52
c6.03027 5.74512 12.0244 11.5254 17.9619 17.3701c42.1504 41.4824 82.2627 85.1201 117.684 132.544c35.7666 47.8877 71.8584 100.617 86.1631 159.334c5.5166 22.6572 38.8926 16.748 39.4775 -5.3418c1.73047 -65.4746 -36.1416 -126.215 -71.6191 -178.474
c-36.6016 -53.9102 -79.6367 -103.688 -125.751 -149.646z" />
    <glyph glyph-name="L" unicode="L" horiz-adv-x="453" 
d="M68.7266 22.7402c35.7842 35.4102 85.043 56.1475 135.089 66.6094c20.9199 71.0908 25.5693 145.336 24.5205 219.096c-0.0537109 3.66406 -0.150391 7.3252 -0.25 10.9863c-9.00977 -6.31543 -18.2119 -12.374 -27.6357 -18.1152
c-28.5166 -17.373 -58.9707 -31.5742 -90.3096 -43.0674c-32.9336 -12.0742 -68.7646 -23.7852 -103.743 -14.0479c-28.7734 8.00684 -16.4775 49.9004 12.1953 44.2451c19.8174 -3.90723 41.0869 5.34473 59.3945 12.1709c17.3516 6.46875 34.1719 14.1934 50.5498 22.835
c32.1162 16.9482 62.3848 37.1475 90.2441 60.4326c1.82324 1.52344 3.63574 3.10449 5.45508 4.65625c-3.60059 48.3369 -8.05762 96.6494 -6.9834 145.047c1.35254 60.9072 11.8252 138.646 74.5957 166.88c25.498 11.4678 57.5039 13.1914 81.6602 -2.46191
c25.5332 -16.5488 38.6035 -45.9785 42.0752 -75.3623c8.30273 -70.3057 -29.7617 -138.706 -71.3555 -192.231c-20.4453 -26.3145 -43.1709 -50.6992 -67.9404 -72.793c8.15625 -87.2363 9.91895 -175.201 -7.93262 -260.232
c67.4727 2.28711 136.908 -20.2422 182.559 -71.5693c26.3535 -29.6328 -17.2061 -73.4453 -43.6816 -43.6807c-40.2979 45.3076 -98.7402 57.8066 -156.169 52.0908c-3.96387 -11.5928 -8.32812 -23.1211 -13.2168 -34.5537
c-24.3984 -57.0508 -74.4336 -130.226 -142.51 -136.645c-40.9121 -3.85742 -71.8086 29.7646 -70.959 69.7021c0.713867 33.6934 20.9736 66.877 44.3486 90.0088zM286.421 653.99c-25.084 -23.3428 -28.1064 -60.999 -28.5596 -93.1904
c-0.556641 -39.8125 4.01758 -79.5684 8.98438 -119.007c0.489258 -3.88184 0.970703 -7.76758 1.44922 -11.6572c36.7617 38.707 68.165 83.8574 82.9443 133.953c7.46094 25.2939 14.1621 57.582 3.78223 83.0801c-12.3779 30.4033 -47.9414 26.043 -68.6006 6.82129z
M105.301 -64.3809c31.7705 17.9404 54.3203 47.9746 70.9365 81.2119c-24.1025 -8.97754 -47.0703 -21.6162 -64.9717 -40.21c-9.83691 -10.2188 -19.3955 -23.3926 -21.8857 -37.6973c-0.556641 -3.19336 -1.80566 -8.42383 0.270508 -11.3604
c1.57031 -2.21973 1.38867 -0.225586 0.290039 -0.104492c0.93457 -0.103516 12.8447 6.74023 15.3604 8.16016z" />
    <glyph glyph-name="M" unicode="M" horiz-adv-x="555" 
d="M443.642 -10.6543c4.35352 75.0195 12.4463 149.952 18.9473 224.821c6.13379 70.5986 16.21 141.933 13.2695 212.931c-1.52734 36.916 -10.0586 140.794 -68.4326 130.957c-17.6729 -2.97949 -34.8926 -14.3691 -49.6328 -27.0391
c4.11426 -12.3418 7.05469 -24.6729 8.77832 -36.1875c5.2627 -35.1426 3.75 -71.6689 -7.2041 -105.669c-9.90137 -30.7285 -26.2256 -68.1543 -58.1777 -81.1211c-33.7754 -13.7051 -65.2246 6.37598 -73.1924 40.4658c-8.92383 38.1826 0.595703 76.5537 16.2812 111.535
c11.8779 26.4932 28.5625 53.8213 49.1074 77.7988c-1.1416 2.07324 -2.28027 4.14648 -3.53223 6.16602c-10.0156 16.1631 -27.2812 33.9219 -47.6484 24.5703c-23.8564 -10.958 -40.166 -40.377 -52.2588 -62.2705c-28.7305 -52.0127 -44.4912 -111.436 -58.0107 -168.942
c-14.3076 -60.8613 -23.7236 -122.768 -28.6543 -185.085c-2.47656 -31.3311 -3.60449 -62.6982 -4.14648 -94.1152c-0.271484 -15.7031 -0.253906 -31.3916 -0.139648 -47.0947c0.0146484 -2.09473 -0.0283203 -4.21777 -0.0888672 -6.35156
c1.35254 -12.792 2.74805 -25.584 4.17188 -38.3721c3.21094 -28.8301 -43.1992 -34.1357 -50.0176 -7.27539c-3.43652 7.22168 -4.89258 16.4453 -5.60645 25.4902c-20.0742 96.4102 -27.7314 195.3 -28.3955 293.669c-0.713867 105.73 4.46387 216.852 28.7773 320.059
c7.84668 33.3047 64.0586 26.415 60.3408 -8.16699c-5.6416 -52.4473 -14.0732 -104.502 -18.6436 -157.089c-1.27734 -14.6689 -2.34082 -29.3477 -3.25098 -44.0371c6.95801 25.8438 14.9043 51.3838 24.0098 76.4395c12.8594 35.3955 28.4951 70.3486 50.582 101.021
c20.292 28.1777 46.0391 55.8516 82.2236 60.8291c40.666 5.59473 71.6367 -17.6982 92.6211 -49.8145c16.2451 11.8564 33.875 21.2051 52.6504 26.8672c34.3574 10.3652 70.0566 -0.325195 95.2334 -25.4199c26.8145 -26.7324 39.2637 -65.2539 46.3252 -101.541
c15.1035 -77.6387 6.36914 -156.989 0.282227 -235.103c-6.56543 -84.2568 -11.5361 -168.906 -20.6172 -252.925c-1.92285 -17.7832 -13.5547 -32.9766 -32.9756 -32.9766c-17.0801 0 -34.0107 15.1787 -32.9756 32.9766zM301.96 396.098
c9.04883 26.2109 12.6416 55.0205 9.60156 82.9121c-6.45117 -9.62695 -12.3242 -19.6572 -17.6084 -30.0332c-12.7559 -25.0449 -23.1533 -55.4697 -17.3945 -83.8359c0.50293 -2.47656 0.977539 -5.39551 2.06543 -7.86816
c3.01855 2.02344 5.53809 3.80078 7.93555 7.14746c6.75488 9.42383 11.6357 20.7773 15.4004 31.6777z" />
    <glyph glyph-name="N" unicode="N" horiz-adv-x="494" 
d="M462.091 690.132c16.0635 -9.39453 18.0146 -27.5703 11.3389 -43.2842c-18.6328 -43.9443 -37.7363 -87.4219 -55.5195 -131.438c0.185547 -0.470703 0.37793 -0.941406 0.563477 -1.41211c31.9736 -81.5273 44.4443 -169.534 49.3184 -256.539
c5.10938 -91.1865 8.39941 -186.462 -14.001 -275.686c-9.74121 -38.8105 -25.0234 -78.7949 -57.8105 -103.868c-32.6299 -24.9551 -70.1094 -13.7402 -91.6963 19.0576c-23.5137 35.7275 -30.5283 83.2158 -35.2705 124.816
c-5.04492 44.2266 -6.04395 88.6455 -3.75684 133.09c4.66699 90.6689 22.5 180.553 48.6758 267.368c11.4824 38.082 24.3564 76.2891 38.8857 113.9c-0.606445 1.17773 -1.18066 2.36914 -1.80176 3.53906c-29.3193 55.4307 -89.2246 125.18 -160.087 94.041
c-64.8291 -28.4844 -82.6699 -118.439 -94.6514 -180.139c-30.9678 -159.434 -4.66406 -320.455 20.9482 -478.512c5.96973 -36.8438 -47.4023 -53.4209 -57.1465 -15.7529c-26.29 101.63 -42.207 207.217 -44.7227 312.258
c-2.42285 101.142 6.89746 210.668 45.5361 305.151c32.1455 78.6055 104.367 143.409 194.44 119.035c54.3994 -14.7217 93.5059 -53.3711 122.525 -99.3643c12.5557 28.1455 26.1465 55.7236 40.9434 82.3877c8.31738 14.9893 28.748 19.8525 43.2881 11.3496z
M414.088 323.931c-5.04492 39.6484 -12.6836 79.4678 -24.0264 118.104c-5.05566 -14.4111 -9.89355 -28.9297 -14.4111 -43.6055c-25.9795 -84.3926 -43.8418 -171.497 -48.9551 -259.758c-2.25195 -38.8496 -2.35938 -78.0557 0.18457 -116.895
c2.15918 -32.9336 3.30469 -76.125 21.5342 -104.901c24.9551 -39.3916 52.1973 28.8193 57.9102 49.2471c11.1143 39.7383 14.9609 81.8486 16.9238 122.942c3.71777 77.8916 0.68457 157.503 -9.16016 234.866z" />
    <glyph glyph-name="O" unicode="O" horiz-adv-x="443" 
d="M81.292 51.1309c-49.1436 61.7637 -54.3799 144.382 -44.5674 219.812c1.8623 14.3223 4.19629 28.6094 6.97949 42.8213c-3.48633 7.04004 -6.6582 14.251 -9.53027 21.5869c-30.4648 77.8486 -30.4609 173.87 5.77637 249.632
c29.3867 61.4355 90.4473 109.352 159.611 113.073c71.251 3.83594 132.89 -37.2295 170.801 -95.4072c42.3643 -65.0107 59.5088 -146.695 62.1738 -223.295c2.75781 -79.29 -11.2041 -159.723 -40.6699 -233.383c-25.4512 -63.623 -64.5039 -129.383 -132.354 -153.928
c-64.0547 -23.1709 -137.34 7.71484 -178.22 59.0879zM86.7812 533.027c-8.25293 -31.8418 -10.6855 -66.4512 -7.55664 -100.384c9.30566 22.5254 19.9922 44.4619 32.1562 65.5811c20.5625 35.6914 72.9746 4.20312 54.7842 -32.0234
c-22.7393 -45.2861 -41.3896 -92.2783 -54.0527 -141.058c21.833 -35.1494 57.8242 -68.458 98.2646 -64.2588c24.3555 2.5293 35.5986 -37.4873 12.8018 -47.2715c-38.4463 -16.4951 -81.3525 -1.70898 -114.215 21.4443
c-4.09277 2.88281 -8.02148 5.93359 -11.8213 9.10938c-6.26172 -60.3896 -0.289062 -126.952 41.0615 -173.944c38.2715 -43.4912 93.2881 -55.4805 143.249 -23.5674c51.9697 33.1943 76.9746 101.206 93.7236 157.604c36.2051 121.926 36.6123 277.181 -39.0889 385.209
c-32.916 46.9707 -90.4941 82.1982 -148.361 61.3574c-52.5938 -18.9434 -87.2363 -64.915 -100.945 -117.798z" />
    <glyph glyph-name="O" unicode="&#xd6;" horiz-adv-x="443" 
d="M81.292 51.1309c-49.1436 61.7637 -54.3799 144.382 -44.5674 219.812c1.8623 14.3223 4.19629 28.6094 6.97949 42.8213c-3.48633 7.04004 -6.6582 14.251 -9.53027 21.5869c-30.4648 77.8486 -30.4609 173.87 5.77637 249.632
c29.3867 61.4355 90.4473 109.352 159.611 113.073c71.251 3.83594 132.89 -37.2295 170.801 -95.4072c42.3643 -65.0107 59.5088 -146.695 62.1738 -223.295c2.75781 -79.29 -11.2041 -159.723 -40.6699 -233.383c-25.4512 -63.623 -64.5039 -129.383 -132.354 -153.928
c-64.0547 -23.1709 -137.34 7.71484 -178.22 59.0879zM86.7812 533.027c-8.25293 -31.8418 -10.6855 -66.4512 -7.55664 -100.384c9.30566 22.5254 19.9922 44.4619 32.1562 65.5811c20.5625 35.6914 72.9746 4.20312 54.7842 -32.0234
c-22.7393 -45.2861 -41.3896 -92.2783 -54.0527 -141.058c21.833 -35.1494 57.8242 -68.458 98.2646 -64.2588c24.3555 2.5293 35.5986 -37.4873 12.8018 -47.2715c-38.4463 -16.4951 -81.3525 -1.70898 -114.215 21.4443
c-4.09277 2.88281 -8.02148 5.93359 -11.8213 9.10938c-6.26172 -60.3896 -0.289062 -126.952 41.0615 -173.944c38.2715 -43.4912 93.2881 -55.4805 143.249 -23.5674c51.9697 33.1943 76.9746 101.206 93.7236 157.604c36.2051 121.926 36.6123 277.181 -39.0889 385.209
c-32.916 46.9707 -90.4941 82.1982 -148.361 61.3574c-52.5938 -18.9434 -87.2363 -64.915 -100.945 -117.798z" />
    <glyph glyph-name="O" unicode="&#xd5;" horiz-adv-x="443" 
d="M81.292 51.1309c-49.1436 61.7637 -54.3799 144.382 -44.5674 219.812c1.8623 14.3223 4.19629 28.6094 6.97949 42.8213c-3.48633 7.04004 -6.6582 14.251 -9.53027 21.5869c-30.4648 77.8486 -30.4609 173.87 5.77637 249.632
c29.3867 61.4355 90.4473 109.352 159.611 113.073c71.251 3.83594 132.89 -37.2295 170.801 -95.4072c42.3643 -65.0107 59.5088 -146.695 62.1738 -223.295c2.75781 -79.29 -11.2041 -159.723 -40.6699 -233.383c-25.4512 -63.623 -64.5039 -129.383 -132.354 -153.928
c-64.0547 -23.1709 -137.34 7.71484 -178.22 59.0879zM86.7812 533.027c-8.25293 -31.8418 -10.6855 -66.4512 -7.55664 -100.384c9.30566 22.5254 19.9922 44.4619 32.1562 65.5811c20.5625 35.6914 72.9746 4.20312 54.7842 -32.0234
c-22.7393 -45.2861 -41.3896 -92.2783 -54.0527 -141.058c21.833 -35.1494 57.8242 -68.458 98.2646 -64.2588c24.3555 2.5293 35.5986 -37.4873 12.8018 -47.2715c-38.4463 -16.4951 -81.3525 -1.70898 -114.215 21.4443
c-4.09277 2.88281 -8.02148 5.93359 -11.8213 9.10938c-6.26172 -60.3896 -0.289062 -126.952 41.0615 -173.944c38.2715 -43.4912 93.2881 -55.4805 143.249 -23.5674c51.9697 33.1943 76.9746 101.206 93.7236 157.604c36.2051 121.926 36.6123 277.181 -39.0889 385.209
c-32.916 46.9707 -90.4941 82.1982 -148.361 61.3574c-52.5938 -18.9434 -87.2363 -64.915 -100.945 -117.798z" />
    <glyph glyph-name="O" unicode="&#xd4;" horiz-adv-x="443" 
d="M81.292 51.1309c-49.1436 61.7637 -54.3799 144.382 -44.5674 219.812c1.8623 14.3223 4.19629 28.6094 6.97949 42.8213c-3.48633 7.04004 -6.6582 14.251 -9.53027 21.5869c-30.4648 77.8486 -30.4609 173.87 5.77637 249.632
c29.3867 61.4355 90.4473 109.352 159.611 113.073c71.251 3.83594 132.89 -37.2295 170.801 -95.4072c42.3643 -65.0107 59.5088 -146.695 62.1738 -223.295c2.75781 -79.29 -11.2041 -159.723 -40.6699 -233.383c-25.4512 -63.623 -64.5039 -129.383 -132.354 -153.928
c-64.0547 -23.1709 -137.34 7.71484 -178.22 59.0879zM86.7812 533.027c-8.25293 -31.8418 -10.6855 -66.4512 -7.55664 -100.384c9.30566 22.5254 19.9922 44.4619 32.1562 65.5811c20.5625 35.6914 72.9746 4.20312 54.7842 -32.0234
c-22.7393 -45.2861 -41.3896 -92.2783 -54.0527 -141.058c21.833 -35.1494 57.8242 -68.458 98.2646 -64.2588c24.3555 2.5293 35.5986 -37.4873 12.8018 -47.2715c-38.4463 -16.4951 -81.3525 -1.70898 -114.215 21.4443
c-4.09277 2.88281 -8.02148 5.93359 -11.8213 9.10938c-6.26172 -60.3896 -0.289062 -126.952 41.0615 -173.944c38.2715 -43.4912 93.2881 -55.4805 143.249 -23.5674c51.9697 33.1943 76.9746 101.206 93.7236 157.604c36.2051 121.926 36.6123 277.181 -39.0889 385.209
c-32.916 46.9707 -90.4941 82.1982 -148.361 61.3574c-52.5938 -18.9434 -87.2363 -64.915 -100.945 -117.798z" />
    <glyph glyph-name="O" unicode="&#xd3;" horiz-adv-x="443" 
d="M81.292 51.1309c-49.1436 61.7637 -54.3799 144.382 -44.5674 219.812c1.8623 14.3223 4.19629 28.6094 6.97949 42.8213c-3.48633 7.04004 -6.6582 14.251 -9.53027 21.5869c-30.4648 77.8486 -30.4609 173.87 5.77637 249.632
c29.3867 61.4355 90.4473 109.352 159.611 113.073c71.251 3.83594 132.89 -37.2295 170.801 -95.4072c42.3643 -65.0107 59.5088 -146.695 62.1738 -223.295c2.75781 -79.29 -11.2041 -159.723 -40.6699 -233.383c-25.4512 -63.623 -64.5039 -129.383 -132.354 -153.928
c-64.0547 -23.1709 -137.34 7.71484 -178.22 59.0879zM86.7812 533.027c-8.25293 -31.8418 -10.6855 -66.4512 -7.55664 -100.384c9.30566 22.5254 19.9922 44.4619 32.1562 65.5811c20.5625 35.6914 72.9746 4.20312 54.7842 -32.0234
c-22.7393 -45.2861 -41.3896 -92.2783 -54.0527 -141.058c21.833 -35.1494 57.8242 -68.458 98.2646 -64.2588c24.3555 2.5293 35.5986 -37.4873 12.8018 -47.2715c-38.4463 -16.4951 -81.3525 -1.70898 -114.215 21.4443
c-4.09277 2.88281 -8.02148 5.93359 -11.8213 9.10938c-6.26172 -60.3896 -0.289062 -126.952 41.0615 -173.944c38.2715 -43.4912 93.2881 -55.4805 143.249 -23.5674c51.9697 33.1943 76.9746 101.206 93.7236 157.604c36.2051 121.926 36.6123 277.181 -39.0889 385.209
c-32.916 46.9707 -90.4941 82.1982 -148.361 61.3574c-52.5938 -18.9434 -87.2363 -64.915 -100.945 -117.798z" />
    <glyph glyph-name="P" unicode="P" horiz-adv-x="516" 
d="M252.339 424.765c1.40625 4.40625 2.82812 8.8125 4.30566 13.2012c23.9238 70.7979 55.7334 144.072 108.513 198.379c49.2324 50.6602 127.638 87.8145 195.524 49.7754c66.1885 -37.0908 69.9238 -123.96 45.2393 -187.197
c-26.8105 -68.6826 -70.7334 -134.339 -120.93 -188.124c-50.0391 -53.6182 -112.267 -96.0928 -182.548 -118.137c-9.05273 -2.83984 -18.4443 -5.36914 -28.0566 -7.55273c-0.988281 -11.9814 -1.85938 -23.9775 -2.52344 -36.0166
c-1.87012 -34.0039 -2.67969 -68.0078 -2.50488 -102.065c0.0859375 -16.9844 0.442383 -33.9688 1.04492 -50.9424c0.303711 -8.4707 0.443359 -16.916 0.572266 -25.3906c-0.0107422 0.742188 0.185547 -2.32324 0.321289 -5.43066
c0.25293 -0.820312 0.459961 -1.65137 0.720703 -2.46875c1.04199 -3.26855 1.37402 -6.39746 1.18164 -9.35547c7.7959 -20.5127 -12.0605 -46.1641 -34.8076 -31.9277c-14.6367 9.16309 -20.4062 22.0508 -23.4961 36.7871
c-15.9277 38.3857 -21.8262 79.958 -27.4033 121.102c-4.40625 32.5195 -7.21387 65.2178 -8.88379 97.9834c-31.6738 2.50879 -62.4023 10.6943 -88.9707 26.6719c-62.8057 37.7686 -86.2949 114.072 -86.6338 183.664c-0.371094 76.9033 27.0889 153.846 68.9502 217.661
c18.458 28.1377 62.4707 2.97168 45.3975 -26.5361c-36.5449 -63.1484 -63.2383 -132.22 -60.1553 -206.297c2.7334 -65.667 32.3662 -125.84 99.8066 -142.899c6.64746 -1.68457 13.2842 -2.97656 19.9141 -4.04004c-1.87695 97.7441 5.53418 196.163 17.958 293.072
c2.29395 17.8867 13.373 33.2295 33.2295 33.2295c16.6201 0 35.0957 -15.3535 33.2295 -33.2295c-3.27148 -31.3135 -6.32227 -62.6094 -8.99512 -93.916zM365.104 526.112c-30.6396 -57.957 -51.9121 -121.068 -66.8086 -184.784
c-8.48828 -36.3018 -14.6895 -72.8389 -19.1641 -109.63c80.7002 21.7832 153.343 80.3213 203.518 144.497c18.9932 24.2949 35.8418 50.3418 51.1777 77.0811c16.1885 28.2236 32.0596 57.5674 38.9961 89.6377c5.8623 27.0859 3.68555 59.0986 -13.7588 81.8271
c-17.0059 22.1543 -46.2754 28.4521 -72.4727 21.9512c-57.0361 -14.1582 -95.6826 -71.7686 -121.487 -120.58z" />
    <glyph glyph-name="Q" unicode="Q" horiz-adv-x="443" 
d="M391.867 145.975c-22.1084 -55.2627 -54.4824 -112.117 -107.062 -142.189c16.8809 -39.9482 36.0703 -78.6514 65.168 -111.36c26.6396 -29.9434 -16.6309 -73.9277 -44.2695 -44.2734c-36.7158 39.3955 -57.7715 87.4756 -76.1152 136.947
c-55.8154 -6.26953 -113.676 22.5322 -148.294 66.0381c-49.1436 61.7607 -54.3818 144.38 -44.5693 219.81c1.8623 14.3223 4.19629 28.6094 6.97949 42.8213c-3.48633 7.04004 -6.6582 14.251 -9.53027 21.5869c-30.4648 77.8486 -30.4609 173.87 5.77637 249.632
c29.3867 61.4355 90.4473 109.352 159.611 113.073c71.251 3.83594 132.89 -37.2295 170.801 -95.4072c42.3643 -65.0107 59.5088 -146.695 62.1738 -223.295c2.75781 -79.29 -11.2041 -159.723 -40.6699 -233.383zM281.459 46.6562
c51.9658 33.1943 76.9766 101.206 93.7178 157.607c36.2051 121.926 36.6123 277.181 -39.0889 385.209c-32.916 46.9707 -90.4941 82.1982 -148.361 61.3574c-52.5938 -18.9434 -87.2363 -64.915 -100.945 -117.798c-8.25293 -31.8457 -10.6826 -66.4561 -7.5498 -100.385
c9.30566 22.5254 19.9922 44.4619 32.1562 65.5811c20.5625 35.6914 72.9746 4.20312 54.7842 -32.0234c-22.7393 -45.2861 -41.3896 -92.2783 -54.0527 -141.058c21.833 -35.1494 57.8242 -68.458 98.2646 -64.2588c24.3555 2.5293 35.5986 -37.4873 12.8018 -47.2715
c-38.4463 -16.4951 -81.3525 -1.70898 -114.215 21.4443c-4.09277 2.88281 -8.02148 5.93359 -11.8213 9.10938c-6.26172 -60.3896 -0.289062 -126.952 41.0615 -173.944c21.248 -24.1523 47.666 -38.5674 75.5078 -41.1689
c-5.83398 16.2139 -11.7822 32.3486 -18.3008 48.1484c-11.8711 28.7695 37.2188 48.9111 50.0322 21.0938c8.74219 -18.9785 16.6133 -38.5459 24.4912 -58.1562c3.86035 1.93066 7.70312 4.0791 11.5176 6.5127z" />
    <glyph glyph-name="R" unicode="R" horiz-adv-x="455" 
d="M223.086 25.2305c-36.2197 21.9043 -81.832 55.7598 -100.757 97.8809c-3.875 -55.627 -7.60742 -111.39 -4.27148 -167.102c0.916992 -15.3105 -9.38086 -22.9209 -20.8809 -23.4951c-12.2031 -6.61914 -28.834 -5.40234 -36.3516 9.37305
c-21.7764 42.7891 -28.5732 90.4307 -34.9531 137.508c-6.54004 48.251 -9.61621 96.8877 -10.5693 145.561c-1.91992 97.959 5.49805 196.6 17.9512 293.724c2.29395 17.8867 13.373 33.2295 33.2295 33.2295c16.6201 0 35.0957 -15.3535 33.2295 -33.2295
c-5.91602 -56.6221 -11.2041 -113.177 -14.5264 -169.87c4.08594 19.7383 8.83496 39.3271 14.4229 58.6875c32.3379 112.017 96.4639 239.727 206.597 293.013c26.3398 12.7451 56.1621 22.1113 85.6064 15.8203c28.2383 -6.0332 47.8525 -26.9668 57.6396 -53.335
c20.9766 -56.5186 -7.91113 -121.597 -36.5527 -169.869c-32.3232 -54.4775 -73.2568 -103.646 -116.812 -149.442c-21.5625 -22.6719 -43.874 -44.6299 -66.2676 -66.4736c-21.7158 -21.1807 -44.127 -42.4395 -59.8984 -68.6152
c-17.1768 -28.5088 -21.6016 -57.5391 -0.360352 -85.0459c18.0332 -23.3496 42.3672 -42.3389 67.4512 -57.4961c50.0391 -30.2363 107.903 -44.5371 166.21 -42.8926c30.4111 0.860352 30.3857 -46.8203 0 -47.2197c-63.416 -0.834961 -125.861 16.4668 -180.136 49.29z
M315.323 638.803c-92.168 -65.5742 -140.965 -185.529 -165.274 -291.834c-9.3877 -41.0547 -15.4961 -82.6484 -19.8389 -124.459c17.8584 32.7979 46.9951 60.8574 72.5322 85.9229c44.0693 43.2559 87.3721 87.9209 124.688 137.246
c35.4561 46.8633 77.0244 104.948 81.3701 165.492c1.38477 19.2822 -0.660156 47.0596 -23.0674 52.9971c-24.1416 6.40137 -51.8516 -12.1602 -70.4092 -25.3652z" />
    <glyph glyph-name="S" unicode="S" horiz-adv-x="549" 
d="M284.876 407.816c79.9824 -22.7676 164.952 -53.1094 218.438 -120.476c51.2344 -64.5146 65.0361 -149.464 20.0312 -221.504c-92.6133 -148.247 -331.779 -154.977 -429.663 -8.46289c-22.5859 33.8076 -31.8848 76.9141 -18.4512 116.053
c13.5342 39.4385 43.0498 72.1934 78.2061 93.9766c65.2783 40.4482 168.021 34.8105 202.975 -43.0098c8.8418 -19.6885 -15.7637 -43.752 -32.2236 -24.8623c-26.8643 30.8359 -68.2969 45.0723 -108.014 33.8975c-38.375 -10.7969 -78.5664 -43.2734 -88.1182 -83.418
c-9.90527 -41.6357 23.0215 -80.0537 54.5459 -102.597c37.1758 -26.5898 82.2266 -40.7979 127.938 -39.7275c76.8672 1.80176 162.958 50.9697 180.706 130.36c17.8867 79.9932 -53.7715 146.288 -118.778 176.96c-81.4629 38.4355 -173.57 47.0957 -256.314 82.6445
c-37.665 16.1816 -78.6768 37.8652 -100.924 73.8457c-25.0156 40.4512 -18.8643 91.8496 3.19727 132.012c40.3408 73.4463 124.727 124.709 204.213 144.419c78.6875 19.5137 193.081 16.3027 225.972 -74.2881c28.6514 -78.9189 -33.1299 -177.045 -100.231 -216.048
c-33.4121 -19.4209 -77.5029 -26.3535 -111.043 -3.27148c-36.9268 25.416 -40.085 72.6367 -29.4453 112.492c8.68164 32.5127 58.835 18.6719 50.375 -13.8867c-4.43555 -17.0801 -8.8418 -41.7646 6.04395 -55.2842c15.2109 -13.8125 38.1826 -9.46289 54.6133 -0.867188
c39.4951 20.6631 69.0068 62.4023 80.6064 104.791c5.82324 21.2695 7.35059 44.1406 -5.96875 62.9941c-11.2256 15.8848 -29.1875 25.7002 -47.6523 30.5996c-45.1396 11.9746 -97.751 -0.567383 -140.129 -17.3584
c-36.1914 -14.3438 -70.2812 -36.5449 -98.1875 -63.6445c-25.5908 -24.8486 -56.8369 -64.1152 -41.5801 -102.397c13.4092 -33.6475 60.7148 -52.3975 91.6035 -64.6758c41.3047 -16.417 84.5928 -27.1211 127.26 -39.2666z" />
    <glyph glyph-name="T" unicode="T" horiz-adv-x="569" 
d="M782.78 723.326c37.3223 -96.7881 -38.9678 -186.872 -113.852 -237.628c-60.3262 -40.8867 -130.364 -65.2139 -202.068 -76.6855c-2.41895 -37.833 -5.03809 -75.6553 -7.88184 -113.47c-8.86719 -117.933 -18.333 -236.49 -33.6543 -353.781
c-2.1123 -16.1816 -12.0742 -30.0762 -30.0752 -30.0762c-15.5137 0 -31.1064 13.8477 -30.0752 30.0752c9.68066 152.504 16.8066 306.382 6.32324 459.09c-72.6934 -1.27344 -148.062 8.21094 -215.503 30.3223c-73.6279 24.1387 -146.311 77.2109 -159.634 158.496
c-13.4873 82.2871 32.1738 160.729 103.064 200.959c75.2373 42.6963 168.236 39.5811 228.88 -26.1572c60.2227 -65.2822 72.9219 -159.698 84.4648 -244.198c2.00195 -14.6543 3.7793 -29.3193 5.3916 -43.9912c5.08496 57.9355 9.99121 115.889 14.8184 173.842
c2.42676 29.1553 47.124 29.9336 46.0498 0.000976562c-2.27246 -63.416 -5.33789 -126.771 -9.04199 -190.091c65.6455 11.8457 128.458 36.0264 183.285 76.2959c51.1738 37.5859 113.034 108.966 77.6025 176.685c-34.6357 66.1992 -122.279 66.7842 -186.598 63.7939
c-34.0645 -1.58398 -33.4043 50.1396 0 52.5732c89.9805 6.55469 201.491 -10.0801 238.503 -106.055zM218.475 466.708c48.3086 -10.0371 98.6465 -15.7393 148.871 -15.6357c-1.53809 16.1416 -3.21484 32.2764 -5.20605 48.3828
c-8.8877 71.9189 -16.8906 158.777 -62.8545 218.047c-18.708 24.1201 -44.6484 43.4951 -75.2344 48.708c-35.2773 6.0127 -72.9316 -5.11621 -103.261 -22.9492c-57.6211 -33.8828 -95.5176 -104.773 -67.6689 -170.38c27.6992 -65.2461 101.146 -92.835 165.354 -106.173
z" />
    <glyph glyph-name="U" unicode="U" horiz-adv-x="493" 
d="M491.97 -63.4688c-13.0625 -13.0625 -31.3633 -10.6035 -44.7471 -0.00585938c-50.5674 40.0596 -74.8838 105.035 -90.1123 169.739c-2.33691 -4.68457 -4.70215 -9.35547 -7.09277 -14.0078c-19.5928 -38.0967 -42.4219 -74.6982 -70.2207 -107.396
c-25.1982 -29.6406 -57.9248 -57.9746 -98.6836 -59.8262c-88.6924 -4.02832 -126.429 110.629 -142.742 178.947c-21.0166 88.0176 -25.5264 180.738 -20.4922 270.833c5.23828 93.6846 18.248 190.109 45.3867 280.09c7.76074 25.7227 51.1738 21.9473 48.4727 -6.56152
c-0.367188 -3.88965 -0.738281 -7.7793 -1.10547 -11.6689c-0.142578 -1.48438 -0.399414 -2.87207 -0.716797 -4.20996c-10.1084 -85.9268 -24.3027 -170.904 -27.4287 -257.648c-3.11523 -86.4375 0.310547 -175.18 21.8867 -259.309
c10.0693 -39.2529 39.3779 -152.255 100.635 -122.301c29.7686 14.5576 53.2783 46.4746 71.4473 73.1924c21.2842 31.2959 39.2178 64.7393 55.5205 98.8506c3.24023 6.7793 6.39453 13.6084 9.49902 20.4658c-0.118164 0.65625 -0.236328 1.32324 -0.350586 1.97656
c-17.8438 101.021 -23.3066 204.51 -19.7598 306.957c1.69824 49.0615 5.50586 98.0439 13.2305 146.549c5.79492 36.3838 12.8809 83.3975 41.6465 109.741c33.7861 30.9395 68.8066 -1.91211 82.6084 -34.2461c16.9951 -39.8096 21.0557 -83.5791 20.6777 -126.489
c-1.15625 -131.103 -29.6436 -261.296 -77.6416 -383.36c2.87988 -15.2246 5.95898 -30.4141 9.42676 -45.5283c14.3184 -62.3809 30.0215 -136.188 80.6562 -180.039c12.9736 -11.2324 11.4287 -33.3154 0 -44.7441zM379.846 395.672
c1.54492 -30.3398 3.96875 -60.6338 7.34375 -90.8164c30.2285 95.4072 47.0303 195.436 46.4307 294.896c-0.213867 35.71 -3.03223 75.4941 -20.5801 107.479c-0.677734 1.24219 -3.66406 5.15625 -4.99512 7.67188c-1.0166 -1.05273 -2.51172 -2.33398 -3.2793 -3.54004
c-4.55664 -7.16797 -7.54297 -15.082 -10.0117 -23.1641c-4.62793 -15.1426 -7.16504 -30.9346 -9.28125 -46.5947c-10.9541 -81.0566 -9.78027 -164.404 -5.62695 -245.932z" />
    <glyph glyph-name="U" unicode="&#xdc;" horiz-adv-x="493" 
d="M491.97 -63.4688c-13.0625 -13.0625 -31.3633 -10.6035 -44.7471 -0.00585938c-50.5674 40.0596 -74.8838 105.035 -90.1123 169.739c-2.33691 -4.68457 -4.70215 -9.35547 -7.09277 -14.0078c-19.5928 -38.0967 -42.4219 -74.6982 -70.2207 -107.396
c-25.1982 -29.6406 -57.9248 -57.9746 -98.6836 -59.8262c-88.6924 -4.02832 -126.429 110.629 -142.742 178.947c-21.0166 88.0176 -25.5264 180.738 -20.4922 270.833c5.23828 93.6846 18.248 190.109 45.3867 280.09c7.76074 25.7227 51.1738 21.9473 48.4727 -6.56152
c-0.367188 -3.88965 -0.738281 -7.7793 -1.10547 -11.6689c-0.142578 -1.48438 -0.399414 -2.87207 -0.716797 -4.20996c-10.1084 -85.9268 -24.3027 -170.904 -27.4287 -257.648c-3.11523 -86.4375 0.310547 -175.18 21.8867 -259.309
c10.0693 -39.2529 39.3779 -152.255 100.635 -122.301c29.7686 14.5576 53.2783 46.4746 71.4473 73.1924c21.2842 31.2959 39.2178 64.7393 55.5205 98.8506c3.24023 6.7793 6.39453 13.6084 9.49902 20.4658c-0.118164 0.65625 -0.236328 1.32324 -0.350586 1.97656
c-17.8438 101.021 -23.3066 204.51 -19.7598 306.957c1.69824 49.0615 5.50586 98.0439 13.2305 146.549c5.79492 36.3838 12.8809 83.3975 41.6465 109.741c33.7861 30.9395 68.8066 -1.91211 82.6084 -34.2461c16.9951 -39.8096 21.0557 -83.5791 20.6777 -126.489
c-1.15625 -131.103 -29.6436 -261.296 -77.6416 -383.36c2.87988 -15.2246 5.95898 -30.4141 9.42676 -45.5283c14.3184 -62.3809 30.0215 -136.188 80.6562 -180.039c12.9736 -11.2324 11.4287 -33.3154 0 -44.7441zM379.846 395.672
c1.54492 -30.3398 3.96875 -60.6338 7.34375 -90.8164c30.2285 95.4072 47.0303 195.436 46.4307 294.896c-0.213867 35.71 -3.03223 75.4941 -20.5801 107.479c-0.677734 1.24219 -3.66406 5.15625 -4.99512 7.67188c-1.0166 -1.05273 -2.51172 -2.33398 -3.2793 -3.54004
c-4.55664 -7.16797 -7.54297 -15.082 -10.0117 -23.1641c-4.62793 -15.1426 -7.16504 -30.9346 -9.28125 -46.5947c-10.9541 -81.0566 -9.78027 -164.404 -5.62695 -245.932z" />
    <glyph glyph-name="U" unicode="&#xdb;" horiz-adv-x="493" 
d="M491.97 -63.4688c-13.0625 -13.0625 -31.3633 -10.6035 -44.7471 -0.00585938c-50.5674 40.0596 -74.8838 105.035 -90.1123 169.739c-2.33691 -4.68457 -4.70215 -9.35547 -7.09277 -14.0078c-19.5928 -38.0967 -42.4219 -74.6982 -70.2207 -107.396
c-25.1982 -29.6406 -57.9248 -57.9746 -98.6836 -59.8262c-88.6924 -4.02832 -126.429 110.629 -142.742 178.947c-21.0166 88.0176 -25.5264 180.738 -20.4922 270.833c5.23828 93.6846 18.248 190.109 45.3867 280.09c7.76074 25.7227 51.1738 21.9473 48.4727 -6.56152
c-0.367188 -3.88965 -0.738281 -7.7793 -1.10547 -11.6689c-0.142578 -1.48438 -0.399414 -2.87207 -0.716797 -4.20996c-10.1084 -85.9268 -24.3027 -170.904 -27.4287 -257.648c-3.11523 -86.4375 0.310547 -175.18 21.8867 -259.309
c10.0693 -39.2529 39.3779 -152.255 100.635 -122.301c29.7686 14.5576 53.2783 46.4746 71.4473 73.1924c21.2842 31.2959 39.2178 64.7393 55.5205 98.8506c3.24023 6.7793 6.39453 13.6084 9.49902 20.4658c-0.118164 0.65625 -0.236328 1.32324 -0.350586 1.97656
c-17.8438 101.021 -23.3066 204.51 -19.7598 306.957c1.69824 49.0615 5.50586 98.0439 13.2305 146.549c5.79492 36.3838 12.8809 83.3975 41.6465 109.741c33.7861 30.9395 68.8066 -1.91211 82.6084 -34.2461c16.9951 -39.8096 21.0557 -83.5791 20.6777 -126.489
c-1.15625 -131.103 -29.6436 -261.296 -77.6416 -383.36c2.87988 -15.2246 5.95898 -30.4141 9.42676 -45.5283c14.3184 -62.3809 30.0215 -136.188 80.6562 -180.039c12.9736 -11.2324 11.4287 -33.3154 0 -44.7441zM379.846 395.672
c1.54492 -30.3398 3.96875 -60.6338 7.34375 -90.8164c30.2285 95.4072 47.0303 195.436 46.4307 294.896c-0.213867 35.71 -3.03223 75.4941 -20.5801 107.479c-0.677734 1.24219 -3.66406 5.15625 -4.99512 7.67188c-1.0166 -1.05273 -2.51172 -2.33398 -3.2793 -3.54004
c-4.55664 -7.16797 -7.54297 -15.082 -10.0117 -23.1641c-4.62793 -15.1426 -7.16504 -30.9346 -9.28125 -46.5947c-10.9541 -81.0566 -9.78027 -164.404 -5.62695 -245.932z" />
    <glyph glyph-name="U" unicode="&#xda;" horiz-adv-x="493" 
d="M491.97 -63.4688c-13.0625 -13.0625 -31.3633 -10.6035 -44.7471 -0.00585938c-50.5674 40.0596 -74.8838 105.035 -90.1123 169.739c-2.33691 -4.68457 -4.70215 -9.35547 -7.09277 -14.0078c-19.5928 -38.0967 -42.4219 -74.6982 -70.2207 -107.396
c-25.1982 -29.6406 -57.9248 -57.9746 -98.6836 -59.8262c-88.6924 -4.02832 -126.429 110.629 -142.742 178.947c-21.0166 88.0176 -25.5264 180.738 -20.4922 270.833c5.23828 93.6846 18.248 190.109 45.3867 280.09c7.76074 25.7227 51.1738 21.9473 48.4727 -6.56152
c-0.367188 -3.88965 -0.738281 -7.7793 -1.10547 -11.6689c-0.142578 -1.48438 -0.399414 -2.87207 -0.716797 -4.20996c-10.1084 -85.9268 -24.3027 -170.904 -27.4287 -257.648c-3.11523 -86.4375 0.310547 -175.18 21.8867 -259.309
c10.0693 -39.2529 39.3779 -152.255 100.635 -122.301c29.7686 14.5576 53.2783 46.4746 71.4473 73.1924c21.2842 31.2959 39.2178 64.7393 55.5205 98.8506c3.24023 6.7793 6.39453 13.6084 9.49902 20.4658c-0.118164 0.65625 -0.236328 1.32324 -0.350586 1.97656
c-17.8438 101.021 -23.3066 204.51 -19.7598 306.957c1.69824 49.0615 5.50586 98.0439 13.2305 146.549c5.79492 36.3838 12.8809 83.3975 41.6465 109.741c33.7861 30.9395 68.8066 -1.91211 82.6084 -34.2461c16.9951 -39.8096 21.0557 -83.5791 20.6777 -126.489
c-1.15625 -131.103 -29.6436 -261.296 -77.6416 -383.36c2.87988 -15.2246 5.95898 -30.4141 9.42676 -45.5283c14.3184 -62.3809 30.0215 -136.188 80.6562 -180.039c12.9736 -11.2324 11.4287 -33.3154 0 -44.7441zM379.846 395.672
c1.54492 -30.3398 3.96875 -60.6338 7.34375 -90.8164c30.2285 95.4072 47.0303 195.436 46.4307 294.896c-0.213867 35.71 -3.03223 75.4941 -20.5801 107.479c-0.677734 1.24219 -3.66406 5.15625 -4.99512 7.67188c-1.0166 -1.05273 -2.51172 -2.33398 -3.2793 -3.54004
c-4.55664 -7.16797 -7.54297 -15.082 -10.0117 -23.1641c-4.62793 -15.1426 -7.16504 -30.9346 -9.28125 -46.5947c-10.9541 -81.0566 -9.78027 -164.404 -5.62695 -245.932z" />
    <glyph glyph-name="V" unicode="V" horiz-adv-x="428" 
d="M408.431 459.233c-8.09277 -81.7949 -23.2373 -162.738 -42.0732 -242.699c-17.9863 -76.332 -38.4492 -152.001 -72.4746 -222.967c-13.6836 -28.5381 -33.9326 -58.7881 -65.792 -68.582c-36.7012 -11.2822 -70.3486 9.8877 -92.5742 37.7832
c-46.4639 58.3242 -64.0293 140.93 -79.5078 212.238c-34.7568 160.129 -45.1006 326.48 -39.6377 489.971c1.03516 30.9785 46.9424 30.8965 48.0596 0c5.59082 -154.627 17.5938 -311.741 51.0664 -463.097c13.0625 -59.084 26.7246 -124.555 56.4326 -177.862
c7.09668 -12.7344 25.2939 -47.1846 44.2012 -39.6416c21.9189 8.74512 34.8779 47.8086 43.1777 67.1797c25.9834 60.6504 42.0859 125.465 57.04 189.548c15.4678 66.2705 28.6201 133.269 36.3203 200.92c7.68945 67.5654 11.2295 136.529 5.58496 204.405
c-2.44434 29.376 -7.60059 60.7715 -21.834 86.9648c-10.1152 18.6182 -28.0381 40.4404 -51.9189 36.2119c-28.5342 -5.05273 -43.3887 -36.2734 -51.042 -60.9893c-8.85645 -28.5947 -12.1279 -59.4482 -6.80469 -89.0635
c9.42383 -52.4229 45.6045 -97.5166 98.1377 -110.786c31.4854 -7.95312 18.0693 -56.458 -13.3975 -48.5977c-73.7559 18.4258 -125.312 84.0107 -135.694 157.87c-10.0156 71.2441 13.0596 182.408 94.7656 202.472c75.7939 18.6113 121.444 -61.0645 134.321 -123.335
c15.9424 -77.0928 11.3398 -160.141 3.64355 -237.943z" />
    <glyph glyph-name="W" unicode="W" horiz-adv-x="650" 
d="M25.7246 387.917c10.4121 57.8457 26.6104 114.507 48.7432 168.96c20.0986 49.4395 43.7656 97.0664 81.6699 135.452c22.9854 23.2822 57.7568 -11.9062 35.7559 -35.7559c-34.4355 -37.3291 -54.6914 -85.6592 -71.5967 -132.922
c-18.6504 -52.1338 -32.834 -105.948 -41.6934 -160.615c-16.0957 -99.3291 -17.8438 -209.451 22.7256 -303.478c13.1592 -30.4961 35.0352 -70.3623 74.1377 -64.6318c8.00293 1.17383 15.5996 3.625 22.8184 7.01465c-12.1816 28.9053 -20.8418 59.0879 -26.3115 87.7109
c-10.6152 55.5342 -11.4072 111.988 -2.44727 167.797c8.00684 49.8711 23.3213 102.747 54.3887 143.402c27.7559 36.3193 76.7031 65.167 118.382 31.9551c39.6777 -31.6172 44.4951 -89.9766 40.542 -136.801c-4.69922 -55.6699 -18.8643 -111.278 -38.375 -163.512
c-18.4082 -49.2822 -40.791 -99.749 -76.5254 -139.123c-0.584961 -0.642578 -1.1875 -1.28125 -1.7832 -1.91992c18.3438 -29.333 42.4893 -54.9414 74.8486 -69.0352c37.875 -16.4951 76.6494 -9.17676 109.708 14.1943c34.5859 24.4521 57.2002 63.3799 75.4648 100.674
c18.7793 38.3467 32.0312 79.3584 40.6016 121.159c17.1055 83.4297 13.2666 171.262 -10.7793 252.925c-22.2256 75.4834 -62.1602 153.75 -133.508 193.063c-34.9746 19.2715 -3.95312 71.6729 31.1787 53.3398c21.8223 -11.3857 42.2031 -26.1045 59.8115 -43.335
c73.4639 -71.8828 109.48 -178.897 122.262 -278.63c13.4199 -104.749 -3.13574 -212.085 -45.5537 -308.609c-41.0439 -93.3984 -119.749 -192.767 -234.203 -172.229c-60.0156 10.7725 -103.949 50.9531 -134.496 101.264
c-27.7246 -15.3643 -59.5986 -22.2432 -90.2021 -11c-47.916 17.6055 -72.415 64.7295 -89.624 109.595c-40.3555 105.227 -35.5742 223.97 -15.9395 333.09zM218.598 276.734c-15.375 -78.7051 -7.60938 -164.53 23.8438 -238.993
c9.79395 11.4678 18.3291 23.8672 25.5439 35.5029c24.7842 39.9736 43.9307 83.4082 58 128.234c14.3936 45.8682 26.2363 96.125 21.6191 144.477c-1.8877 19.7783 -7.39648 42.165 -22.2607 56.4053c-17.7227 16.9766 -39.9805 6.35059 -55.123 -8.28906
c-31.0137 -29.9795 -43.6123 -76.3467 -51.623 -117.337z" />
    <glyph glyph-name="X" unicode="X" horiz-adv-x="505" 
d="M463.271 683.256c26.2432 24.9336 65.8691 -14.54 39.7617 -39.7773c-49.9922 -48.3438 -97.4727 -99.2109 -141.853 -152.765c-72.4287 -87.3975 -136.651 -181.581 -192.393 -280.453c3.81055 -15.9854 7.98535 -31.8916 12.5742 -47.6914
c21.3838 -73.6416 50.8418 -150.527 100.389 -210.161c18.7686 -22.582 48.9795 -57.2852 82.0625 -53.8994c29.0908 2.97559 47.584 34.667 55.7012 59.5723c10.7256 32.8945 15.0107 72.6543 -1.79492 104.3c-14.1973 26.7285 -44.6113 43.7158 -74.2656 33.4004
c-27.3643 -9.51953 -38.6641 33.415 -11.8887 43.1172c42.0254 15.2217 88.8457 -3.91016 115.674 -37.8711c31.7529 -40.1943 33.5371 -96.0605 22.5264 -144.141c-8.58496 -37.501 -27.3428 -75.3906 -59.2598 -98.2197
c-36.1807 -25.8799 -82.1416 -21.8662 -119.628 -0.871094c-41.04 22.9854 -72.5674 64.5107 -96.709 103.896c-25.5479 41.6787 -44.6768 87.4463 -60.6543 133.543c-3.5 10.1084 -6.76465 20.2666 -9.89355 30.4502c-16.1064 -31.8418 -31.4102 -64.083 -45.7393 -96.7881
c-24.0205 -54.8271 -43.2529 -111.311 -64.7861 -167.095c-14.5254 -37.626 -72.9209 -23.4463 -61.6631 16.998c19.0391 68.4072 47.916 134.87 77.4131 199.339c21.7939 47.6338 45.6182 94.3223 71.291 139.979c-33.4971 163.805 -28.5449 334.492 -21.4512 500.862
c1.50586 35.3096 55.5518 35.5703 55.084 0c-1.35254 -102.665 -2.58398 -205.662 4.98047 -308.131c2.66211 -36.0557 6.58301 -72.0439 12.042 -107.789c87.8359 139.031 193.319 266.99 312.479 380.195z" />
    <glyph glyph-name="Y" unicode="Y" horiz-adv-x="560" 
d="M445.739 702.092c29.3652 -34.9531 47.29 -78.4346 60.3281 -121.751c54.6348 -181.556 61 -387.803 -26.4717 -560.231c-39.0244 -76.9287 -101.602 -154.178 -191.571 -169.057c-88.0645 -14.5654 -171.822 39.6055 -187.154 129.39
c-15.1426 88.6748 38.8535 179.337 120.01 215.507c38.2432 17.041 87.2979 22.8389 119.5 -9.84473c28.5596 -28.9834 30.4434 -71.9365 23.0713 -109.641c-7.05762 -36.1123 -61.9424 -20.6982 -55.0488 15.1758c2.84766 14.8037 3.9502 32.9727 -3.60742 46.6631
c-8.39258 15.207 -25.6055 15.4639 -40.7988 11.4678c-37.2764 -9.80469 -69.6465 -39.1738 -87.9189 -72.4424c-18.668 -33.9932 -24.248 -77.3672 -6.88965 -113.056c16.7949 -34.5322 49.0537 -55.3916 87.5713 -55.5625
c80.0967 -0.356445 134.76 71.6982 168.842 135.671c38.2783 71.8477 58.1025 153.172 62.7979 234.179c5.19531 89.6768 -6.11523 179.679 -28.0947 266.591c-10.0586 39.7734 -22.8506 79.2969 -46.1074 113.512c-2.30469 3.39355 -10.2578 16.5273 -13.5049 16.0098
c-5.44531 -0.871094 -7.72168 -14.7578 -8.49219 -18.0508c-4.75293 -20.2422 -7.58203 -41.0518 -11.5537 -61.4648c-16.21 -83.3438 -38.5352 -166.78 -82.7871 -240.076c-37.0264 -61.3252 -102.009 -142.824 -183.037 -131.106
c-85.7305 12.3994 -112.938 106.212 -110.696 180.399c1.33496 44.2012 8.57422 89.2666 23.1289 131.088c13.3809 38.457 30.3545 77.5986 59.2168 107.054c21.0234 21.4551 52.8291 -10.8291 32.7979 -32.7979c-34.4004 -37.7295 -47.6309 -97.3027 -55.0879 -146.403
c-7.01172 -46.168 -11.5645 -106.197 13.3232 -148.083c60.2295 -101.366 160.183 47.0273 187.226 100.734c20.9766 41.6572 35.5732 86.1445 47.6084 131.109c6.44043 24.0664 12.1855 48.3047 17.5625 72.6289c4.97363 22.5039 7.66797 47.1064 17.2021 68.2334
c19.3389 42.8604 68.3184 50.2432 98.6367 14.1553z" />
    <glyph glyph-name="Y" unicode="&#x178;" horiz-adv-x="560" 
d="M445.739 702.092c29.3652 -34.9531 47.29 -78.4346 60.3281 -121.751c54.6348 -181.556 61 -387.803 -26.4717 -560.231c-39.0244 -76.9287 -101.602 -154.178 -191.571 -169.057c-88.0645 -14.5654 -171.822 39.6055 -187.154 129.39
c-15.1426 88.6748 38.8535 179.337 120.01 215.507c38.2432 17.041 87.2979 22.8389 119.5 -9.84473c28.5596 -28.9834 30.4434 -71.9365 23.0713 -109.641c-7.05762 -36.1123 -61.9424 -20.6982 -55.0488 15.1758c2.84766 14.8037 3.9502 32.9727 -3.60742 46.6631
c-8.39258 15.207 -25.6055 15.4639 -40.7988 11.4678c-37.2764 -9.80469 -69.6465 -39.1738 -87.9189 -72.4424c-18.668 -33.9932 -24.248 -77.3672 -6.88965 -113.056c16.7949 -34.5322 49.0537 -55.3916 87.5713 -55.5625
c80.0967 -0.356445 134.76 71.6982 168.842 135.671c38.2783 71.8477 58.1025 153.172 62.7979 234.179c5.19531 89.6768 -6.11523 179.679 -28.0947 266.591c-10.0586 39.7734 -22.8506 79.2969 -46.1074 113.512c-2.30469 3.39355 -10.2578 16.5273 -13.5049 16.0098
c-5.44531 -0.871094 -7.72168 -14.7578 -8.49219 -18.0508c-4.75293 -20.2422 -7.58203 -41.0518 -11.5537 -61.4648c-16.21 -83.3438 -38.5352 -166.78 -82.7871 -240.076c-37.0264 -61.3252 -102.009 -142.824 -183.037 -131.106
c-85.7305 12.3994 -112.938 106.212 -110.696 180.399c1.33496 44.2012 8.57422 89.2666 23.1289 131.088c13.3809 38.457 30.3545 77.5986 59.2168 107.054c21.0234 21.4551 52.8291 -10.8291 32.7979 -32.7979c-34.4004 -37.7295 -47.6309 -97.3027 -55.0879 -146.403
c-7.01172 -46.168 -11.5645 -106.197 13.3232 -148.083c60.2295 -101.366 160.183 47.0273 187.226 100.734c20.9766 41.6572 35.5732 86.1445 47.6084 131.109c6.44043 24.0664 12.1855 48.3047 17.5625 72.6289c4.97363 22.5039 7.66797 47.1064 17.2021 68.2334
c19.3389 42.8604 68.3184 50.2432 98.6367 14.1553z" />
    <glyph glyph-name="Y" unicode="&#xdd;" horiz-adv-x="560" 
d="M445.739 702.092c29.3652 -34.9531 47.29 -78.4346 60.3281 -121.751c54.6348 -181.556 61 -387.803 -26.4717 -560.231c-39.0244 -76.9287 -101.602 -154.178 -191.571 -169.057c-88.0645 -14.5654 -171.822 39.6055 -187.154 129.39
c-15.1426 88.6748 38.8535 179.337 120.01 215.507c38.2432 17.041 87.2979 22.8389 119.5 -9.84473c28.5596 -28.9834 30.4434 -71.9365 23.0713 -109.641c-7.05762 -36.1123 -61.9424 -20.6982 -55.0488 15.1758c2.84766 14.8037 3.9502 32.9727 -3.60742 46.6631
c-8.39258 15.207 -25.6055 15.4639 -40.7988 11.4678c-37.2764 -9.80469 -69.6465 -39.1738 -87.9189 -72.4424c-18.668 -33.9932 -24.248 -77.3672 -6.88965 -113.056c16.7949 -34.5322 49.0537 -55.3916 87.5713 -55.5625
c80.0967 -0.356445 134.76 71.6982 168.842 135.671c38.2783 71.8477 58.1025 153.172 62.7979 234.179c5.19531 89.6768 -6.11523 179.679 -28.0947 266.591c-10.0586 39.7734 -22.8506 79.2969 -46.1074 113.512c-2.30469 3.39355 -10.2578 16.5273 -13.5049 16.0098
c-5.44531 -0.871094 -7.72168 -14.7578 -8.49219 -18.0508c-4.75293 -20.2422 -7.58203 -41.0518 -11.5537 -61.4648c-16.21 -83.3438 -38.5352 -166.78 -82.7871 -240.076c-37.0264 -61.3252 -102.009 -142.824 -183.037 -131.106
c-85.7305 12.3994 -112.938 106.212 -110.696 180.399c1.33496 44.2012 8.57422 89.2666 23.1289 131.088c13.3809 38.457 30.3545 77.5986 59.2168 107.054c21.0234 21.4551 52.8291 -10.8291 32.7979 -32.7979c-34.4004 -37.7295 -47.6309 -97.3027 -55.0879 -146.403
c-7.01172 -46.168 -11.5645 -106.197 13.3232 -148.083c60.2295 -101.366 160.183 47.0273 187.226 100.734c20.9766 41.6572 35.5732 86.1445 47.6084 131.109c6.44043 24.0664 12.1855 48.3047 17.5625 72.6289c4.97363 22.5039 7.66797 47.1064 17.2021 68.2334
c19.3389 42.8604 68.3184 50.2432 98.6367 14.1553z" />
    <glyph glyph-name="Z" unicode="Z" horiz-adv-x="554" 
d="M362.232 177.271c69.0928 -29.8369 105.688 -101.698 102.244 -175.194c-1.56641 -33.4043 -53.5068 -33.5254 -52.0723 0.000976562c1.32031 30.8672 -4.62793 61.6133 -21.2158 88.0352c-16.6484 26.5146 -43.209 42.0361 -72.5674 50.4355
c-32.5879 -31.7744 -67.2451 -61.0684 -102.576 -87.626c-32.8193 -24.6699 -67.9619 -46.4785 -105.641 -62.9385c-32.6982 -14.2832 -77.9951 -22.2861 -100.053 14.3799c-20.1094 33.4297 5.13184 74.6416 26.5723 100.828
c23.2715 28.4238 55.2061 49.8643 88.5781 64.6611c51.2129 22.7041 110.604 32.998 167.201 25.9834c31.5459 34.0645 61.1719 70.6982 86.498 109.858c-7.56445 -1.6416 -15.1182 -3.34766 -22.6436 -5.20312c-16.8945 -4.16406 -35.8193 -11.832 -53.2705 -10.1123
c-14.4512 1.41992 -24.1738 18.5107 -12.4385 30.0254c14.5254 14.251 37.3613 20.1025 56.4219 26.168c18.8184 5.99121 37.8867 11.3008 57.1758 15.5508c2.64355 0.584961 5.30176 1.12012 7.95312 1.68066c16.1172 32.4951 28.9092 66.5205 37.1797 102.076
c11.457 49.251 20.834 118.736 -27.6924 151.685c-50.0752 34 -114.851 15.0889 -164.348 -9.86621c-54.2959 -27.374 -102.404 -64.6611 -142.096 -110.758c-18.6719 -21.6865 -36.9727 -45.3467 -44.4014 -73.4385c-5.91602 -22.3682 -2.77637 -50.5771 18.0439 -64.0859
c23.7783 -15.4287 3.02637 -50.6885 -22.1465 -37.8857c-33.7617 17.1729 -53.4502 55.9082 -52.126 93.1699c1.57715 44.4404 27 83.0654 54.0674 116.523c54.6025 67.4941 129.29 122.903 211.631 151.345c71.9971 24.8701 161.143 17.5088 209.594 -47.7627
c46.6602 -62.8555 30.5039 -154.638 7.64648 -223.599c-4.00293 -12.0713 -8.49121 -23.9678 -13.3506 -35.7178c14.7686 1.59863 29.5801 2.69434 44.3984 3.12207c34.6494 0.999023 33.9785 -51.1953 -0.000976562 -53.4111
c-23.8916 -1.55566 -47.7197 -3.3252 -71.4404 -6.11523c-27.4062 -50.0713 -62.0244 -96.6846 -100.909 -139.427c1.93359 -0.774414 3.86719 -1.55957 5.7832 -2.3877zM112.174 47.8379c49.6182 26.8281 93.8066 62.2891 134.465 101.182
c-48.5908 -1.5166 -97.1816 -16.8525 -136.991 -43.6885c-22.3936 -15.0967 -43.627 -36.1025 -53.8496 -61.5713c-2.0127 -5.0166 -5.1416 -10.9258 -1.12402 -14.5117c4.25 -3.78906 12.8994 -1.11328 17.4414 0.196289c14.0225 4.0459 27.2705 11.4785 40.0586 18.3936z
" />
    <glyph glyph-name="bracketleft" unicode="[" horiz-adv-x="144" 
d="M232.54 -146.348c35.7842 21.1445 66.2676 -32.6201 32.2744 -55.2129c-37.1973 -24.7305 -85.9229 -21.4336 -123.845 0.0498047c-38.2002 21.6406 -61.6963 60.4297 -77.0352 100.296c-31.335 81.4492 -35.6309 173.082 -35.9053 259.401
c-0.285156 89.0781 1.72754 178.359 4.13574 267.401c2.47949 91.6855 7.64258 184.724 25.5576 274.872c7.21484 36.3057 20.417 75.4473 53.4609 96.1748c29.2617 18.3574 63.1553 14.8682 89.0986 -7.05469c16.5029 -13.9473 -6.96484 -36.0049 -23.3389 -23.3379
c-11.457 8.86328 -32.2021 -0.75293 -41.8291 -8.5459c-12.5879 -10.1904 -18.3721 -27.25 -22.165 -42.3926c-9.71973 -38.7998 -12.0713 -80.4004 -15.0332 -120.163c-5.65918 -76.0078 -6.02637 -152.372 -5.76953 -228.555
c0.25293 -76.1504 -1.10254 -152.451 0.774414 -228.576c1.74805 -70.9805 7.72852 -143.527 31.1357 -211.068c14.165 -40.8838 57.4707 -103.429 108.483 -73.2891z" />
    <glyph glyph-name="backslash" unicode="\" horiz-adv-x="456" 
d="M405.315 -149.619c7.87793 -41.2686 -53.7598 -59.1992 -63.6006 -17.5312c-16.417 69.5176 -31.4707 139.285 -49.3643 208.456c-62.5234 241.696 -144.115 478.579 -240.629 708.768c-10.9756 26.1758 33.7002 44.4482 45.5996 19.2256
c30.5283 -64.7109 59.4297 -130.089 86.5254 -196.31c47.7773 -116.752 90.334 -235.741 127.035 -356.439c36.5693 -120.277 70.8447 -242.609 94.4336 -366.169z" />
    <glyph glyph-name="bracketright" unicode="]" horiz-adv-x="349" 
d="M257.684 694.309c55.9053 -167.715 69.3301 -349.836 61.8193 -525.497c-3.73535 -87.3975 -11.6211 -175.837 -34.2861 -260.583c-18.0723 -67.583 -48.6191 -161.574 -127.674 -177.342c-40.0234 -7.98145 -56.1475 48.7832 -16.9131 61.3398
c29.8398 9.54492 46.5488 37.9502 58.416 65.1387c16.167 37.0371 26.208 77.5996 34.2754 117.077c15.3105 74.9053 20.4844 151.752 22.8213 228.049c2.40527 78.5195 0.357422 157.386 -7.375 235.581c-7.6748 77.6172 -21.7227 154.57 -41.6182 229.982
c-6.97168 26.4287 -14.3936 59.2588 -39.3672 74.6123c-27.3213 16.7988 -65.1113 6.06641 -94.127 0.107422c-24.9229 -5.12012 -32.9941 28.0918 -10.2832 37.3086c39.8271 16.1602 87.001 28.584 127.756 8.05273c36.5342 -18.4043 54.2529 -56.915 66.5557 -93.8271z
" />
    <glyph glyph-name="asciicircum" unicode="^" horiz-adv-x="240" 
d="M217.174 594.263c3.30762 -36.8623 0.768555 -75.9971 -0.330078 -112.966c-1.13477 -38.0254 -58.4385 -38.0713 -59.0986 0c-0.467773 26.832 0.125 53.7002 0.317383 80.5322c0.0498047 6.71191 0.170898 13.4268 0.196289 20.1348
c0 0.0390625 -0.263672 5.2168 -0.55957 9.75586c-0.692383 -0.399414 -1.41309 -0.727539 -2.08008 -1.18457c-4.14941 -2.2832 -8.07812 -5.10938 -11.7568 -8.06348c-37.5146 -30.1221 -63.1982 -76.543 -84.96 -118.536
c-11.8213 -22.8184 -50.3672 -6.69043 -41.625 17.5479c12.6562 35.085 29.9648 68.7031 51.7412 99.0244c19.2539 26.8105 43.0244 56.4258 75.0693 68.2217c39.8379 14.6689 69.6641 -16.3633 73.0859 -54.4668z" />
    <glyph glyph-name="underscore" unicode="_" horiz-adv-x="340" 
d="M296.375 44.0498c37.2256 -0.457031 37.1553 -57.2432 0.000976562 -57.7568c-85.335 -1.18457 -170.816 2.4834 -255.834 9.70215c-33.5723 2.85059 -34.5361 54.1777 0 53.0752c85.2705 -2.72266 170.53 -3.97461 255.833 -5.02051z" />
    <glyph glyph-name="grave" unicode="`" horiz-adv-x="130" 
d="M109.949 574.513c14.7861 -30.5859 -30.041 -57.4766 -45.9727 -26.8691c-18.4717 35.4736 -40.626 76.585 -45.7676 116.551c-3.29004 25.5615 33.0762 29.9717 44.7764 12.1279c10.0479 -15.3252 15.6533 -34.168 23.0576 -50.9238
c7.5752 -17.1416 15.75 -34.0156 23.9062 -50.8857z" />
    <glyph glyph-name="a" unicode="a" horiz-adv-x="414" 
d="M394.004 190.327c6.62207 -71.1299 5.23145 -142.836 0.389648 -214.023c-2.6123 -38.3711 -54.9775 -37.3223 -58.8779 0c-1.98047 18.9248 -2.97559 42.4961 -6.13379 66.1064c-74.2236 -12.167 -146.98 -33.3828 -221.486 -42.96
c-28.748 -3.69629 -64.3291 -6.13379 -87.4971 15.0146c-26.1396 23.8633 -17.3047 59.2373 0.646484 85.334c35.2637 51.2734 95.6611 82.915 154.153 99.9668c57.835 16.8594 123.83 11.8467 165.784 -33.4648c-2.04785 53.0537 -4.18555 112.441 -28.085 160.407
c-11.7529 23.585 -28.7764 40.2832 -55.7266 43.9688c-25.0557 3.42578 -50.582 -4.60645 -72.833 -15.4893c-43.1279 -21.0947 -86.7832 -50 -110.375 -92.9746c-14.2402 -25.9365 -53.6787 -2.80078 -39.6201 23.1572c28.1484 51.9697 81.6553 90.002 134.545 114.087
c54.3779 24.7627 123.289 29.7012 166.449 -19.1963c44.6045 -50.5312 52.6758 -125.597 58.667 -189.934zM125.684 62.2451c63.0879 12.1641 125.414 28.6914 189.141 37.2266c-6.78613 15.2148 -16.2559 28.292 -29.7646 37.2832
c-48.4014 32.2129 -120.195 1.59473 -164.322 -25.1201c-12.752 -7.72168 -24.5127 -16.4707 -35.0811 -27.0176c-3.87109 -3.86426 -7.87793 -7.95312 -11.2422 -12.2812c-2.73633 -3.51855 -5.10938 -10.2549 -8.07129 -14.3193
c4.83496 0.0566406 12.1924 -1.4707 15.6855 -1.37793c14.7861 0.385742 29.1689 2.8125 43.6553 5.60645z" />
    <glyph glyph-name="a" unicode="&#xe5;" horiz-adv-x="414" 
d="M394.004 190.327c6.62207 -71.1299 5.23145 -142.836 0.389648 -214.023c-2.6123 -38.3711 -54.9775 -37.3223 -58.8779 0c-1.98047 18.9248 -2.97559 42.4961 -6.13379 66.1064c-74.2236 -12.167 -146.98 -33.3828 -221.486 -42.96
c-28.748 -3.69629 -64.3291 -6.13379 -87.4971 15.0146c-26.1396 23.8633 -17.3047 59.2373 0.646484 85.334c35.2637 51.2734 95.6611 82.915 154.153 99.9668c57.835 16.8594 123.83 11.8467 165.784 -33.4648c-2.04785 53.0537 -4.18555 112.441 -28.085 160.407
c-11.7529 23.585 -28.7764 40.2832 -55.7266 43.9688c-25.0557 3.42578 -50.582 -4.60645 -72.833 -15.4893c-43.1279 -21.0947 -86.7832 -50 -110.375 -92.9746c-14.2402 -25.9365 -53.6787 -2.80078 -39.6201 23.1572c28.1484 51.9697 81.6553 90.002 134.545 114.087
c54.3779 24.7627 123.289 29.7012 166.449 -19.1963c44.6045 -50.5312 52.6758 -125.597 58.667 -189.934zM125.684 62.2451c63.0879 12.1641 125.414 28.6914 189.141 37.2266c-6.78613 15.2148 -16.2559 28.292 -29.7646 37.2832
c-48.4014 32.2129 -120.195 1.59473 -164.322 -25.1201c-12.752 -7.72168 -24.5127 -16.4707 -35.0811 -27.0176c-3.87109 -3.86426 -7.87793 -7.95312 -11.2422 -12.2812c-2.73633 -3.51855 -5.10938 -10.2549 -8.07129 -14.3193
c4.83496 0.0566406 12.1924 -1.4707 15.6855 -1.37793c14.7861 0.385742 29.1689 2.8125 43.6553 5.60645z" />
    <glyph glyph-name="a" unicode="&#xe4;" horiz-adv-x="414" 
d="M394.004 190.327c6.62207 -71.1299 5.23145 -142.836 0.389648 -214.023c-2.6123 -38.3711 -54.9775 -37.3223 -58.8779 0c-1.98047 18.9248 -2.97559 42.4961 -6.13379 66.1064c-74.2236 -12.167 -146.98 -33.3828 -221.486 -42.96
c-28.748 -3.69629 -64.3291 -6.13379 -87.4971 15.0146c-26.1396 23.8633 -17.3047 59.2373 0.646484 85.334c35.2637 51.2734 95.6611 82.915 154.153 99.9668c57.835 16.8594 123.83 11.8467 165.784 -33.4648c-2.04785 53.0537 -4.18555 112.441 -28.085 160.407
c-11.7529 23.585 -28.7764 40.2832 -55.7266 43.9688c-25.0557 3.42578 -50.582 -4.60645 -72.833 -15.4893c-43.1279 -21.0947 -86.7832 -50 -110.375 -92.9746c-14.2402 -25.9365 -53.6787 -2.80078 -39.6201 23.1572c28.1484 51.9697 81.6553 90.002 134.545 114.087
c54.3779 24.7627 123.289 29.7012 166.449 -19.1963c44.6045 -50.5312 52.6758 -125.597 58.667 -189.934zM125.684 62.2451c63.0879 12.1641 125.414 28.6914 189.141 37.2266c-6.78613 15.2148 -16.2559 28.292 -29.7646 37.2832
c-48.4014 32.2129 -120.195 1.59473 -164.322 -25.1201c-12.752 -7.72168 -24.5127 -16.4707 -35.0811 -27.0176c-3.87109 -3.86426 -7.87793 -7.95312 -11.2422 -12.2812c-2.73633 -3.51855 -5.10938 -10.2549 -8.07129 -14.3193
c4.83496 0.0566406 12.1924 -1.4707 15.6855 -1.37793c14.7861 0.385742 29.1689 2.8125 43.6553 5.60645z" />
    <glyph glyph-name="a" unicode="&#xe3;" horiz-adv-x="414" 
d="M394.004 190.327c6.62207 -71.1299 5.23145 -142.836 0.389648 -214.023c-2.6123 -38.3711 -54.9775 -37.3223 -58.8779 0c-1.98047 18.9248 -2.97559 42.4961 -6.13379 66.1064c-74.2236 -12.167 -146.98 -33.3828 -221.486 -42.96
c-28.748 -3.69629 -64.3291 -6.13379 -87.4971 15.0146c-26.1396 23.8633 -17.3047 59.2373 0.646484 85.334c35.2637 51.2734 95.6611 82.915 154.153 99.9668c57.835 16.8594 123.83 11.8467 165.784 -33.4648c-2.04785 53.0537 -4.18555 112.441 -28.085 160.407
c-11.7529 23.585 -28.7764 40.2832 -55.7266 43.9688c-25.0557 3.42578 -50.582 -4.60645 -72.833 -15.4893c-43.1279 -21.0947 -86.7832 -50 -110.375 -92.9746c-14.2402 -25.9365 -53.6787 -2.80078 -39.6201 23.1572c28.1484 51.9697 81.6553 90.002 134.545 114.087
c54.3779 24.7627 123.289 29.7012 166.449 -19.1963c44.6045 -50.5312 52.6758 -125.597 58.667 -189.934zM125.684 62.2451c63.0879 12.1641 125.414 28.6914 189.141 37.2266c-6.78613 15.2148 -16.2559 28.292 -29.7646 37.2832
c-48.4014 32.2129 -120.195 1.59473 -164.322 -25.1201c-12.752 -7.72168 -24.5127 -16.4707 -35.0811 -27.0176c-3.87109 -3.86426 -7.87793 -7.95312 -11.2422 -12.2812c-2.73633 -3.51855 -5.10938 -10.2549 -8.07129 -14.3193
c4.83496 0.0566406 12.1924 -1.4707 15.6855 -1.37793c14.7861 0.385742 29.1689 2.8125 43.6553 5.60645z" />
    <glyph glyph-name="a" unicode="&#xe2;" horiz-adv-x="414" 
d="M394.004 190.327c6.62207 -71.1299 5.23145 -142.836 0.389648 -214.023c-2.6123 -38.3711 -54.9775 -37.3223 -58.8779 0c-1.98047 18.9248 -2.97559 42.4961 -6.13379 66.1064c-74.2236 -12.167 -146.98 -33.3828 -221.486 -42.96
c-28.748 -3.69629 -64.3291 -6.13379 -87.4971 15.0146c-26.1396 23.8633 -17.3047 59.2373 0.646484 85.334c35.2637 51.2734 95.6611 82.915 154.153 99.9668c57.835 16.8594 123.83 11.8467 165.784 -33.4648c-2.04785 53.0537 -4.18555 112.441 -28.085 160.407
c-11.7529 23.585 -28.7764 40.2832 -55.7266 43.9688c-25.0557 3.42578 -50.582 -4.60645 -72.833 -15.4893c-43.1279 -21.0947 -86.7832 -50 -110.375 -92.9746c-14.2402 -25.9365 -53.6787 -2.80078 -39.6201 23.1572c28.1484 51.9697 81.6553 90.002 134.545 114.087
c54.3779 24.7627 123.289 29.7012 166.449 -19.1963c44.6045 -50.5312 52.6758 -125.597 58.667 -189.934zM125.684 62.2451c63.0879 12.1641 125.414 28.6914 189.141 37.2266c-6.78613 15.2148 -16.2559 28.292 -29.7646 37.2832
c-48.4014 32.2129 -120.195 1.59473 -164.322 -25.1201c-12.752 -7.72168 -24.5127 -16.4707 -35.0811 -27.0176c-3.87109 -3.86426 -7.87793 -7.95312 -11.2422 -12.2812c-2.73633 -3.51855 -5.10938 -10.2549 -8.07129 -14.3193
c4.83496 0.0566406 12.1924 -1.4707 15.6855 -1.37793c14.7861 0.385742 29.1689 2.8125 43.6553 5.60645z" />
    <glyph glyph-name="a" unicode="&#xe1;" horiz-adv-x="414" 
d="M394.004 190.327c6.62207 -71.1299 5.23145 -142.836 0.389648 -214.023c-2.6123 -38.3711 -54.9775 -37.3223 -58.8779 0c-1.98047 18.9248 -2.97559 42.4961 -6.13379 66.1064c-74.2236 -12.167 -146.98 -33.3828 -221.486 -42.96
c-28.748 -3.69629 -64.3291 -6.13379 -87.4971 15.0146c-26.1396 23.8633 -17.3047 59.2373 0.646484 85.334c35.2637 51.2734 95.6611 82.915 154.153 99.9668c57.835 16.8594 123.83 11.8467 165.784 -33.4648c-2.04785 53.0537 -4.18555 112.441 -28.085 160.407
c-11.7529 23.585 -28.7764 40.2832 -55.7266 43.9688c-25.0557 3.42578 -50.582 -4.60645 -72.833 -15.4893c-43.1279 -21.0947 -86.7832 -50 -110.375 -92.9746c-14.2402 -25.9365 -53.6787 -2.80078 -39.6201 23.1572c28.1484 51.9697 81.6553 90.002 134.545 114.087
c54.3779 24.7627 123.289 29.7012 166.449 -19.1963c44.6045 -50.5312 52.6758 -125.597 58.667 -189.934zM125.684 62.2451c63.0879 12.1641 125.414 28.6914 189.141 37.2266c-6.78613 15.2148 -16.2559 28.292 -29.7646 37.2832
c-48.4014 32.2129 -120.195 1.59473 -164.322 -25.1201c-12.752 -7.72168 -24.5127 -16.4707 -35.0811 -27.0176c-3.87109 -3.86426 -7.87793 -7.95312 -11.2422 -12.2812c-2.73633 -3.51855 -5.10938 -10.2549 -8.07129 -14.3193
c4.83496 0.0566406 12.1924 -1.4707 15.6855 -1.37793c14.7861 0.385742 29.1689 2.8125 43.6553 5.60645z" />
    <glyph glyph-name="b" unicode="b" horiz-adv-x="365" 
d="M354.587 184.065c19.917 -73.6602 -25.0938 -154.973 -78.7793 -202.999c-50.5635 -45.2402 -126.09 -80.1152 -194.783 -60.8975c-35.1777 9.84473 -63.291 36.042 -74.4092 70.9951c-12.5244 39.3633 1.87988 79.2441 25.915 110.868
c4.40625 5.79785 9.09473 11.3428 14.0146 16.6445c-1.05957 10.6045 -1.90137 21.2051 -2.56836 31.7383c-4.1748 65.8994 -1.50586 137.062 25.3799 198.318c23.7705 54.1533 72.5684 102.79 133.022 111.429c28.7305 4.10352 61.3359 -2.50488 80.4395 -26.1113
c17.6406 -21.7979 14.2686 -51.7559 2.44434 -75.3799c-13.334 -26.6426 -35.9951 -48.9072 -61.9248 -66.791c59.6514 -11.418 114.183 -44.6943 131.249 -107.814zM268.044 33.7891c36.4658 41.9717 67.6094 110.326 35.3506 162.831
c-33.4258 54.4062 -102.504 62.0811 -160.311 56.6045c-24.6914 -2.33691 -26.3398 33.7617 -5.52734 40.8408c26.2256 8.91699 51.0342 21.9365 72.9277 38.9883c17.4336 13.5801 50.5527 38.2998 47.541 63.3975c-3.80762 31.7314 -52.8652 12.7246 -68.7822 2.50586
c-19.9238 -12.792 -34.9023 -31.2178 -46.3633 -51.6738c-28.1777 -50.2891 -33.6758 -107.09 -33.2764 -163.787c0.0390625 -5.65527 0.146484 -11.3105 0.286133 -16.9658c34.875 17.9229 74.2344 27.1143 113.947 25.8545
c27.7773 -0.880859 27.8164 -44.0547 -0.000976562 -43.2051c-38.8711 1.18848 -78.4629 -9.6123 -111.3 -30.6748c0.75293 -8.43164 1.64844 -16.8486 2.75098 -25.248c3.18652 -24.2812 9.2168 -48.4912 12.8496 -72.7539
c10.2549 -9.20605 13.8262 -27.0039 2.27246 -37.4512c-14.126 -12.7705 -33.2295 -13.4873 -46.9775 0.841797c-11.9141 12.4209 -16.6348 34.1221 -21.3906 50.2637c-2.39746 8.14258 -4.44238 16.4102 -6.27246 24.7412
c-12.4385 -23.5312 -15.71 -50.2812 1.19922 -73.5527c16.3066 -22.4434 44.5771 -28.6484 70.8848 -27.293c54.0566 2.79004 105.502 35.8096 140.191 75.7363z" />
    <glyph glyph-name="c" unicode="c" horiz-adv-x="332" 
d="M292.81 184.333c8.44922 15.6787 33.4785 8.39648 33.2432 -9.00488c-1.03125 -76.3936 -54.8848 -157.09 -126.564 -186.434c-65.9131 -26.9824 -138.931 8.46289 -169.185 70.8477c-30.2432 62.3672 -25.6543 139.963 -2.68652 203.899
c22.0898 61.4893 63.2305 124.177 125.177 150.987c32.3486 14.001 66.7236 14.6543 94.2656 -9.61621c27.2891 -24.0459 34.9424 -60.416 40.0947 -94.7305c3.96387 -26.4072 -36.5625 -37.4326 -40.2129 -11.0859c-3.81836 27.5527 -7.31836 66.5381 -35.335 81.1035
c-26.0361 13.5371 -60.9141 -10.626 -79.7285 -27.7246c-39.1992 -35.624 -63.8545 -86.2979 -74.3809 -137.703c-9.97656 -48.708 -8.65625 -108.916 27.5352 -147.248c35.3809 -37.4756 81.8984 -36.0771 120.677 -4.41699
c39.1562 31.9697 63.5586 77.4385 87.1006 121.126z" />
    <glyph glyph-name="d" unicode="d" horiz-adv-x="417" 
d="M402.289 289.456c18.4971 -110.583 -21.4072 -229.573 -107.152 -303.13c-46.9951 -40.3164 -105.676 -67.3408 -168.061 -70.042c-27.2422 -1.17773 -56.9326 3.10352 -79.9688 18.6709c-25.8184 17.4512 -39.5518 45.9785 -44.0186 76.1758
c-11.4219 77.2139 25.1436 148.665 81.3379 199.5c-3.01465 70.9268 -6.34375 152.297 47.6348 206.703c44.9941 45.3506 114.501 45.4717 169.354 18.9395c57.668 -27.8955 90.5869 -85.3242 100.874 -146.817zM61.8545 -15.707
c13.1416 -17.8799 35.3721 -23.4102 58.8398 -22.8682c-0.706055 1.34473 -1.32324 2.77148 -1.80176 4.30566c-18.0791 58.042 -26.2783 118.311 -30.7559 178.872c-1.20215 -1.59863 -2.42578 -3.18262 -3.58203 -4.81641
c-28.1133 -39.709 -55.6982 -110.61 -22.7002 -155.493zM303.927 63.7227c52.9111 72.0254 74.8623 174.225 40.6875 258.999c-18.1758 45.083 -61.5107 80.9316 -111.764 79.9004c-48.3584 -0.992188 -71.2119 -45.3545 -79.1514 -87.4648
c-3.62891 -19.2568 -3.76074 -39.1631 -3.3291 -58.8916c16.417 8.4707 33.4121 15.3789 50.5674 20.4746c29.8574 8.86719 42.5244 -37.7393 12.8203 -46.5029c-21.708 -6.4043 -42.6025 -15.7598 -61.8633 -27.7129c0.65625 -18.1543 1.50879 -36.3018 2.69336 -54.4346
c3.82129 -58.4951 10.8936 -116.94 17.5801 -175.146c0.103516 -0.90625 0.15332 -1.78418 0.174805 -2.64453c6.69336 1.97656 12.916 4.09961 18.4004 6.16211c44.8584 16.874 84.8887 48.7441 113.184 87.2617z" />
    <glyph glyph-name="e" unicode="e" horiz-adv-x="319" 
d="M281.574 156.526c27.8457 -12.3281 39.2725 -44.5986 34.9336 -73.1895c-8.40625 -55.3916 -63.9297 -100.938 -115.118 -115.882c-57.875 -16.8945 -121.045 0.325195 -156.926 49.957c-33.7969 46.749 -25.6611 110.411 6.29102 155.848
c9.9082 14.0908 21.2832 25.8945 33.6611 36.1992c-18.7578 6.50488 -35.874 17.291 -49.8506 33.8398c-44.4619 52.6406 -19.3496 124.424 20.3916 171.665c34.1465 40.5947 101.02 80.6436 155.726 62.6035c66.2812 -21.8545 42.4785 -106.283 5.18457 -143.912
c-19.5244 -19.6963 -46.2246 9.10938 -29.7256 29.7256c11.5283 14.4004 24.0918 35.998 21.8691 55.3018c-2.23047 19.3711 -29.084 10.4619 -40.752 5.84863c-29.3652 -11.6143 -55.833 -33.29 -72.6533 -60.0361c-15.9854 -25.4189 -33.0195 -64.0469 -3.73242 -86.1904
c31.5703 -23.8701 75.6758 -11.3174 110.979 -5.63672c38.375 6.17285 54.1641 -46.2031 16.249 -58.9375c-41.3721 -13.8975 -88.6816 -34.8311 -115.546 -70.7441c-24.5947 -32.877 -30.3965 -78.873 4.22168 -107.019c36.0234 -29.291 87.5752 -19.8467 123.431 4.3877
c17.2021 11.6289 35.417 29.2158 41.8643 49.4971c3.04688 9.58398 3.2998 22.2432 -4.57812 29.7969c-5.67676 5.44531 -16.5098 7.11523 -21.4619 -0.238281c-11.543 -17.1338 -38.2393 -1.9873 -27.9199 16.3203c12.4316 22.0547 40.3379 31.0322 63.4629 20.7949z" />
    <glyph glyph-name="e" unicode="&#xeb;" horiz-adv-x="319" 
d="M281.574 156.526c27.8457 -12.3281 39.2725 -44.5986 34.9336 -73.1895c-8.40625 -55.3916 -63.9297 -100.938 -115.118 -115.882c-57.875 -16.8945 -121.045 0.325195 -156.926 49.957c-33.7969 46.749 -25.6611 110.411 6.29102 155.848
c9.9082 14.0908 21.2832 25.8945 33.6611 36.1992c-18.7578 6.50488 -35.874 17.291 -49.8506 33.8398c-44.4619 52.6406 -19.3496 124.424 20.3916 171.665c34.1465 40.5947 101.02 80.6436 155.726 62.6035c66.2812 -21.8545 42.4785 -106.283 5.18457 -143.912
c-19.5244 -19.6963 -46.2246 9.10938 -29.7256 29.7256c11.5283 14.4004 24.0918 35.998 21.8691 55.3018c-2.23047 19.3711 -29.084 10.4619 -40.752 5.84863c-29.3652 -11.6143 -55.833 -33.29 -72.6533 -60.0361c-15.9854 -25.4189 -33.0195 -64.0469 -3.73242 -86.1904
c31.5703 -23.8701 75.6758 -11.3174 110.979 -5.63672c38.375 6.17285 54.1641 -46.2031 16.249 -58.9375c-41.3721 -13.8975 -88.6816 -34.8311 -115.546 -70.7441c-24.5947 -32.877 -30.3965 -78.873 4.22168 -107.019c36.0234 -29.291 87.5752 -19.8467 123.431 4.3877
c17.2021 11.6289 35.417 29.2158 41.8643 49.4971c3.04688 9.58398 3.2998 22.2432 -4.57812 29.7969c-5.67676 5.44531 -16.5098 7.11523 -21.4619 -0.238281c-11.543 -17.1338 -38.2393 -1.9873 -27.9199 16.3203c12.4316 22.0547 40.3379 31.0322 63.4629 20.7949z" />
    <glyph glyph-name="e" unicode="&#xea;" horiz-adv-x="319" 
d="M281.574 156.526c27.8457 -12.3281 39.2725 -44.5986 34.9336 -73.1895c-8.40625 -55.3916 -63.9297 -100.938 -115.118 -115.882c-57.875 -16.8945 -121.045 0.325195 -156.926 49.957c-33.7969 46.749 -25.6611 110.411 6.29102 155.848
c9.9082 14.0908 21.2832 25.8945 33.6611 36.1992c-18.7578 6.50488 -35.874 17.291 -49.8506 33.8398c-44.4619 52.6406 -19.3496 124.424 20.3916 171.665c34.1465 40.5947 101.02 80.6436 155.726 62.6035c66.2812 -21.8545 42.4785 -106.283 5.18457 -143.912
c-19.5244 -19.6963 -46.2246 9.10938 -29.7256 29.7256c11.5283 14.4004 24.0918 35.998 21.8691 55.3018c-2.23047 19.3711 -29.084 10.4619 -40.752 5.84863c-29.3652 -11.6143 -55.833 -33.29 -72.6533 -60.0361c-15.9854 -25.4189 -33.0195 -64.0469 -3.73242 -86.1904
c31.5703 -23.8701 75.6758 -11.3174 110.979 -5.63672c38.375 6.17285 54.1641 -46.2031 16.249 -58.9375c-41.3721 -13.8975 -88.6816 -34.8311 -115.546 -70.7441c-24.5947 -32.877 -30.3965 -78.873 4.22168 -107.019c36.0234 -29.291 87.5752 -19.8467 123.431 4.3877
c17.2021 11.6289 35.417 29.2158 41.8643 49.4971c3.04688 9.58398 3.2998 22.2432 -4.57812 29.7969c-5.67676 5.44531 -16.5098 7.11523 -21.4619 -0.238281c-11.543 -17.1338 -38.2393 -1.9873 -27.9199 16.3203c12.4316 22.0547 40.3379 31.0322 63.4629 20.7949z" />
    <glyph glyph-name="e" unicode="&#xe9;" horiz-adv-x="319" 
d="M281.574 156.526c27.8457 -12.3281 39.2725 -44.5986 34.9336 -73.1895c-8.40625 -55.3916 -63.9297 -100.938 -115.118 -115.882c-57.875 -16.8945 -121.045 0.325195 -156.926 49.957c-33.7969 46.749 -25.6611 110.411 6.29102 155.848
c9.9082 14.0908 21.2832 25.8945 33.6611 36.1992c-18.7578 6.50488 -35.874 17.291 -49.8506 33.8398c-44.4619 52.6406 -19.3496 124.424 20.3916 171.665c34.1465 40.5947 101.02 80.6436 155.726 62.6035c66.2812 -21.8545 42.4785 -106.283 5.18457 -143.912
c-19.5244 -19.6963 -46.2246 9.10938 -29.7256 29.7256c11.5283 14.4004 24.0918 35.998 21.8691 55.3018c-2.23047 19.3711 -29.084 10.4619 -40.752 5.84863c-29.3652 -11.6143 -55.833 -33.29 -72.6533 -60.0361c-15.9854 -25.4189 -33.0195 -64.0469 -3.73242 -86.1904
c31.5703 -23.8701 75.6758 -11.3174 110.979 -5.63672c38.375 6.17285 54.1641 -46.2031 16.249 -58.9375c-41.3721 -13.8975 -88.6816 -34.8311 -115.546 -70.7441c-24.5947 -32.877 -30.3965 -78.873 4.22168 -107.019c36.0234 -29.291 87.5752 -19.8467 123.431 4.3877
c17.2021 11.6289 35.417 29.2158 41.8643 49.4971c3.04688 9.58398 3.2998 22.2432 -4.57812 29.7969c-5.67676 5.44531 -16.5098 7.11523 -21.4619 -0.238281c-11.543 -17.1338 -38.2393 -1.9873 -27.9199 16.3203c12.4316 22.0547 40.3379 31.0322 63.4629 20.7949z" />
    <glyph glyph-name="f" unicode="f" horiz-adv-x="394" 
d="M359.011 435.745c27.71 -16.8164 43.7295 -49.5215 34.4521 -81.2812c-8.06055 -27.6133 -50.6855 -15.9346 -43.1172 11.8857c8.10352 29.7939 -30.3789 41.0088 -52.501 42.4971c-32.1025 2.15918 -63.9551 -3.21484 -95.0801 -10.5977
c-17.2842 -4.09961 -34.3857 -8.87695 -51.4951 -13.6299c17.4229 -25.4834 25.9756 -56.6611 30.4395 -87.6396c3.66113 -25.3906 5.74805 -50.8887 6.90039 -76.4395c16.5059 4.26758 33.0654 8.32812 49.7246 11.8496c29.1582 6.16211 41.5898 -37.583 12.374 -44.8906
c-20.2021 -5.05273 -40.5654 -9.50977 -60.9287 -13.9346c0.0888672 -11.1504 0.0927734 -22.3047 0.00683594 -33.459c-0.392578 -51.7734 1.54492 -103.746 0.381836 -155.473c-0.660156 -29.3223 -43.9238 -35.9375 -51.4707 -6.96484
c-15.2002 58.3672 -13.4443 120.355 -13.0273 181.47c-19.0176 -4.35645 -38.1465 -8.37402 -57.4287 -10.4297c-17.209 -1.83398 -25.1514 26.5186 -9.04492 33.4014c21.3232 9.11328 43.7949 15.5391 66.2637 21.583c-0.22168 9.9834 -0.585938 19.917 -1.20703 29.7725
c-2.2832 36.2266 -4.21387 78.5303 -23.3135 110.479c-5.59473 9.35547 -12.8027 17.2588 -21.0596 22.6436c-21.4482 -4.38184 -43.3457 -6.70508 -64.5791 -0.77832c-19.3818 5.40918 -21.7158 26.8467 -10.7979 40.8945c26.0146 33.4756 75.8184 32.9658 110.079 13.0312
c11.0215 2.7793 22.0117 5.69824 32.9873 8.6416c36.002 9.65527 72.0215 19.0859 109.24 22.6221c33.6006 3.19336 72.4326 2.81543 102.201 -15.2539z" />
    <glyph glyph-name="g" unicode="g" horiz-adv-x="361" 
d="M339.735 210.665c9.85156 -8.53516 14.0791 -24.2334 6.62207 -36.3291c-0.535156 -21.3877 -7.78516 -42.2754 -17.3115 -61.54c-48.5547 -98.1729 -198.34 -167.466 -280.185 -67.4551c-75.9971 92.8633 -37.0117 244.532 43.4814 321.639
c39.9805 38.2969 99.1221 71.9189 156.34 66.4385c52.6514 -5.04199 109.67 -54.4531 94.7627 -111.433c-5.29102 -20.2236 -35.0703 -11.5459 -31.0205 8.55371c2.03711 10.1084 -12.0957 21.5547 -18.7861 28.0381c-8.07422 7.8252 -17.6084 15.165 -28.373 18.8506
c-20.3809 6.97559 -43.623 1.12012 -62.959 -6.38672c-38.2891 -14.8613 -72.0615 -41.9365 -95.1504 -75.8691c-39.6162 -58.2207 -64.2041 -162.088 -7.80273 -218.278c52.0801 -51.8838 131.253 -4.73145 167.305 45.7393
c-8.11719 -4.4668 -16.3096 -8.79102 -24.6016 -12.9443c-29.6113 -14.8291 -65.8135 -34.6465 -99.7783 -34.1826c-32.877 0.446289 -61.4785 23.5107 -62.5957 57.5361c-1.0957 33.3867 22.582 58.7842 46.9912 78.2695c43.0596 34.375 108.513 63.8262 164 43.3984
c21.6904 -7.98535 39.9023 -23.3105 49.0615 -44.0449zM191.113 145.648c31.8135 14.4541 61.8125 32.3652 91.624 50.5371c-7.01465 6.78613 -18.0791 9.52246 -28.0732 9.92188c-37.7363 1.5127 -76.1289 -19.9141 -103.032 -44.8018
c-6.47266 -5.9873 -28.1201 -26.2041 -11.7207 -31.3672c13.6299 -4.28906 39.1777 10.2471 51.2021 15.71z" />
    <glyph glyph-name="h" unicode="h" horiz-adv-x="342" 
d="M306.766 188.932c4.86719 -55.4199 11.6875 -110.604 15.8369 -166.091c2.6084 -34.9141 -54.8096 -42.4502 -60.9971 -8.25684c-9.8877 54.6523 -14.1162 110.725 -16.457 166.537c-27.8994 -3.58203 -55.6055 -7.99219 -83.2549 -14.7109
c-12.7207 -3.08984 -25.377 -6.49707 -37.9688 -10.1436c-0.0498047 -21.3369 0.128906 -42.6738 0.664062 -64.0107c0.942383 -37.4111 4.18262 -74.9082 3.67578 -112.323c-0.467773 -34.4141 -57.1006 -44.4229 -61.9854 -8.38867
c-7.27539 53.6572 -8.04297 108.888 -6.6582 163.651c-10.4434 -3.8252 -20.8262 -7.80371 -31.127 -11.9531c-26.1396 -10.5264 -42.9307 32.1123 -18.9033 44.8359c16.8525 8.92383 34.2725 17.2734 52.1162 24.9736c0.167969 3.87109 0.338867 7.74219 0.513672 11.6025
c3.49316 77.3564 12.3457 154.356 24.3271 230.828c4.46387 28.4766 52.8691 21.5615 50.1572 -6.78711c-6.74023 -70.4736 -10.4443 -141.189 -12.0146 -211.956c38.6641 12.4951 78.5195 21.6719 118.461 26.4678c-1.76953 72.582 0.349609 145.254 5.32715 217.676
c2.19434 31.9629 50.917 32.5908 50.2314 0c-1.50195 -71.3906 -0.0390625 -142.745 3.88965 -214.032c14.7109 -1.53418 26.5781 -14.7295 26.5781 -29.6445c0 -14.6152 -9.78418 -24.46 -22.4121 -28.2744z" />
    <glyph glyph-name="i" unicode="i" horiz-adv-x="112" 
d="M46.2139 433.165c4.40625 26.0439 47.3281 19.623 45.7227 -6.18848c-9.0918 -145.949 -11.2969 -291.106 -5.5166 -437.206c1.59863 -40.3623 -59.5693 -39.6055 -62.2744 0c-10.0654 147.474 -2.58691 297.72 22.0684 443.395zM150.721 703.964
c23.6953 -27.1748 2.96777 -60.168 -12.9424 -84.9697c-17.5801 -27.4141 -37.5576 -53.251 -58.1309 -78.46c-6.86816 -8.41699 -16.4521 -9.88672 -25.2227 -7.20703c-11.0576 -5.65234 -22.8613 -9.87695 -36.21 -12.0322
c-26.1504 -4.22852 -56.1436 -2.3877 -75.6465 17.8652c-46.332 48.1162 15.2354 114.18 53.6855 143.085c37.3691 28.0918 115.464 66.4453 154.467 21.7188zM90.4092 646.689c2.75098 4.18848 7.81445 16.8906 12.4639 22.3359
c-0.90625 0.160156 -1.6875 0.28125 -2.14453 0.288086c-8.47461 0.110352 -16.9668 -2.6875 -24.9453 -5.30273c-15.4424 -5.06348 -29.8828 -12.5996 -43.4092 -21.584c-13.209 -8.77441 -68.7002 -52.4658 -50.9922 -71.1943
c8.44531 -8.93066 31.5527 -5.99414 41.8896 -4.4209c3.48242 0.53125 7.01465 1.2373 10.5469 2.05762c0.713867 1.63379 1.64844 3.25391 2.84375 4.8418c12.3389 16.3779 25.0703 32.4736 37.1338 49.0547c5.71289 7.84961 11.2822 15.8066 16.6133 23.9238z" />
    <glyph glyph-name="i" unicode="&#xef;" horiz-adv-x="112" 
d="M46.2139 433.165c4.40625 26.0439 47.3281 19.623 45.7227 -6.18848c-9.0918 -145.949 -11.2969 -291.106 -5.5166 -437.206c1.59863 -40.3623 -59.5693 -39.6055 -62.2744 0c-10.0654 147.474 -2.58691 297.72 22.0684 443.395zM150.721 703.964
c23.6953 -27.1748 2.96777 -60.168 -12.9424 -84.9697c-17.5801 -27.4141 -37.5576 -53.251 -58.1309 -78.46c-6.86816 -8.41699 -16.4521 -9.88672 -25.2227 -7.20703c-11.0576 -5.65234 -22.8613 -9.87695 -36.21 -12.0322
c-26.1504 -4.22852 -56.1436 -2.3877 -75.6465 17.8652c-46.332 48.1162 15.2354 114.18 53.6855 143.085c37.3691 28.0918 115.464 66.4453 154.467 21.7188zM90.4092 646.689c2.75098 4.18848 7.81445 16.8906 12.4639 22.3359
c-0.90625 0.160156 -1.6875 0.28125 -2.14453 0.288086c-8.47461 0.110352 -16.9668 -2.6875 -24.9453 -5.30273c-15.4424 -5.06348 -29.8828 -12.5996 -43.4092 -21.584c-13.209 -8.77441 -68.7002 -52.4658 -50.9922 -71.1943
c8.44531 -8.93066 31.5527 -5.99414 41.8896 -4.4209c3.48242 0.53125 7.01465 1.2373 10.5469 2.05762c0.713867 1.63379 1.64844 3.25391 2.84375 4.8418c12.3389 16.3779 25.0703 32.4736 37.1338 49.0547c5.71289 7.84961 11.2822 15.8066 16.6133 23.9238z" />
    <glyph glyph-name="i" unicode="&#xee;" horiz-adv-x="112" 
d="M46.2139 433.165c4.40625 26.0439 47.3281 19.623 45.7227 -6.18848c-9.0918 -145.949 -11.2969 -291.106 -5.5166 -437.206c1.59863 -40.3623 -59.5693 -39.6055 -62.2744 0c-10.0654 147.474 -2.58691 297.72 22.0684 443.395zM150.721 703.964
c23.6953 -27.1748 2.96777 -60.168 -12.9424 -84.9697c-17.5801 -27.4141 -37.5576 -53.251 -58.1309 -78.46c-6.86816 -8.41699 -16.4521 -9.88672 -25.2227 -7.20703c-11.0576 -5.65234 -22.8613 -9.87695 -36.21 -12.0322
c-26.1504 -4.22852 -56.1436 -2.3877 -75.6465 17.8652c-46.332 48.1162 15.2354 114.18 53.6855 143.085c37.3691 28.0918 115.464 66.4453 154.467 21.7188zM90.4092 646.689c2.75098 4.18848 7.81445 16.8906 12.4639 22.3359
c-0.90625 0.160156 -1.6875 0.28125 -2.14453 0.288086c-8.47461 0.110352 -16.9668 -2.6875 -24.9453 -5.30273c-15.4424 -5.06348 -29.8828 -12.5996 -43.4092 -21.584c-13.209 -8.77441 -68.7002 -52.4658 -50.9922 -71.1943
c8.44531 -8.93066 31.5527 -5.99414 41.8896 -4.4209c3.48242 0.53125 7.01465 1.2373 10.5469 2.05762c0.713867 1.63379 1.64844 3.25391 2.84375 4.8418c12.3389 16.3779 25.0703 32.4736 37.1338 49.0547c5.71289 7.84961 11.2822 15.8066 16.6133 23.9238z" />
    <glyph glyph-name="i" unicode="&#xed;" horiz-adv-x="112" 
d="M46.2139 433.165c4.40625 26.0439 47.3281 19.623 45.7227 -6.18848c-9.0918 -145.949 -11.2969 -291.106 -5.5166 -437.206c1.59863 -40.3623 -59.5693 -39.6055 -62.2744 0c-10.0654 147.474 -2.58691 297.72 22.0684 443.395zM150.721 703.964
c23.6953 -27.1748 2.96777 -60.168 -12.9424 -84.9697c-17.5801 -27.4141 -37.5576 -53.251 -58.1309 -78.46c-6.86816 -8.41699 -16.4521 -9.88672 -25.2227 -7.20703c-11.0576 -5.65234 -22.8613 -9.87695 -36.21 -12.0322
c-26.1504 -4.22852 -56.1436 -2.3877 -75.6465 17.8652c-46.332 48.1162 15.2354 114.18 53.6855 143.085c37.3691 28.0918 115.464 66.4453 154.467 21.7188zM90.4092 646.689c2.75098 4.18848 7.81445 16.8906 12.4639 22.3359
c-0.90625 0.160156 -1.6875 0.28125 -2.14453 0.288086c-8.47461 0.110352 -16.9668 -2.6875 -24.9453 -5.30273c-15.4424 -5.06348 -29.8828 -12.5996 -43.4092 -21.584c-13.209 -8.77441 -68.7002 -52.4658 -50.9922 -71.1943
c8.44531 -8.93066 31.5527 -5.99414 41.8896 -4.4209c3.48242 0.53125 7.01465 1.2373 10.5469 2.05762c0.713867 1.63379 1.64844 3.25391 2.84375 4.8418c12.3389 16.3779 25.0703 32.4736 37.1338 49.0547c5.71289 7.84961 11.2822 15.8066 16.6133 23.9238z" />
    <glyph glyph-name="j" unicode="j" horiz-adv-x="293" 
d="M172.57 478.826c-36.5947 -7.25 -75.2715 -3.00781 -96.7549 26.2295c-38.75 52.7148 15.9736 110.407 58.4443 137.981c37.9502 24.6377 135.877 65.0889 157.539 -0.657227c9.19824 -27.917 -8.64258 -57.5791 -21.8271 -81.1924
c-6.82227 -12.2168 -14.1191 -24.2197 -21.7764 -35.9941c0.224609 -7.59277 -2.99023 -15.3281 -11.1045 -20.6484c-1.6416 -1.07422 -3.36133 -2.13379 -5.12012 -3.18262c-4.68164 -6.55469 -9.47363 -13.0234 -14.3652 -19.3887
c-8.99121 -11.6963 -23.5059 -18.2754 -37.5674 -9.85156c-2.9082 1.74121 -5.40918 4.0498 -7.46777 6.7041zM238.481 622.714c0.959961 0.981445 0.267578 0.631836 0 0zM172.604 600.853c-13.9404 -7.93945 -70.4434 -43.4561 -52.3496 -65.8535
c8.00684 -9.91211 33.2764 -7.95996 44.1338 -6.77539c7.25391 0.791992 14.1943 2.42969 20.9062 4.68848c16.4385 24.8232 33.1123 49.4219 46.3857 76.2471c1.52734 3.08594 2.82617 9.81934 5.26367 12.1025c-5.48047 0.146484 -10.6611 -0.317383 -16.1807 -1.58789
c-16.9668 -3.90723 -33.0371 -10.2119 -48.1592 -18.8213zM191.441 430.814c39.624 -27.1172 58.6182 -87.0732 70.4932 -131.314c12.8135 -47.7559 17.7803 -97.5625 16.1572 -146.931c-2.86523 -87.0371 -24.4307 -186.255 -98.2979 -241.079
c-33.3867 -24.7803 -78.1055 -34.4922 -117.704 -19.3389c-40.8799 15.6426 -61.3496 52.7188 -64.5967 94.9541c-5.79492 75.4082 39.6338 170.362 123.809 178.059c16.7197 1.52734 34.2998 -2.57227 45.0078 -16.3594c11.6182 -14.957 9.29492 -33.4863 5.02051 -50.7061
c-10.165 -40.9551 -33.2725 -75.2412 -61.8525 -105.592c-19.2002 -20.3848 -51.3379 12.1777 -30.5537 30.5537c25.7363 22.7578 47.8125 54.2822 59.4482 86.7666c2.63672 7.36816 5.47656 16.2959 -2.83398 20.6025
c-5.8623 3.03613 -15.7852 0.0566406 -21.5508 -1.68457c-15.9141 -4.80957 -30.2725 -14.0479 -41.9326 -25.8086c-22.7676 -22.9639 -33.9395 -54.2842 -33.707 -86.3867c0.196289 -27.2529 9.22363 -56.8359 37.208 -66.0986
c53.582 -17.7373 97.4521 41.8467 114.226 84.5605c23.2744 59.2734 26.5498 127.699 21.2764 190.526c-2.64746 31.5312 -8.26758 62.4131 -17.2559 92.7705c-8.80566 29.7441 -27.46 59.0312 -32.3125 89.4814h1.33887c-3.875 16.1562 11.3076 34.8672 28.6133 23.0244z
" />
    <glyph glyph-name="k" unicode="k" horiz-adv-x="267" 
d="M248.734 284.793c-49.3535 -32.5986 -96.7578 -72.626 -133.495 -119.269c-6.76172 -8.58496 -16.3496 -20.2852 -18.5439 -31.5137c0.328125 -0.114258 0.716797 -0.203125 1.22363 -0.220703c6.66895 -0.25 13.959 -2.57324 20.8203 -2.99023
c35.167 -2.12988 70.4551 0.635742 105.583 2.24512c38.6709 1.77344 37.2617 -55.6553 0 -59.2627c-41.8291 -4.0498 -89.5312 -10.1084 -131.432 -1.03809c2.80762 -37.3154 6.53613 -74.5703 11.624 -111.864c2.3623 -17.3125 -3.89258 -34.5215 -22.5078 -39.6377
c-15.9922 -4.39551 -36.1162 5.45605 -39.6377 22.5078c-16.7705 81.21 -17.4053 165.717 -17.4873 248.314c-0.0390625 41.3652 0.371094 82.7373 0.0361328 124.099c-0.164062 20.6484 -0.788086 41.2793 -1.29492 61.9209
c-0.478516 19.5498 -4.18555 41.7646 1.52734 60.6787c6.39746 21.1768 38.1426 19.8135 42.4854 0.0175781c7.58594 -17.5303 8.00293 -38.5254 10.0156 -57.2646c2.09082 -19.4287 3.23633 -38.9609 4.33203 -58.4678c1.87695 -33.3721 2.9082 -66.7656 3.85742 -100.17
c11.5713 12.4316 23.9131 24.0957 35.752 35.1104c30.3721 28.2598 63.7158 53.1689 99.0039 74.9453c30.7852 19 57.8564 -28.5127 28.1377 -48.1406zM96.5107 134.076c0.149414 4.01758 -2.30859 0.988281 0 0z" />
    <glyph glyph-name="l" unicode="l" horiz-adv-x="250" 
d="M206.931 76.123c36.6406 16.9238 67.5977 -33.167 32.1094 -54.9219c-42.3389 -25.958 -98.0801 -52.8438 -148.497 -34.9033c-51.9658 18.4902 -65.1924 74.3135 -69.874 123.375c-5.36621 56.2051 -1.7627 114.072 3.10449 170.191
c4.72461 54.4883 9.78027 112.787 25.5332 165.359c7.84277 26.1611 50.6494 22.0723 48.8438 -6.61133c-2.96875 -47.1699 -10.9258 -94.1045 -13.8584 -141.399c-2.79785 -45.1152 -3.46191 -90.3906 -2.25586 -135.573
c0.599609 -22.4863 1.38477 -45.1904 5.91992 -67.2842c2.83301 -13.7979 6.46484 -34.2783 19.1777 -42.8809c11.8037 -7.98535 30.376 -2.98633 42.6074 0.595703c19.9453 5.84082 38.3887 15.3711 57.1895 24.0527z" />
    <glyph glyph-name="m" unicode="m" horiz-adv-x="458" 
d="M438.985 205.627c12.4209 -60.6973 9.49512 -123.965 7.00781 -185.493c-1.67676 -41.4717 -62.3096 -41.2754 -64.2832 0c-2.52246 52.751 3.23633 105.502 -2.34082 158.199c-4.36035 41.2227 -17.7764 97.9736 -61.457 114.055
c-6.13379 2.25879 -12.2529 3.68555 -18.3115 4.3916c-1.78027 -29.6328 -9.10547 -58.9482 -21.6299 -85.9307c-18.1328 -39.0596 -79.2188 -105.055 -123.592 -59.1152c-39.6885 41.0898 1.19824 112.573 33.0859 144.361c17.2588 17.2051 38.7959 31.1846 62.124 39.8662
c-4.27441 30.125 -16.1846 66.4658 -42.9277 78.123c-32.6699 14.2441 -67.7588 -30.7314 -81.9238 -54.3096c-21.7188 -36.1445 -33.2256 -77.7666 -40.3008 -119.057c-15.9062 -92.8096 2.08008 -184.663 10.6934 -277.045
c2.87988 -30.8818 -42.8486 -33.5508 -51.4688 -6.96484c-21.876 67.4727 -30.5254 141.029 -29.5938 211.842c0.891602 67.623 11.7705 137.676 41.7031 198.904c23.3965 47.8555 67.6875 98.2656 123.846 103.936c56.7754 5.73047 94.915 -44.4229 110.232 -93.0986
c3.37207 -10.7119 5.86621 -21.6484 7.56152 -32.6914c14.2188 0.435547 28.4873 -1.34473 42.3389 -5.78711c58.8525 -18.8721 87.6045 -77.3564 99.2363 -134.186zM213.706 198.118c22.54 22.5928 33.6689 56.4277 36.877 89.0547
c-14.6934 -7.46777 -27.9883 -18.5146 -38.957 -31.3203c-13.6016 -15.874 -25.5762 -36.1299 -26.5605 -57.5098c-0.392578 -8.53809 -1.35254 -14.4502 6.97559 -14.3574c7.49609 0.0820312 16.623 9.07715 21.665 14.1328z" />
    <glyph glyph-name="n" unicode="n" horiz-adv-x="371" 
d="M304.729 439.724c22.9072 34.5713 78.959 2.0166 55.7881 -32.6016c-21.498 -32.1348 -42.1221 -65.3037 -60.252 -99.6826c32.0947 -74.8877 35.7129 -163.951 21.3438 -241.593c-7.36133 -39.7881 -31.4355 -126.653 -90.1348 -101.341
c-49.8281 21.4873 -52.5469 98.7119 -51.1445 144.13c2.28027 73.8203 23.8496 144.251 55.2168 210.425c-7.78906 11.7852 -16.7275 22.7432 -26.9961 32.5479c-27.3389 26.1045 -64.5361 37.7334 -93.1055 7.29395c-27.0713 -28.8447 -33.2617 -75.876 -36.3555 -113.688
c-3.4502 -42.1719 -1.07031 -84.6289 7.54297 -126.062c4.60254 -22.126 10.9219 -43.7598 18.5645 -65.0186c3.26172 -9.07031 6.68359 -18.0547 10.4912 -26.9072c1.6123 -3.74609 3.24316 -7.63867 4.99902 -11.2998
c0.763672 -1.92676 1.69824 -3.76465 2.71484 -5.55957c24.916 -5.34473 18.0938 -41.165 -1.97656 -48.4658c-33.833 -12.3066 -53.4326 23.0635 -65.1934 48.2969c-13.7266 29.4473 -24.3555 60.1797 -31.542 91.875c-14.2686 62.9092 -15.1963 127.952 -4.30664 191.436
c9.34863 54.5059 32.0381 112.42 86.623 135.338c54.5352 22.9004 111.086 -6.17578 147.427 -47.6475c2.84375 -3.24316 5.5625 -6.57227 8.22461 -9.94043c13.1982 23.4385 27.374 46.2812 42.0713 68.4639zM279.767 117.792
c2.21973 38.9639 -0.356445 81.9932 -10.6328 122.541c-13.9766 -35.2168 -24.5557 -71.7002 -30.2041 -109.622c-3.43945 -23.082 -5.16602 -46.7744 -4.01758 -70.1064c0.481445 -9.79785 1.79785 -19.3389 4.42773 -28.7939
c1.33105 -4.77734 5.12012 -21.2656 10.8652 -22.9961c8.37402 -2.52246 18.2002 36.0312 20.0986 43.9883c5.09863 21.3691 8.21387 43.0596 9.46289 64.9893z" />
    <glyph glyph-name="o" unicode="o" horiz-adv-x="383" 
d="M371.632 254.646c3.26172 -89.8164 -27.9082 -184.441 -83.4316 -254.972c-28.416 -36.0918 -75.2939 -62.7207 -121.104 -42.0146c-41.7432 18.8643 -65.4072 67.1973 -77.5889 108.951c-25.79 88.4072 -19.0996 189.124 11.3828 275.665
c-22.7363 -16.5596 -44.876 -37.8398 -54.542 -64.0078c-10.501 -28.4238 -56.1152 -16.374 -45.8574 12.6416c16.1924 45.7998 53.4863 80.5742 93.6777 106.232c40.2344 25.6904 88.0645 40.2695 135.892 34.1357c42.332 -5.42676 80.5967 -25.9219 106.002 -60.5898
c24.3525 -33.2334 34.0967 -75.4229 35.5703 -116.042zM258.566 68.7588c35.9062 58.3564 56.5254 128.058 53.0684 196.847c-1.44824 28.8086 -8.37012 59.3691 -27.4697 81.8623c-20.1416 23.7207 -51.1201 33.9756 -81.5879 33.7402
c-18.5645 -0.146484 -36.4941 -4.38867 -53.4531 -11.2891c12.9883 -6.81543 21.5664 -22.9717 16.6641 -37.3975c-26.1787 -77.0352 -35.6377 -163.102 -14.4365 -242.574c4.48145 -16.7988 10.4941 -32.6592 19.5889 -47.5205
c5.88379 -9.61621 14.4795 -24.0566 26.418 -26.7617c27.0537 -6.12988 49.9717 34.832 61.208 53.0938z" />
    <glyph glyph-name="o" unicode="&#xf6;" horiz-adv-x="383" 
d="M371.632 254.646c3.26172 -89.8164 -27.9082 -184.441 -83.4316 -254.972c-28.416 -36.0918 -75.2939 -62.7207 -121.104 -42.0146c-41.7432 18.8643 -65.4072 67.1973 -77.5889 108.951c-25.79 88.4072 -19.0996 189.124 11.3828 275.665
c-22.7363 -16.5596 -44.876 -37.8398 -54.542 -64.0078c-10.501 -28.4238 -56.1152 -16.374 -45.8574 12.6416c16.1924 45.7998 53.4863 80.5742 93.6777 106.232c40.2344 25.6904 88.0645 40.2695 135.892 34.1357c42.332 -5.42676 80.5967 -25.9219 106.002 -60.5898
c24.3525 -33.2334 34.0967 -75.4229 35.5703 -116.042zM258.566 68.7588c35.9062 58.3564 56.5254 128.058 53.0684 196.847c-1.44824 28.8086 -8.37012 59.3691 -27.4697 81.8623c-20.1416 23.7207 -51.1201 33.9756 -81.5879 33.7402
c-18.5645 -0.146484 -36.4941 -4.38867 -53.4531 -11.2891c12.9883 -6.81543 21.5664 -22.9717 16.6641 -37.3975c-26.1787 -77.0352 -35.6377 -163.102 -14.4365 -242.574c4.48145 -16.7988 10.4941 -32.6592 19.5889 -47.5205
c5.88379 -9.61621 14.4795 -24.0566 26.418 -26.7617c27.0537 -6.12988 49.9717 34.832 61.208 53.0938z" />
    <glyph glyph-name="o" unicode="&#xf5;" horiz-adv-x="383" 
d="M371.632 254.646c3.26172 -89.8164 -27.9082 -184.441 -83.4316 -254.972c-28.416 -36.0918 -75.2939 -62.7207 -121.104 -42.0146c-41.7432 18.8643 -65.4072 67.1973 -77.5889 108.951c-25.79 88.4072 -19.0996 189.124 11.3828 275.665
c-22.7363 -16.5596 -44.876 -37.8398 -54.542 -64.0078c-10.501 -28.4238 -56.1152 -16.374 -45.8574 12.6416c16.1924 45.7998 53.4863 80.5742 93.6777 106.232c40.2344 25.6904 88.0645 40.2695 135.892 34.1357c42.332 -5.42676 80.5967 -25.9219 106.002 -60.5898
c24.3525 -33.2334 34.0967 -75.4229 35.5703 -116.042zM258.566 68.7588c35.9062 58.3564 56.5254 128.058 53.0684 196.847c-1.44824 28.8086 -8.37012 59.3691 -27.4697 81.8623c-20.1416 23.7207 -51.1201 33.9756 -81.5879 33.7402
c-18.5645 -0.146484 -36.4941 -4.38867 -53.4531 -11.2891c12.9883 -6.81543 21.5664 -22.9717 16.6641 -37.3975c-26.1787 -77.0352 -35.6377 -163.102 -14.4365 -242.574c4.48145 -16.7988 10.4941 -32.6592 19.5889 -47.5205
c5.88379 -9.61621 14.4795 -24.0566 26.418 -26.7617c27.0537 -6.12988 49.9717 34.832 61.208 53.0938z" />
    <glyph glyph-name="o" unicode="&#xf4;" horiz-adv-x="383" 
d="M371.632 254.646c3.26172 -89.8164 -27.9082 -184.441 -83.4316 -254.972c-28.416 -36.0918 -75.2939 -62.7207 -121.104 -42.0146c-41.7432 18.8643 -65.4072 67.1973 -77.5889 108.951c-25.79 88.4072 -19.0996 189.124 11.3828 275.665
c-22.7363 -16.5596 -44.876 -37.8398 -54.542 -64.0078c-10.501 -28.4238 -56.1152 -16.374 -45.8574 12.6416c16.1924 45.7998 53.4863 80.5742 93.6777 106.232c40.2344 25.6904 88.0645 40.2695 135.892 34.1357c42.332 -5.42676 80.5967 -25.9219 106.002 -60.5898
c24.3525 -33.2334 34.0967 -75.4229 35.5703 -116.042zM258.566 68.7588c35.9062 58.3564 56.5254 128.058 53.0684 196.847c-1.44824 28.8086 -8.37012 59.3691 -27.4697 81.8623c-20.1416 23.7207 -51.1201 33.9756 -81.5879 33.7402
c-18.5645 -0.146484 -36.4941 -4.38867 -53.4531 -11.2891c12.9883 -6.81543 21.5664 -22.9717 16.6641 -37.3975c-26.1787 -77.0352 -35.6377 -163.102 -14.4365 -242.574c4.48145 -16.7988 10.4941 -32.6592 19.5889 -47.5205
c5.88379 -9.61621 14.4795 -24.0566 26.418 -26.7617c27.0537 -6.12988 49.9717 34.832 61.208 53.0938z" />
    <glyph glyph-name="o" unicode="&#xf3;" horiz-adv-x="383" 
d="M371.632 254.646c3.26172 -89.8164 -27.9082 -184.441 -83.4316 -254.972c-28.416 -36.0918 -75.2939 -62.7207 -121.104 -42.0146c-41.7432 18.8643 -65.4072 67.1973 -77.5889 108.951c-25.79 88.4072 -19.0996 189.124 11.3828 275.665
c-22.7363 -16.5596 -44.876 -37.8398 -54.542 -64.0078c-10.501 -28.4238 -56.1152 -16.374 -45.8574 12.6416c16.1924 45.7998 53.4863 80.5742 93.6777 106.232c40.2344 25.6904 88.0645 40.2695 135.892 34.1357c42.332 -5.42676 80.5967 -25.9219 106.002 -60.5898
c24.3525 -33.2334 34.0967 -75.4229 35.5703 -116.042zM258.566 68.7588c35.9062 58.3564 56.5254 128.058 53.0684 196.847c-1.44824 28.8086 -8.37012 59.3691 -27.4697 81.8623c-20.1416 23.7207 -51.1201 33.9756 -81.5879 33.7402
c-18.5645 -0.146484 -36.4941 -4.38867 -53.4531 -11.2891c12.9883 -6.81543 21.5664 -22.9717 16.6641 -37.3975c-26.1787 -77.0352 -35.6377 -163.102 -14.4365 -242.574c4.48145 -16.7988 10.4941 -32.6592 19.5889 -47.5205
c5.88379 -9.61621 14.4795 -24.0566 26.418 -26.7617c27.0537 -6.12988 49.9717 34.832 61.208 53.0938z" />
    <glyph glyph-name="p" unicode="p" horiz-adv-x="333" 
d="M301.229 414.929c68.5039 -68.6396 2.5332 -163.846 -51.3271 -216.068c-43.8555 -42.5283 -95.4355 -76.9463 -150.424 -103.949c0.938477 -14.4932 2.07324 -28.8477 3.25098 -42.9629c3.39648 -40.7334 8.35938 -81.2598 15.0215 -121.583
c5.4375 -32.9268 13.291 -65.2363 20.4268 -97.7559c2.76855 -2.93652 4.99121 -6.69727 6.30762 -11.418c3.61426 -12.9775 2.04102 -24.0605 -4.43164 -35.8027c-13.8691 -25.1553 -47.2666 -15.7891 -56.3398 7.36426c-20.3271 51.8584 -29.665 109.087 -37.3154 164.039
c-5.08789 36.5371 -9.2627 73.2529 -11.9814 110.062c-0.107422 -0.0390625 -0.214844 -0.0859375 -0.325195 -0.125c-12.0029 -4.48535 -26.1973 5.0166 -29.252 16.6055c-3.5752 13.5693 4.68164 24.2412 16.6094 29.251c3.42578 1.4375 6.84375 2.90723 10.2588 4.37402
c-0.103516 3.0332 -0.242188 6.0625 -0.320312 9.0918c-2.2832 87.8076 0.193359 189.06 57.9219 260.65c49.1113 60.9043 150.888 89.3809 211.92 28.2275zM283.109 324.89c7.60742 34.3076 -10.1152 65.4746 -45.4219 72.0117
c-64.3467 11.9141 -110.154 -57.7207 -125.18 -110.222c-12.6738 -44.2842 -15.9668 -91.6436 -15.25 -138.811c46.0146 24.0205 89.4023 52.5762 126.893 89.2422c24.8799 24.334 51.1943 52.7715 58.959 87.7783z" />
    <glyph glyph-name="q" unicode="q" horiz-adv-x="390" 
d="M272.562 2.92383c7.05371 -44.9688 15.3857 -89.7695 29.7148 -133.075c12.8701 -38.9102 -47.8662 -55.0273 -61.0186 -16.8232c-13.9551 40.5264 -21.1699 82.5625 -26.2578 124.951c-24.7803 -3.77539 -50.4209 0.496094 -73.6602 14.1084
c-42.5029 24.8945 -65.7383 72.0361 -79.3184 117.629c-20.8516 70.0059 -19.5596 146.927 -2.66797 218.874c-8.6709 -7.95996 -16.8311 -17.7148 -14.2119 -25.8291c7.08594 -21.9512 -26.458 -35.8096 -37.041 -15.6172
c-24.6123 46.9561 30.8359 92.6309 66.6279 114.364c3.53223 2.14453 7.1543 4.16797 10.8115 6.13086c7.18262 11.8066 19.5566 19.0928 34.4639 15.1182c30.4824 10.6152 63.2373 15.2002 95.0469 12.1885c218.325 -20.6738 198.896 -326.125 57.5107 -432.02z
M238.103 163.62c13.041 -25.6367 19.3633 -55.1543 23.8486 -84.8262c37.7402 43.8623 58.5283 106.558 59.1455 162.424c0.791992 71.6084 -39.1172 135.42 -115.043 141.104c-22.5537 1.6875 -45.4004 -0.731445 -67.0693 -7.19727
c-22.4648 -76.5576 -37.4902 -157.062 -17.4941 -235.938c7.97852 -31.4746 19.9492 -68.7793 47.4375 -88.8105c12.9023 -9.40234 26.376 -11.707 39.3994 -9.15234c-1.22363 12.249 -2.44043 24.502 -3.68555 36.748c-2.49805 24.5518 -8.01465 49.8066 -7.73242 74.4912
c0.239258 20.998 30.9424 31.3066 41.1934 11.1572z" />
    <glyph glyph-name="r" unicode="r" horiz-adv-x="384" 
d="M353.878 102.93c38.3965 -2.58301 39.0088 -61.6807 0.00195312 -60.2676c-46.8418 1.69824 -93.4805 11.4033 -137.015 28.7939c-27.2891 10.9004 -63.6055 24.4307 -82.4844 49.5576c-1.3418 -16.8525 -2.30859 -33.7363 -3.07227 -50.5957
c-1.05664 -23.2637 -1.60254 -46.5566 -1.62012 -69.8457c-0.0146484 -19.0605 0.745117 -38.0215 -4.65723 -56.5254c-7.3252 -25.0977 -47.252 -34.3359 -59.6475 -7.79688c-16.0029 34.2646 -17.416 73.0967 -21.8652 110.19
c-4.42773 36.9443 -8.18457 73.9668 -11.7852 111c-3.71484 38.1934 -7.30762 76.415 -10.4688 114.658c-3.11523 37.7002 -8.91699 77.0244 -4.88867 114.743c2.67285 25.0088 37.084 32.0625 45.0654 6.09766c10.8574 -35.3096 12.5527 -73.8203 16.9023 -110.411
c2.44043 -20.5098 4.78125 -41.0303 7.13574 -61.5508c2.66504 12.8525 5.71582 25.6152 9.29492 38.2432c21.4375 75.6436 61.9814 151.798 128.184 197.245c29.4014 20.1846 77.6523 38.4707 108.895 12.3525c34.7422 -29.0479 20.3096 -75.7832 3.13965 -110.208
c-32.9336 -66.0312 -92.7959 -111.746 -135.667 -170.441c-5.40918 -7.40723 -12.5449 -16.0166 -15.7812 -24.666c-2.46875 -6.59766 -2.93652 -4.86328 1.29883 -8.7207c12.3633 -11.2578 32.873 -18.4658 48.1729 -24.7275
c38.5889 -15.7998 79.3613 -24.3311 120.862 -27.125zM148.554 219.54c7.09668 9.28418 14.6436 17.9746 21.3369 25.9209c21.8799 25.9834 46.0645 49.8936 68.54 75.3447c21.623 24.4912 42.9277 51.5693 54.4385 82.5156c1.25586 3.37891 6.1084 19.6279 5.07324 20.7773
c-2.63281 2.92969 -14.001 -1.78711 -17.123 -2.85352c-15.0645 -5.1416 -28.3203 -14.8398 -39.9238 -25.5439c-50.3633 -46.457 -77.5625 -110.372 -92.3418 -176.161z" />
    <glyph glyph-name="s" unicode="s" horiz-adv-x="394" 
d="M343.871 236.277c74.9619 -80.0322 33.5615 -204.51 -55.8301 -253.91c-45.1152 -24.9336 -103.703 -32.498 -149.039 -3.89941c-43.0312 27.1465 -68.5684 78.4697 -63.041 129.244c5.34473 49.1045 37.3936 94.2412 83.8643 112.503
c23.9561 9.41309 51.7695 9.17773 73.374 -5.96191c23.9385 -16.7734 28.5166 -44.5586 26.3047 -71.8438c-2.92578 -36.1123 -58.6885 -36.8867 -56.9219 0c0.396484 8.22852 3.54688 20.5381 -5.11621 24.6025c-8.18164 3.83594 -22.2402 -5.2627 -28.6592 -9.67676
c-16.6455 -11.4395 -28.7842 -29.7617 -32.4023 -49.7041c-8.81348 -48.5508 31.2559 -93.3086 80.585 -87.0146c76.3184 9.74121 145.251 111.021 82.5273 175.315c-34.3965 35.2568 -87.3682 45.7725 -133.992 53.6328c-46.7061 7.875 -106.804 7.73926 -144.672 39.8447
c-45.6328 38.6885 -7.61816 90.8789 30.4854 116.252c41.0156 27.3105 94.4941 40.3809 143.327 42.0762c48.6729 1.6875 97.4805 -11.9102 134.671 -44.166c33.3047 -28.8877 59.2344 -77.6104 28.2598 -117.049c-13.666 -17.3984 -38.5566 1.90137 -34.4316 20.042
c5.17773 22.7715 -20.2803 47.0742 -37.1963 58.1602c-22.2832 14.6045 -48.3193 21.8369 -74.8662 22.6611c-29.4941 0.916992 -58.585 -4.74902 -86.459 -14.1758c-18.9248 -6.40137 -53.1895 -19.1396 -62.9268 -39.0244
c0.584961 -0.40332 1.5127 -0.938477 3.01172 -1.61328c5.8125 -2.6123 11.0967 -5.20605 17.2734 -7.01465c11.7109 -3.43262 23.8174 -5.54883 35.8242 -7.66113c27.5205 -4.8418 55.2588 -8.40234 82.6758 -13.8438c51.7412 -10.2686 106.333 -28.2373 143.37 -67.7754z
M61.1211 334.625c-0.203125 0.524414 -0.556641 0.50293 0 0z" />
    <glyph glyph-name="t" unicode="t" horiz-adv-x="317" 
d="M280.683 157.285c25.9902 -17.7871 39.9316 -49.5957 39.2539 -80.6631c-1.2627 -58.0635 -45.6572 -121.747 -103.018 -136.477c-30.5391 -7.84277 -62.3525 -1.38477 -87.04 18.1113c-26.0508 20.5703 -38.6709 52.9756 -44.5586 84.7568
c-13.3232 71.9258 -7.77441 145.047 -1.35547 217.38c3.5 39.4561 6.38281 79.3223 10.7568 118.946c-24.2666 -1.38086 -48.5332 -3.3291 -72.8574 -6.14062c-13.334 -1.54102 -24.9941 12.6133 -24.8652 24.8662c0.15332 14.5723 11.4248 23.2783 24.8584 24.8623
c26.3398 3.11133 52.8975 5.68359 79.5332 7.47168c2.68652 17.3984 5.83691 34.7002 9.66504 51.8379c5.54492 24.8193 40.4053 17.0908 41.9434 -5.67773c0.984375 -14.5361 1.46289 -29.1152 1.59863 -43.7119c26.9893 0.634766 53.9678 0.295898 80.7891 -1.28516
c31.7422 -1.87012 32.2168 -50.1182 0 -49.7295c-27.3027 0.332031 -54.4814 0.338867 -81.6094 -0.217773c-1.54492 -40.4941 -4.8418 -81.0098 -7.40723 -121.223c-4.3457 -68.1436 -12.5273 -138.788 1.70215 -206.297c4.89941 -23.25 13.9912 -57.8682 40.0059 -66.1104
c27.6562 -8.75977 54.4131 13.7549 68.7822 34.8174c15.043 22.0508 26.3682 51.4736 15.4072 77.71c-13.2949 31.8311 -44.8936 28.4023 -72.4033 19.7178c-23.1494 -7.30762 -37.3896 27.4775 -16.3877 38.874c29.5898 16.0566 68.6572 17.7197 97.2061 -1.81934z" />
    <glyph glyph-name="u" unicode="u" horiz-adv-x="356" 
d="M330.606 20.7207c32.4199 -13.7803 8.83008 -67.4824 -23.7998 -56.4639c-31.8672 10.7686 -55.7666 33.5898 -73.6211 61.2002c-24.8447 -35.2988 -57.4248 -67.1045 -100.98 -70.0518c-61.5566 -4.16406 -95.2432 57.4717 -106.775 109.049
c-13.5762 60.7148 -10.5254 124.245 -3.13184 185.542c7.24707 60.0654 14.708 123.913 34.5791 181.281c10.626 30.6719 58.2568 18.2402 49.083 -13.5303c-14.9434 -51.748 -18.2227 -107.396 -23.3604 -160.814c-5.14551 -53.5176 -8.18945 -109.669 1.92285 -162.812
c5.00293 -26.29 18.1367 -85.8379 56.7832 -72.9316c19.2891 6.44043 34.5713 25.2227 46.8096 40.5654c5.99121 7.51465 11.4863 15.4824 16.6885 23.6494c-2.15918 6.26562 -4.13281 12.5273 -5.91309 18.7217c-17.1982 59.834 -19.5566 124.599 -13.6553 186.298
c5.03418 52.6514 16.2734 115.957 53.7246 156.212c17.4912 18.8037 44.6445 31.5635 68.4473 16.2061c20.8945 -13.4805 24.1914 -42.1787 26.3037 -64.7539c9.89453 -105.673 -15.2324 -215.87 -63.6123 -310.368c12.8984 -28.1982 31.3887 -54.6201 60.5078 -66.998z
M246.491 163.354c31.0928 67.2656 54.3838 143.396 51.1689 215.192c-0.549805 12.2529 -1.32031 27.1104 -6.26172 38.3926c-4.4668 10.1973 -7.32812 7.32129 -14.3145 -0.575195c-12.5742 -14.2148 -19.5176 -33.3252 -24.9092 -51.2227
c-12.792 -42.4531 -14.7012 -87.3145 -13.2559 -131.373c0.77832 -23.6855 3.12598 -47.2568 7.57227 -70.4141z" />
    <glyph glyph-name="u" unicode="&#xfc;" horiz-adv-x="356" 
d="M330.606 20.7207c32.4199 -13.7803 8.83008 -67.4824 -23.7998 -56.4639c-31.8672 10.7686 -55.7666 33.5898 -73.6211 61.2002c-24.8447 -35.2988 -57.4248 -67.1045 -100.98 -70.0518c-61.5566 -4.16406 -95.2432 57.4717 -106.775 109.049
c-13.5762 60.7148 -10.5254 124.245 -3.13184 185.542c7.24707 60.0654 14.708 123.913 34.5791 181.281c10.626 30.6719 58.2568 18.2402 49.083 -13.5303c-14.9434 -51.748 -18.2227 -107.396 -23.3604 -160.814c-5.14551 -53.5176 -8.18945 -109.669 1.92285 -162.812
c5.00293 -26.29 18.1367 -85.8379 56.7832 -72.9316c19.2891 6.44043 34.5713 25.2227 46.8096 40.5654c5.99121 7.51465 11.4863 15.4824 16.6885 23.6494c-2.15918 6.26562 -4.13281 12.5273 -5.91309 18.7217c-17.1982 59.834 -19.5566 124.599 -13.6553 186.298
c5.03418 52.6514 16.2734 115.957 53.7246 156.212c17.4912 18.8037 44.6445 31.5635 68.4473 16.2061c20.8945 -13.4805 24.1914 -42.1787 26.3037 -64.7539c9.89453 -105.673 -15.2324 -215.87 -63.6123 -310.368c12.8984 -28.1982 31.3887 -54.6201 60.5078 -66.998z
M246.491 163.354c31.0928 67.2656 54.3838 143.396 51.1689 215.192c-0.549805 12.2529 -1.32031 27.1104 -6.26172 38.3926c-4.4668 10.1973 -7.32812 7.32129 -14.3145 -0.575195c-12.5742 -14.2148 -19.5176 -33.3252 -24.9092 -51.2227
c-12.792 -42.4531 -14.7012 -87.3145 -13.2559 -131.373c0.77832 -23.6855 3.12598 -47.2568 7.57227 -70.4141z" />
    <glyph glyph-name="u" unicode="&#xfb;" horiz-adv-x="356" 
d="M330.606 20.7207c32.4199 -13.7803 8.83008 -67.4824 -23.7998 -56.4639c-31.8672 10.7686 -55.7666 33.5898 -73.6211 61.2002c-24.8447 -35.2988 -57.4248 -67.1045 -100.98 -70.0518c-61.5566 -4.16406 -95.2432 57.4717 -106.775 109.049
c-13.5762 60.7148 -10.5254 124.245 -3.13184 185.542c7.24707 60.0654 14.708 123.913 34.5791 181.281c10.626 30.6719 58.2568 18.2402 49.083 -13.5303c-14.9434 -51.748 -18.2227 -107.396 -23.3604 -160.814c-5.14551 -53.5176 -8.18945 -109.669 1.92285 -162.812
c5.00293 -26.29 18.1367 -85.8379 56.7832 -72.9316c19.2891 6.44043 34.5713 25.2227 46.8096 40.5654c5.99121 7.51465 11.4863 15.4824 16.6885 23.6494c-2.15918 6.26562 -4.13281 12.5273 -5.91309 18.7217c-17.1982 59.834 -19.5566 124.599 -13.6553 186.298
c5.03418 52.6514 16.2734 115.957 53.7246 156.212c17.4912 18.8037 44.6445 31.5635 68.4473 16.2061c20.8945 -13.4805 24.1914 -42.1787 26.3037 -64.7539c9.89453 -105.673 -15.2324 -215.87 -63.6123 -310.368c12.8984 -28.1982 31.3887 -54.6201 60.5078 -66.998z
M246.491 163.354c31.0928 67.2656 54.3838 143.396 51.1689 215.192c-0.549805 12.2529 -1.32031 27.1104 -6.26172 38.3926c-4.4668 10.1973 -7.32812 7.32129 -14.3145 -0.575195c-12.5742 -14.2148 -19.5176 -33.3252 -24.9092 -51.2227
c-12.792 -42.4531 -14.7012 -87.3145 -13.2559 -131.373c0.77832 -23.6855 3.12598 -47.2568 7.57227 -70.4141z" />
    <glyph glyph-name="u" unicode="&#xfa;" horiz-adv-x="356" 
d="M330.606 20.7207c32.4199 -13.7803 8.83008 -67.4824 -23.7998 -56.4639c-31.8672 10.7686 -55.7666 33.5898 -73.6211 61.2002c-24.8447 -35.2988 -57.4248 -67.1045 -100.98 -70.0518c-61.5566 -4.16406 -95.2432 57.4717 -106.775 109.049
c-13.5762 60.7148 -10.5254 124.245 -3.13184 185.542c7.24707 60.0654 14.708 123.913 34.5791 181.281c10.626 30.6719 58.2568 18.2402 49.083 -13.5303c-14.9434 -51.748 -18.2227 -107.396 -23.3604 -160.814c-5.14551 -53.5176 -8.18945 -109.669 1.92285 -162.812
c5.00293 -26.29 18.1367 -85.8379 56.7832 -72.9316c19.2891 6.44043 34.5713 25.2227 46.8096 40.5654c5.99121 7.51465 11.4863 15.4824 16.6885 23.6494c-2.15918 6.26562 -4.13281 12.5273 -5.91309 18.7217c-17.1982 59.834 -19.5566 124.599 -13.6553 186.298
c5.03418 52.6514 16.2734 115.957 53.7246 156.212c17.4912 18.8037 44.6445 31.5635 68.4473 16.2061c20.8945 -13.4805 24.1914 -42.1787 26.3037 -64.7539c9.89453 -105.673 -15.2324 -215.87 -63.6123 -310.368c12.8984 -28.1982 31.3887 -54.6201 60.5078 -66.998z
M246.491 163.354c31.0928 67.2656 54.3838 143.396 51.1689 215.192c-0.549805 12.2529 -1.32031 27.1104 -6.26172 38.3926c-4.4668 10.1973 -7.32812 7.32129 -14.3145 -0.575195c-12.5742 -14.2148 -19.5176 -33.3252 -24.9092 -51.2227
c-12.792 -42.4531 -14.7012 -87.3145 -13.2559 -131.373c0.77832 -23.6855 3.12598 -47.2568 7.57227 -70.4141z" />
    <glyph glyph-name="v" unicode="v" horiz-adv-x="317" 
d="M279.71 402.68c17.209 -36.6904 21.5439 -79.9639 21.8076 -120.02c0.492188 -74.7051 -10.9619 -152.622 -35.4893 -223.253c-11.2041 -32.2588 -25.4053 -68.6396 -52.0303 -91.4717c-29.2334 -25.0693 -69.9668 -26.5605 -95.7432 4.29297
c-23.6172 28.2705 -35.7559 68.333 -46.874 102.851c-11.6465 36.166 -21.3408 72.9639 -30.1543 109.915c-9.31641 39.0566 -17.7305 78.3701 -24.3672 117.976c-3.2793 19.5713 -6.44043 39.1494 -8.31348 58.9092c-1.62305 17.1055 -4.63477 33.0371 7.68555 46.8203
c8.12109 9.08398 21.5869 8.87695 31.6914 4.08887c6.54395 -3.10059 12.2246 -10.3936 13.3447 -17.5225c0.774414 -4.94922 0.62793 -9.3916 -0.385742 -13.3418c2.70117 -14.0908 7.78223 -28.6094 10.6406 -42.5537c3.21484 -15.7031 6.68652 -31.3457 10.126 -47.0029
c7.12891 -32.4629 14.8359 -64.79 23.3955 -96.9102c14.4512 -54.2314 28.8701 -109.483 52.1738 -160.711c2.68652 -5.90918 8.91602 -22.6797 13.8613 -23.8818c4.16016 -1.01367 16.4453 11.46 20.0381 16.1025c15.8027 20.4062 24.334 47.6523 31.8057 72.0078
c16.8594 54.9385 25.0557 113.123 26.626 170.494c0.65625 23.9736 1.50879 141.914 -44.3057 130.539c-24.9121 -6.18359 -40.8545 29.1973 -17.6797 41.9316c37.4082 20.5596 75.7188 -4.23535 92.1465 -39.2598z" />
    <glyph glyph-name="w" unicode="w" horiz-adv-x="458" 
d="M340.37 420.234c114.614 -96.0322 143.337 -278.491 57.5098 -402.433c-39.8418 -57.5283 -110.162 -102.165 -179.315 -64.3184c-24.5879 13.459 -42.5674 33.8291 -55.6338 57.5645c-23.7031 -13.5625 -51.1777 -20.0029 -78.1416 -10.9541
c-33.4258 11.2178 -53.6963 41.0752 -64.6826 73.1562c-22.3008 65.125 -7.88965 145.161 15.6348 208.053c11.832 31.6348 26.7178 61.9668 46.0752 89.6982c18.2334 26.126 40.2236 56.8975 73.5215 62.9453c27.1855 4.93848 44.6152 -30.4678 19.2891 -45.7539
c-19.8027 -11.9492 -33.9326 -39.4131 -45.5 -58.7021c-13.9834 -23.3145 -25.8477 -47.9346 -34.5469 -73.7031c-16.9053 -50.0957 -29.793 -113.765 -11.3496 -165.135c6.60059 -18.3828 18.7891 -35.6914 40.3193 -33.2969
c6.55859 0.727539 12.9707 2.58691 19.1582 5.19141c-5.75488 21.3018 -9.10547 43.2246 -10.8896 63.9658c-2.77246 32.252 -0.103516 65.8994 9.64453 96.8672c8.69531 27.6211 23.5352 60.002 49.8174 75.0381c27.5137 15.7393 61.8174 7.22949 75.6797 -21.8828
c14.2871 -29.9932 8.21777 -67.8545 1.84863 -99.1006c-8.96973 -44.0127 -28.6338 -90.0664 -58.5127 -125.612c19.2354 -35.7773 54.585 -61.6992 94.7363 -36.0303c36.9902 23.6494 59.0234 70.7412 69.2139 111.903c22.9141 92.5498 -15.0186 181.039 -79.5654 246.85
c-29.6152 30.1934 14.2725 72.0117 45.6895 45.6895zM186.787 201.838c-6.89355 -32.584 -3.76172 -68.5771 5.29102 -101.896c25.9727 30.2578 42.2041 73.9033 45.3516 111.9c1.17773 14.2256 -0.90625 67.7725 -26.3857 44.3232
c-14.0693 -12.9482 -20.4209 -36.2051 -24.2568 -54.3271z" />
    <glyph glyph-name="x" unicode="x" horiz-adv-x="313" 
d="M309.573 429.098c-25.9082 -37.0439 -54.0605 -72.3867 -79.2695 -109.991c-19.6748 -29.3477 -38.1934 -59.4658 -55.6338 -90.1904c1.31641 -2.78711 2.62988 -5.57715 3.94629 -8.36426c31.9883 -67.7227 64.3193 -135.592 105.063 -198.529
c9.69434 -14.9756 3.02539 -36.334 -11.7998 -45.0049c-16.6133 -9.71973 -34.3184 -2.35547 -45.0049 11.7988c-23.1104 30.6104 -39.8662 66.0947 -56.5723 100.455c-11.2285 23.0928 -22.0332 46.4033 -32.6055 69.8105
c-30.5713 -62.4062 -56.0693 -126.454 -81.0215 -191.775c-14.5146 -38.0039 -73.9053 -23.4385 -62.1445 17.1348c25.1582 86.8047 65.4346 171.633 110.254 250.017c-10.0225 23.9814 -19.7168 48.1016 -29.1758 72.3076
c-13.7979 35.3096 -32.1699 72.543 -37.8223 110.229c-2.14844 14.333 3.37891 28.4873 18.5938 32.748c12.7598 3.57129 30.4756 -4.43164 32.748 -18.5938c6.0332 -37.6006 26.4932 -73.917 42 -108.385c3.75 -8.33496 7.53906 -16.6523 11.3535 -24.959
c36.4199 58.4814 77.3779 115.721 125.016 163.755c21.0234 21.1943 59.7627 -7.16895 42.0752 -32.4629z" />
    <glyph glyph-name="y" unicode="y" horiz-adv-x="343" 
d="M314.999 339.752c24.4697 -84.207 17.4609 -176.897 -11.5869 -259.039c-23.5 -66.4629 -82.124 -182.947 -171.83 -149.308c-80.8496 30.3213 -100.578 135.651 -70.0996 207.273c13.4834 31.6914 67.6758 8.43457 55.5332 -23.4141
c-12.6387 -33.1553 -11.4824 -69.1611 7.43164 -99.7715c7.09668 -11.4824 19.6602 -26.6758 34.3389 -27.625c17.252 -1.11719 33.2979 16.334 43.3027 28.3516c21.9336 26.3398 35.5957 60.2656 46.0898 92.5537c11.625 35.7705 18.8398 72.6865 20.0352 110.312
c1.19141 37.4365 -3.19336 74.4023 -14.4043 110.19c-2.72266 8.69531 -5.64453 17.3447 -9.67676 25.5264c-0.953125 1.93066 -5.58496 8.26367 -8.74316 13.166c-1.81934 -2.50098 -3.68945 -4.91992 -4.21387 -5.76562
c-4.66016 -7.5498 -8.99512 -15.293 -13.2803 -23.0605c-18.4717 -33.4727 -36.2441 -68.2617 -64.0293 -95.208c-26.4824 -25.6836 -67.6973 -48.9229 -104.088 -28.6279c-32.9082 18.3545 -39.9619 62.3848 -40.7188 96.5391
c-0.838867 37.9072 7.16797 77.6484 26.0791 110.725c13.334 23.332 50.9668 7.50781 43.3057 -18.2578c-6.98633 -23.499 -12.7168 -46.3203 -12.7559 -70.9902c-0.0175781 -11.7529 0.966797 -23.4131 3.15039 -34.9561
c1.41309 -7.47852 2.50098 -22.8682 8.69922 -28.085c8.14258 -6.84766 28.3809 12.627 34.8574 19.1855c16.4561 16.6631 28.1055 37.1367 39.3018 57.5215c18.918 34.4395 43.4736 99.5283 93.7305 88.4531c40.8691 -9.00586 59.3164 -60.4043 69.5713 -95.6895z" />
    <glyph glyph-name="y" unicode="&#xff;" horiz-adv-x="343" 
d="M314.999 339.752c24.4697 -84.207 17.4609 -176.897 -11.5869 -259.039c-23.5 -66.4629 -82.124 -182.947 -171.83 -149.308c-80.8496 30.3213 -100.578 135.651 -70.0996 207.273c13.4834 31.6914 67.6758 8.43457 55.5332 -23.4141
c-12.6387 -33.1553 -11.4824 -69.1611 7.43164 -99.7715c7.09668 -11.4824 19.6602 -26.6758 34.3389 -27.625c17.252 -1.11719 33.2979 16.334 43.3027 28.3516c21.9336 26.3398 35.5957 60.2656 46.0898 92.5537c11.625 35.7705 18.8398 72.6865 20.0352 110.312
c1.19141 37.4365 -3.19336 74.4023 -14.4043 110.19c-2.72266 8.69531 -5.64453 17.3447 -9.67676 25.5264c-0.953125 1.93066 -5.58496 8.26367 -8.74316 13.166c-1.81934 -2.50098 -3.68945 -4.91992 -4.21387 -5.76562
c-4.66016 -7.5498 -8.99512 -15.293 -13.2803 -23.0605c-18.4717 -33.4727 -36.2441 -68.2617 -64.0293 -95.208c-26.4824 -25.6836 -67.6973 -48.9229 -104.088 -28.6279c-32.9082 18.3545 -39.9619 62.3848 -40.7188 96.5391
c-0.838867 37.9072 7.16797 77.6484 26.0791 110.725c13.334 23.332 50.9668 7.50781 43.3057 -18.2578c-6.98633 -23.499 -12.7168 -46.3203 -12.7559 -70.9902c-0.0175781 -11.7529 0.966797 -23.4131 3.15039 -34.9561
c1.41309 -7.47852 2.50098 -22.8682 8.69922 -28.085c8.14258 -6.84766 28.3809 12.627 34.8574 19.1855c16.4561 16.6631 28.1055 37.1367 39.3018 57.5215c18.918 34.4395 43.4736 99.5283 93.7305 88.4531c40.8691 -9.00586 59.3164 -60.4043 69.5713 -95.6895z" />
    <glyph glyph-name="y" unicode="&#xfd;" horiz-adv-x="343" 
d="M314.999 339.752c24.4697 -84.207 17.4609 -176.897 -11.5869 -259.039c-23.5 -66.4629 -82.124 -182.947 -171.83 -149.308c-80.8496 30.3213 -100.578 135.651 -70.0996 207.273c13.4834 31.6914 67.6758 8.43457 55.5332 -23.4141
c-12.6387 -33.1553 -11.4824 -69.1611 7.43164 -99.7715c7.09668 -11.4824 19.6602 -26.6758 34.3389 -27.625c17.252 -1.11719 33.2979 16.334 43.3027 28.3516c21.9336 26.3398 35.5957 60.2656 46.0898 92.5537c11.625 35.7705 18.8398 72.6865 20.0352 110.312
c1.19141 37.4365 -3.19336 74.4023 -14.4043 110.19c-2.72266 8.69531 -5.64453 17.3447 -9.67676 25.5264c-0.953125 1.93066 -5.58496 8.26367 -8.74316 13.166c-1.81934 -2.50098 -3.68945 -4.91992 -4.21387 -5.76562
c-4.66016 -7.5498 -8.99512 -15.293 -13.2803 -23.0605c-18.4717 -33.4727 -36.2441 -68.2617 -64.0293 -95.208c-26.4824 -25.6836 -67.6973 -48.9229 -104.088 -28.6279c-32.9082 18.3545 -39.9619 62.3848 -40.7188 96.5391
c-0.838867 37.9072 7.16797 77.6484 26.0791 110.725c13.334 23.332 50.9668 7.50781 43.3057 -18.2578c-6.98633 -23.499 -12.7168 -46.3203 -12.7559 -70.9902c-0.0175781 -11.7529 0.966797 -23.4131 3.15039 -34.9561
c1.41309 -7.47852 2.50098 -22.8682 8.69922 -28.085c8.14258 -6.84766 28.3809 12.627 34.8574 19.1855c16.4561 16.6631 28.1055 37.1367 39.3018 57.5215c18.918 34.4395 43.4736 99.5283 93.7305 88.4531c40.8691 -9.00586 59.3164 -60.4043 69.5713 -95.6895z" />
    <glyph glyph-name="z" unicode="z" horiz-adv-x="333" 
d="M327.38 66.9385c16.4346 -26.6074 -25.3496 -50.7891 -41.7842 -24.4209c-16.4521 26.3965 -54.2422 29.5547 -84.8281 28.7266c-20.7197 -27.8594 -45.3145 -55.0557 -76.5674 -70.3271c-32.5059 -15.8848 -100.781 -23.9062 -102.141 29.7041
c-1.08789 42.9492 49.5859 64.8213 83.5361 75.2227c15.0713 4.61719 32.334 8.72363 50.5273 11.5498c2.32324 3.30371 4.61426 6.62891 6.83398 9.99707c28.8877 43.8232 47.8945 92.6992 56.4111 144.512c6.39746 38.9248 15.3213 123.229 -41.0156 129.323
c-25.2197 2.72949 -51.9023 -8.4209 -74.0742 -19.1396c-12.4492 -6.01953 -24.5664 -12.5742 -36.1201 -20.1885c-7.13281 -4.69922 -19.9854 -11.5713 -27.4463 -18.8145c-0.634766 -3.26172 -2.32227 -6.41992 -5.3584 -9.11719l-0.867188 -0.770508
c-6.20898 -5.51953 -15.2822 -7.4502 -22.7471 -2.93652c-0.399414 0.242188 -0.798828 0.481445 -1.19824 0.723633c-6.71484 4.06055 -11.5889 13.5049 -8.68066 21.3301c7.27148 19.5605 28.0195 35.4746 44.0293 48.0703
c18.7822 14.7754 38.6172 26.8281 60.582 36.2617c43.2529 18.5791 94.3584 26.208 132.729 -7.12891c63.2236 -54.9277 47.1211 -166.031 24.2637 -236.623c-8.13867 -25.1406 -18.5898 -49.7891 -31.3281 -73.1104c39.0352 -4.51758 74.7197 -19.6143 95.2432 -52.8438z
" />
    <glyph glyph-name="braceleft" unicode="{" horiz-adv-x="254" 
d="M219.249 743.47c-28.1201 -43.6055 -33.7646 -96.5088 -37.2041 -147.068c-6.82227 -100.603 -22.2832 -197.733 -54.9668 -292.306c41.8535 -0.613281 81.3564 -14.4932 98.4229 -59.583c10.8008 -28.5303 6.73633 -59.6582 2.73633 -89.0625
c-4.81738 -35.4492 -11.8037 -70.499 -18.4189 -105.642c-11.8926 -63.1699 -25.2803 -133.451 -7.48926 -196.839c14.1943 -50.5596 61.9814 -74.7549 111.264 -56.8711c33.1084 12.0137 55.6055 -42.1572 23.9277 -56.7578
c-53.2178 -24.5303 -117.633 -14.3574 -159.326 27.9424c-47.4453 48.1406 -51.1387 125.415 -46.1719 188.863c5.54102 70.791 24.5059 139.398 33.9932 209.594c2.68359 19.8604 10.501 55.3916 -9.19824 69.3467c-17.9971 12.752 -48.1367 6.63965 -68.1328 3.16113
c-28.459 -4.95215 -46.4209 20.2031 -35.4023 46.0537c25.0625 58.8057 43.5664 120.688 55.9834 183.365c12.2422 61.7998 13.5947 124.552 23.1533 186.665c8.18848 53.2041 26.9385 108.531 66.584 146.785c38.375 37.0293 96.3643 55.4375 147.324 34.9922
c25.9219 -10.3975 16.1631 -51.6377 -11.8428 -42.9531c-45.3545 14.0654 -90.7158 -11.668 -115.235 -49.6865z" />
    <glyph glyph-name="verticalbar" unicode="|" horiz-adv-x="138" 
d="M68.4805 740.412c3.23242 26.6465 44.1865 28.1699 42.873 -0.00390625c-3.34375 -72.0225 -7.71484 -143.991 -11.1865 -216.01c-12.1533 -252.058 -14.002 -503.602 -11.5225 -755.895c0.37793 -38.3818 -58.292 -38.1289 -59.4307 0
c-2.15918 72.1719 -2.6084 144.369 -1.90918 216.569c2.44043 251.697 10.875 505.293 41.1758 755.339z" />
    <glyph glyph-name="braceright" unicode="}" horiz-adv-x="453" 
d="M378.506 341.966c20.9551 -10.7471 31.458 -36.6631 20.1182 -58.1396c-12.9561 -24.5303 -35.8271 -27.2422 -58.2246 -20.5518c-6.26562 -9.72266 -11.875 -20.0703 -16.1855 -30.792c-8.82031 -21.9258 -14.2188 -45.7217 -16.7344 -69.1816
c-6.21582 -58.0029 2.28711 -116.256 6.94336 -174.038c4.43848 -55.0488 6.80078 -112.72 -16.5098 -164.179c-21.6084 -47.709 -67.0049 -77.6777 -118.425 -82.709c-35.3887 -3.46094 -42.9355 55.7236 -8.36816 61.8213
c116.392 20.5381 80.5361 175.896 74.8877 258.541c-5.34863 78.2061 -1.79102 165.703 42.2109 232.93c-31.0352 31.5137 -49.1504 74.2451 -64.1113 115.125c-16.9697 46.3672 -28.2451 94.4727 -38.1289 142.767c-9.78027 47.7871 -17.8232 96.2744 -30.9502 143.299
c-9.54102 34.1855 -33.4619 85.3662 -77.917 70.9688c-27.5811 -8.93066 -38.4492 33.3369 -11.8418 42.9531c49.8281 18.0117 99.1748 -16.6094 121.447 -59.8906c25.2803 -49.126 34.2793 -107.486 46.7246 -160.829c13.3662 -57.2969 26.7646 -115.129 48.4727 -169.956
c9.10254 -22.9854 19.8213 -46.0889 34.2578 -66.2666c3.72461 -5.20215 7.95605 -10.3047 12.5195 -15.0498c15.0859 8.8877 32.7734 11.917 49.8145 3.17871z" />
    <glyph glyph-name="nonbreakingspace" unicode="&#xa0;" horiz-adv-x="314" 
 />
    <glyph glyph-name="exclamdown" unicode="&#xa1;" horiz-adv-x="131" 
d="M111.474 -145.854c2.08398 -40.3555 -58.1865 -38.9805 -61.9434 -0.00585938c-12.082 125.497 -15.9141 252.2 -17.252 378.226c-0.664062 62.5127 -0.75293 125.068 0.489258 187.571c1.24219 62.6914 0.253906 127.799 10.2344 189.819
c4.23926 26.3506 40.6943 16.5137 42.9277 -5.80859c6.28711 -62.8486 2.45117 -127.945 3.03613 -191.087c0.571289 -61.3574 1.65234 -122.7 3.65723 -184.028c4.08203 -125.048 12.4062 -249.764 18.8506 -374.687zM37.7188 691.74
c-1.65918 2.14844 -3.31738 4.2959 -4.98047 6.44727c-0.720703 0.949219 -3.10742 6.81152 -3.44238 7.97852c-0.470703 1.64453 -0.242188 1.25586 -0.695312 4.63867c0.0605469 -0.424805 -0.603516 3.22559 -0.599609 4.62402
c0.00683594 1.00586 0.949219 7.73926 1.17383 8.72363c0.638672 2.79004 1.79785 5.53418 3.34961 7.93945c0.852539 1.32031 4.06055 5.54492 5.15625 6.62598c1.05664 1.04199 5.43457 4.39648 6.68652 5.11328c1.30273 0.746094 6.49414 2.96582 7.91797 3.28711
c5.66992 1.52344 11.3359 1.52344 17.002 0c2.54395 -1.07422 5.0918 -2.14844 7.63574 -3.22266c7.39648 -3.90723 12.1885 -11.3721 14.6934 -19.1074c1.00977 -3.21484 1.35547 -6.42578 1.05957 -9.64062c0.0605469 -0.474609 0.125 -0.945312 0.189453 -1.41602
c-0.364258 -2.72949 -0.731445 -5.45898 -1.09863 -8.18848c-1.03809 -2.45117 -2.07324 -4.90625 -3.1084 -7.35742c-3.58984 -7.51074 -11.5469 -12.4209 -19.1895 -14.8369c-2.80859 -0.720703 -5.6416 -1.0918 -8.50293 -1.11719
c-2.05566 0.274414 -4.11133 0.552734 -6.16699 0.827148c-0.62793 0.0458984 -1.24902 0.131836 -1.85547 0.25c-0.0996094 0.0146484 -0.196289 0.0253906 -0.292969 0.0400391c-0.0712891 0.0146484 -0.138672 0.0429688 -0.209961 0.0605469
c-0.552734 0.125 -1.09473 0.289062 -1.63379 0.474609c-0.170898 0.0566406 -0.345703 0.113281 -0.516602 0.177734c-0.235352 0.0888672 -0.467773 0.181641 -0.696289 0.28125c-1.04199 0.420898 -2.07324 0.884766 -3.08301 1.3877
c-3.3291 1.32422 -6.27246 3.29785 -8.79199 6.00977z" />
    <glyph glyph-name="cent" unicode="&#xa2;" horiz-adv-x="455" 
d="M409.522 265.976c1.8623 20.7236 33.4717 21.4043 32.8398 0.00292969c-1.76953 -59.7832 -23.7988 -114.643 -49.3389 -167.918c-24.2666 -50.6133 -55.8232 -101.352 -100.417 -136.486c-6.46191 -5.0918 -13.1631 -9.60547 -20.0244 -13.6055
c1.53418 -35.5059 3.19727 -71.0303 4.87793 -106.583c1.75586 -37.208 -54.1924 -36.209 -57.2578 0c-2.47266 29.2188 -4.42773 58.5234 -5.95801 87.875c-18.583 -1.28418 -37.6436 1.72363 -56.6436 10.0088c-44.5195 19.4102 -77.0967 59.6836 -99.1729 101.819
c-50.9922 97.3203 -52.9834 213.637 -16.5459 316.191c17.4658 49.165 42.1357 95.2754 75.6543 135.381c29.1514 34.8857 68.2969 67.958 113.426 79.3262c4.80273 54.9346 9.20605 109.912 7.96387 165.107c-0.584961 26.0615 38.0967 25.3584 40.0303 0
c4.11719 -54.0244 2.22656 -107.953 -0.845703 -161.882c35.1992 -4.20703 66.3525 -23.4854 88.9639 -53.4893c31.3389 -41.5898 40.5771 -96.4746 42.6221 -147.345c1.29883 -32.3447 -51.2842 -39.9307 -56.8896 -7.7002
c-7.43262 42.7461 -8.62793 92.7031 -39.9736 126.308c-11.6709 12.5137 -24.7695 19.1357 -38.4355 21.2549l-0.225586 -3.69434c-4.45996 -73.8525 -7.24316 -147.805 -8.35645 -221.786c-1.38477 -92.0459 0.681641 -183.785 4.11816 -275.539
c9.41992 8.20996 18.0088 17.2373 25.6338 25.6406c27.4463 30.2393 48.3164 65.7637 67.2881 101.741c20.4912 38.8564 42.6777 80.9883 46.667 125.372zM213.099 288.761c2.46875 72.2109 6.55859 144.368 12.2109 216.401
c-5.0166 -2.41895 -9.97656 -5.20898 -14.8359 -8.3418c-68.1221 -43.8809 -108.488 -129.594 -125.805 -206.029c-18.708 -82.5801 -7.89648 -172.071 38.3281 -243.969c17.3584 -27 44.4258 -57.0186 78.2871 -61.0967
c3.56445 -0.431641 7.08301 -0.541992 10.5479 -0.371094c-3.43945 101.142 -2.17676 202.672 1.2666 303.406z" />
    <glyph glyph-name="sterling" unicode="&#xa3;" horiz-adv-x="581" 
d="M493.893 68.499c46.792 -49.1719 46.2031 -122.413 14.6973 -179.481c-18.0264 -32.6445 -63.6592 -3.94238 -49.0088 28.6455c11.8857 26.4434 18.4189 59.0732 7.18652 86.8262c-9.97656 24.6445 -33.6826 41.2324 -58.4668 48.6719
c-21.623 6.49023 -44.7764 7.86426 -68.0439 5.65234c-2.36523 -31.6846 -7.5459 -63.0049 -16.8867 -92.7881c-19.0039 -60.5938 -58.21 -113.934 -118.586 -137.687c-52.9541 -20.834 -130.757 -9.81543 -150.413 52.0166c-21.751 68.415 42.2354 125.908 91.1045 162.307
c39.752 29.6084 86.1016 51.8096 134.436 64.1592c0.727539 35.0283 -1.31348 70.1846 -5.41309 104.938c-24.0742 -9.49805 -47.5527 -20.5771 -70.2852 -33.2793c-24.5449 -13.7119 -45.8252 22.9287 -21.9756 37.5977c27.3174 16.8018 55.7939 31.3984 85.2061 43.666
c-10.2373 58.2676 -26.3008 115.011 -37.8477 173.021c-11.6465 58.5098 -11.1758 122.918 29.6328 170.584c34.4248 40.2158 96.8242 57.2852 147.206 41.4502c25.8975 -8.13867 48.7725 -24.6943 62.4922 -48.4004c13.5693 -23.4463 17.3945 -50.8174 21.041 -77.2002
c3.68945 -26.6963 -36.127 -39.124 -41.5039 -11.4424c-5.75195 29.6113 -12.6201 66.8301 -41.793 82.4688c-26.9785 14.4619 -62.8311 9.81934 -88.2217 -5.78711c-67.2119 -41.3076 -34.9775 -136.786 -19.3096 -196.42
c9.38086 -35.7021 17.7979 -71.7256 24.6455 -108.027c21.1162 6.41895 42.6143 11.7002 64.4443 15.7354c32.4023 5.99414 45.6973 -44.0879 13.5771 -49.2441c-23.624 -3.79297 -46.9346 -8.94141 -69.8457 -15.3926c2.69434 -18.6328 4.92773 -37.3301 6.55469 -56.0986
c1.65234 -19.0254 2.79395 -38.4609 3.17969 -58.0244c55.1484 3.90332 112.517 -6.76562 152.197 -48.4658zM210.389 -96.1211c42.4785 33.3975 58.7129 88.7559 65.1143 140.4c-18.1367 -6.24414 -35.4707 -13.9365 -51.2275 -22.2822
c-23.25 -12.3174 -45.2793 -26.9648 -65 -44.4053c-18.4326 -16.3027 -43.6016 -37.9717 -47.3262 -63.8047c-3.21094 -22.29 15.9102 -31.8135 35.3848 -32.8701c22.8604 -1.24121 45.4248 9.09961 63.0547 22.9619z" />
    <glyph glyph-name="currency" unicode="&#xa4;" horiz-adv-x="530" 
d="M441.143 476.348c21.2549 20.1885 52.9219 -11.3486 32.2129 -32.2041c-21.002 -21.1484 -41.6719 -42.6279 -62.085 -64.3545c22.8398 -42.043 25.6338 -95.5928 15.3145 -143.63c-11.3574 -52.876 -37.2334 -105.787 -75.958 -144.976
c11.04 -25.5654 22.9541 -50.7881 36.124 -75.5186c17.9297 -33.6689 -33.0938 -63.5342 -51.1729 -29.9121c-12.0391 22.3896 -22.9463 45.2109 -33.0088 68.3574c-1.48828 -0.841797 -2.97656 -1.6875 -4.48633 -2.49414
c-37.3154 -19.8926 -86.2129 -29.4619 -123.442 -3.87109c-8.16699 5.6123 -15.1748 12.3057 -21.2695 19.7236c-18.0723 -25.8828 -36.0381 -51.9014 -55.9053 -76.2217c-20.624 -25.2441 -59.374 7.34668 -43.9131 33.8828
c20.3916 34.9961 46.3643 67.6973 71.7803 99.8066c-3.01172 10.9971 -5.19922 22.1826 -6.74805 33.1299c-10.2832 72.7324 8.88867 144.397 40.4238 209.712c-7.37207 -5.61621 -14.3223 -11.6035 -20.7451 -17.8516c-16.0918 -15.6533 -40.501 8.73145 -24.6367 24.6377
c19.9922 20.0488 40.9258 38.4785 64.5791 52.6475c-13.873 40.0166 -29.1729 79.498 -47.167 117.955c-13.9189 29.7402 30.0439 55.8408 44.3838 25.9434c19.2393 -40.1123 35.7451 -81.2773 50.8457 -122.978c0.164062 0.0458984 0.321289 0.0996094 0.485352 0.145508
c40.8438 11.2783 84.2246 7.95996 122.6 -10.002c12.0205 -5.62695 22.5645 -12.5674 31.7451 -20.5566c19.7529 19.7998 39.752 39.3564 60.0439 58.6279zM247.06 407.185c-0.00683594 -3.78223 -0.75293 -7.74609 -2.42969 -11.8066
c10.126 -30.1289 19.8135 -60.4219 29.5293 -90.7041c23.2959 26.0117 47.0732 51.5771 71.3047 76.707c-10.7578 10.0938 -24.3447 17.9609 -41.0332 22.7598c-18.8535 5.42383 -38.2822 6.03418 -57.3711 3.04395zM210.473 326.784
c-18.8828 -42.6855 -32.5654 -87.5811 -31.4453 -134.038c17.2949 21.3906 34.8604 42.5635 52.7256 63.4795c-7.11523 23.5098 -14.1338 47.0557 -21.2803 70.5586zM218.802 95.6084c19.792 -5.65527 42.5273 3.75684 60.8428 15.4385
c-10.4541 27.9062 -20.0273 56.1514 -29.1191 84.5859c-19.6143 -24.2412 -38.8213 -48.8115 -57.6426 -73.6738c5.62012 -12.4316 13.7588 -22.875 25.9189 -26.3506zM376.269 272.863c3.16113 22.4365 1.99902 44.7334 -4.12402 64.6221
c-26.9639 -29.7256 -53.3574 -59.9648 -79.2373 -90.6289c10.3936 -31.5244 21.1553 -62.9023 32.834 -93.9199c27.3135 34.2002 44.5439 77.4561 50.5273 119.927z" />
    <glyph glyph-name="yen" unicode="&#xa5;" horiz-adv-x="533" 
d="M456.569 200.087c22.1191 2.87598 31.5146 -33.4863 11.5049 -42.4316c-23.2031 -10.376 -48.1152 -17.3906 -72.6885 -25.1045c-14.9756 -83.6973 -39.1064 -166.01 -76.3008 -242.442c-7.58594 -15.5928 -29.7012 -19.6855 -43.7451 -11.4717
c-16.124 9.43066 -18.376 27.9316 -11.4717 43.7451c26.0039 59.5449 46.3887 120.767 61.1748 183.341c-23.5029 -10.2793 -46.7061 -21.2334 -69.9736 -32.0771c-20.0918 -9.3623 -35.4707 16.8594 -17.334 29.6543c30.7539 21.6904 63.9873 39.6094 98.3232 54.9883
c3.97168 21.6084 7.29688 43.3633 9.94824 65.2568c-27.5889 -11.5361 -55.2773 -22.751 -84.7539 -28.125c-17.4805 -3.18652 -31.4209 22.2822 -12.9736 30.7744c33.6865 15.5107 67.708 33.0195 102.636 47.7598c0.314453 4.22852 0.667969 8.44922 0.931641 12.6846
c3.97168 63.4482 4.4248 127.706 -2.67188 190.947c-3.67188 32.7012 -10.1729 65.2314 -19.4248 96.8164c-3.88965 13.2773 -8.05762 26.6758 -13.6562 39.3496c-3.1582 7.1543 -6.81543 14.166 -10.9688 20.7959c-0.642578 1.02441 -1.87402 2.72656 -3.19824 4.53906
c-3.85742 -8.26367 -7.04688 -18.6465 -8.98047 -23.2783c-6.01953 -14.4082 -11.5283 -29.0264 -16.9336 -43.6699c-10.9609 -29.7041 -21.0693 -59.7158 -31.8594 -89.4844c-19.0684 -52.5977 -40.2197 -105.31 -71.2334 -152.151
c-15.2607 -23.0498 -32.6406 -46.8457 -59.1875 -57.4502c-27.168 -10.8506 -55.124 -0.852539 -71.3271 23c-32.7158 48.166 -25.1514 121.198 -18.9609 175.779c6.58984 58.0996 16.5449 125.615 49.1465 175.519c16.7412 25.6221 57.9346 1.80859 41.207 -24.0889
c-17.0879 -26.4502 -24.4385 -58.1064 -31.2002 -88.5244c-6.80469 -30.6104 -11.1865 -61.6211 -13.085 -92.9238c-1.84863 -30.4678 -2.95508 -62.6309 5.21582 -92.3242c1.79102 -6.51562 6.04102 -25.873 13.9229 -28.5244
c8.67773 -2.91895 20.834 12.9375 25.3154 18.5898c61.8066 77.9629 83.5039 181.191 119.221 271.942c8.82031 22.4072 17.0801 48.1328 30.5215 68.2891c15.5674 23.3496 44.4834 27.3027 65.9844 9.09473c38.1855 -32.334 53.9355 -95.0645 64.79 -141.481
c19.0645 -81.5352 23.6172 -167.02 19.4209 -251.259c15.2324 4.125 30.6719 7.31445 46.3857 9.09863c29.6934 3.37207 30.125 -44.4053 0 -46.8887c-17.1592 -1.41699 -33.6299 -5.10645 -49.7188 -10.0479c-1.0459 -11.9492 -2.21582 -23.8594 -3.55762 -35.7021
c-0.984375 -8.68848 -2.08301 -17.373 -3.24219 -26.0547c17.416 6.22949 35.125 11.2432 52.7979 13.541z" />
    <glyph glyph-name="section" unicode="&#xa7;" horiz-adv-x="368" 
d="M300.878 110.706c22.8428 -36.6377 38.1406 -77.3027 43.8105 -121.309c8.1748 -63.373 -4.66992 -131.374 -43.4697 -183.215c-42.3496 -56.5791 -112.962 -85.6943 -179.807 -54.5732c-31.8203 14.8145 -8.69922 68.8711 23.8633 56.6035
c68.1289 -25.6689 118.643 38.9854 133.536 98.2871c13.9443 55.5264 3.93262 115.877 -23.7842 165.62c-30.7002 55.0986 -82.0986 94.123 -126.725 137.262c-49.4648 47.8193 -91.9248 101.962 -74.1982 174.729c9.7627 40.0586 39.2998 86.5898 77.9316 110.614
c-15.4141 29.3477 -24.5732 61.3359 -20.791 95.4395c6.40137 57.7246 43.5664 103.846 85.9844 140.822c30.4863 26.5713 75.0625 -17.1562 44.748 -44.7451c-37.04 -33.7119 -78.3193 -78.9307 -64.5469 -133.177c14.3691 -56.6006 64.6396 -97.1914 98.4971 -142.242
c36.1875 -48.1553 66.7803 -106.298 75.2363 -166.488c6.80078 -48.3799 -6.92969 -107.5 -50.2861 -133.629zM273.173 148.889c30.0332 40.2979 24.7422 88.0566 4.72559 135.412c-23.7275 56.1338 -60.875 99.3652 -99.9883 145.037
c-6.76855 7.90332 -13.4375 16.1279 -19.8027 24.6416c-14.7041 -13.1553 -28.2949 -26.957 -38.6455 -45.7148c-18.8506 -34.165 -22.8535 -71.5625 -0.798828 -105.07c18.1582 -27.5811 45.0547 -50.167 69.4814 -72.0322
c24.459 -21.8936 49.4678 -43.2773 71.8857 -67.3154c4.5498 -4.87793 8.90332 -9.88379 13.1426 -14.958z" />
    <glyph glyph-name="copyright" unicode="&#xa9;" horiz-adv-x="637" 
d="M436.948 643.916c136.233 -73.624 190.069 -229.709 175.512 -377.839c-14.1045 -143.552 -94.0654 -313.472 -241.396 -360.639c-71.1943 -22.793 -145.558 -6.50098 -201.431 42.457c-52.3086 45.8359 -83.1973 113.533 -98.415 180.253
c-37.8076 165.777 9.77344 335.166 80.9678 484.977c0.0361328 0.078125 0.0859375 0.145508 0.125 0.223633c-41.6865 -15.6992 -82.8447 -41.2324 -93.8418 -81.4414c-7.17578 -26.2256 -47.5059 -15.0898 -40.6982 11.2178
c19.8926 76.8779 114.601 117.568 184.949 132.644c79.4971 17.0342 162.502 6.91113 234.228 -31.8525zM557.054 305.22c2.06641 65.6348 -8.90332 134.427 -41.8262 192.045c-29.0732 50.8672 -74.9629 90.4697 -128.281 114.351
c-56.1299 25.1406 -120.841 30.3604 -180.721 17.4082c-4.4668 -0.966797 -9.14062 -2.0625 -13.9473 -3.27246c0.945312 -0.416992 1.8584 -0.876953 2.73926 -1.39062c15.7393 -9.20605 18.0586 -27.3779 11.2295 -42.8311
c-64.001 -144.805 -113.116 -307.91 -66.7275 -465.331c14.875 -50.4814 41.8857 -102.187 85.748 -133.321c49.0361 -34.8145 111.271 -32.0742 162.676 -3.41504c55.3018 30.832 94.6191 84.6748 122.433 140.366c28.6016 57.2646 44.665 121.451 46.6777 185.392z
M410.364 196.224c22.1191 12.4023 48.1113 -18.7617 27.8018 -36.0312c-42.1104 -35.792 -96.4844 -98.0947 -157.424 -60.0449c-44.7549 27.9453 -55.9697 90.8975 -58.5918 139.31c-2.99707 55.3623 6.17969 112.163 26.7178 163.676
c17.2949 43.3809 49.1904 101.483 100.774 108.474c50.8887 6.89355 72.3652 -39.9023 77.1182 -82.4482c2.06934 -18.5078 -29.7471 -22.5938 -32.416 -4.38574c-2.22656 15.2178 -11.2363 40.8223 -30.9355 39.7734
c-18.6182 -0.988281 -33.1514 -22.9004 -41.6934 -36.998c-24.3096 -40.1309 -36.2061 -89.4639 -39.7773 -135.874c-3.26172 -42.3926 -4.03223 -97.834 22.6211 -133.857c28.2559 -38.1895 80.5674 24.2559 105.805 38.4072z" />
    <glyph glyph-name="softhyphen" unicode="&#xad;" 
 />
    <glyph glyph-name="registered" unicode="&#xae;" horiz-adv-x="580" 
d="M554.775 420.546c20.0381 -136.705 -35.834 -292.51 -141.418 -382.844c-54.5098 -46.6279 -128.509 -75.251 -199.8 -52.8936c-61.1895 19.1895 -109.559 68.665 -134.842 126.711c-29.9756 68.8145 -32.8301 145.543 -26.6357 219.392
c6.36914 75.9111 22.5254 150.877 50.0645 221.936c-7.43262 -6.80762 -14.4258 -14.1084 -20.9053 -21.8799c-10.333 -12.3955 -41.04 -47.584 -22.2256 -63.0156c16.4023 -13.4551 -6.8584 -35.834 -23.1035 -23.0996c-25.9727 20.3594 -15.0723 58.1709 -2.89453 83.0938
c15.4932 31.7061 41.6582 59.0166 69.5068 80.2148c55.8867 42.543 128.291 63.7158 198.333 56.3799c128.822 -13.4912 235.141 -115.889 253.92 -243.994zM391.289 101.868c78.4375 80.7002 126.373 206.877 106.117 319.443
c-18.0117 100.067 -101.973 183.932 -204.652 194.154c-51.6943 5.14551 -105.33 -6.66504 -150.156 -32.873c-1.73047 -1.01367 -3.42188 -2.08789 -5.12402 -3.14062c1.52734 -0.189453 3.07227 -0.457031 4.65332 -0.892578
c15.3174 -4.20703 27.7129 -22.6436 21.8613 -38.5078c-25.2412 -68.4434 -42.9707 -139.634 -48.7441 -212.47c-5.18848 -65.4678 -5.63477 -137.679 24.6445 -197.787c20.8018 -41.2969 56.5859 -77.1816 102.85 -87.54c56.2725 -12.5986 110.861 20.835 148.551 59.6133z
M372.08 296.003c29.041 16.4629 53.9385 -26.7715 26.0146 -44.5332c-27.9668 -17.791 -80.9746 -37.7148 -108.185 -8.59961c-29.4512 31.5098 2.87598 75.876 13.5801 108.238c3.46777 10.4795 6.51855 21.1055 9.13379 31.8271
c1.75879 7.20801 7.21484 21.2734 4.02539 28.8809c-4.93066 11.75 -27.3887 7.59668 -36.7656 5.55566c-1.22363 -0.267578 -2.42285 -0.582031 -3.63281 -0.875c-0.367188 -48.6367 -3.38184 -97.4521 -4.13867 -146.028
c-0.899414 -57.7285 0.110352 -115.449 -0.420898 -173.174c-0.321289 -35.0244 -53.2188 -34.8242 -54.2461 0c-1.73047 58.8662 0.203125 117.883 2.50488 176.71c1.56641 39.9268 2.97266 80.3672 6.3623 120.455c-13.4053 -9.0127 -25.5078 -20.0742 -36.1299 -32.8877
c-17.3477 -20.9238 -46.5703 8.96289 -29.7217 29.7256c19.3145 23.8066 43.9062 42.6279 71.6162 55.3193c0.131836 0.920898 0.231445 1.85254 0.363281 2.77344c2.70117 18.6396 24.2705 19.749 36.085 9.80469c26.7432 6.2373 57.5791 6.4834 77.7285 -13.5732
c28.7441 -28.6094 11.1963 -80.2754 1.20898 -113.498c-5.10938 -16.9951 -13.9551 -33.8652 -17.9902 -51.1104c0.838867 0.125 1.92383 0.282227 3.40137 0.510742c4.57422 0.706055 9.1377 1.83008 13.5732 3.11426c9.15527 2.64746 17.3799 6.68262 25.6328 11.3643z
" />
    </font>
</defs>
</svg>
